<svg width="32" height="32" viewBox="0 0 32 32" fill="none" xmlns="http://www.w3.org/2000/svg">
<path d="M29.286 6.00816C29.286 6.00816 29.5208 3.62852 28.9462 3.05393M28.9462 3.05393C28.3682 2.47594 25.9923 2.71609 25.9923 2.71609M28.9462 3.05393L25.3335 6.66658" stroke="#B0C9E2" stroke-width="2" stroke-linecap="round" stroke-linejoin="round"/>
<path d="M29.286 25.9918C29.286 25.9918 29.5208 28.3714 28.9462 28.946M28.9462 28.946C28.3682 29.524 25.9923 29.2839 25.9923 29.2839M28.9462 28.946L25.3335 25.3334" stroke="#B0C9E2" stroke-width="2" stroke-linecap="round" stroke-linejoin="round"/>
<path d="M3.05381 3.05392L6.6665 6.66658M3.05381 3.05392C3.63179 2.47594 6.00774 2.71609 6.00774 2.71609M3.05381 3.05392C2.47921 3.62852 2.71398 6.00814 2.71398 6.00814" stroke="#B0C9E2" stroke-width="2" stroke-linecap="round" stroke-linejoin="round"/>
<path d="M3.05381 28.946L6.6665 25.3334M3.05381 28.946C3.63179 29.524 6.00774 29.2839 6.00774 29.2839M3.05381 28.946C2.47921 28.3715 2.71398 25.9919 2.71398 25.9919" stroke="#B0C9E2" stroke-width="2" stroke-linecap="round" stroke-linejoin="round"/>
<path d="M25.3332 16C25.3332 21.1546 21.1545 25.3333 15.9998 25.3333C10.8452 25.3333 6.6665 21.1546 6.6665 16C6.6665 10.8453 10.8452 6.66663 15.9998 6.66663C21.1545 6.66663 25.3332 10.8453 25.3332 16Z" stroke="#B0C9E2" stroke-width="2"/>
<path d="M15.8855 12.4017C14.4127 12.4017 13.3335 13.2579 13.3335 14.2516C13.3335 15.2452 14.0294 15.8665 16.0002 15.8665C18.1711 15.8665 18.6668 16.8564 18.6668 17.85C18.6668 18.8437 17.7179 19.6285 15.8855 19.6285M15.8855 12.4017C17.0466 12.4017 17.6603 12.8081 18.145 13.3553M15.8855 12.4017V11.276M15.8855 19.6285C14.7244 19.6285 14.273 19.3992 13.6335 18.8205M15.8855 19.6285V20.6784" stroke="#B0C9E2" stroke-width="2" stroke-linecap="round"/>
</svg>
