<svg width="32" height="32" viewBox="0 0 32 32" fill="none" xmlns="http://www.w3.org/2000/svg">
<path fill-rule="evenodd" clip-rule="evenodd" d="M21.7427 18.6795C21.9729 19.425 21.8629 20.2545 21.6033 21.0663C21.0151 22.9058 20.0807 24.4602 19.0414 25.7331C19.1581 25.7127 19.2765 25.6867 19.3965 25.6554C20.2746 25.4257 21.1651 24.9211 21.9257 24.3359C21.9393 24.3255 21.9527 24.315 21.9665 24.3045C22.1891 24.133 22.4322 23.9459 22.6413 23.8167C22.7543 23.7469 22.933 23.6454 23.1515 23.5801C23.3811 23.5114 23.7566 23.4533 24.1685 23.6186C24.581 23.7842 24.8065 24.0867 24.9117 24.2565C25.0211 24.4333 25.0906 24.6135 25.1349 24.7414C25.2186 24.983 25.2987 25.2991 25.3785 25.6145C25.3826 25.6303 25.3866 25.6462 25.3906 25.6621C25.5095 26.1315 25.6797 26.5473 25.8702 26.8609C26.0694 27.1885 26.2357 27.3161 26.3049 27.3509L26.3078 27.3546C26.3094 27.3591 26.3105 27.3619 26.3626 27.3373C26.4946 27.2749 26.7995 27.0566 27.2174 26.4177C27.6203 25.8013 28.4467 25.6283 29.063 26.0314C29.6793 26.4343 29.8522 27.2607 29.4493 27.877C28.8947 28.7251 28.2566 29.3914 27.5027 29.7479C26.6841 30.1351 25.8375 30.1025 25.1026 29.7313C24.4285 29.3907 23.9369 28.8141 23.5914 28.2457C23.335 27.8237 23.1273 27.3546 22.9674 26.8721C22.1333 27.4382 21.1417 27.9553 20.0713 28.2353C18.9914 28.5177 17.7887 28.5665 16.6097 28.1389C15.8627 28.7381 15.1398 29.2113 14.5135 29.5586C14.1071 29.7841 13.7277 29.9642 13.3966 30.0919C13.118 30.1995 12.7186 30.3334 12.3333 30.3334C11.5969 30.3334 11 29.7363 11 29.0001C11 28.2939 11.5488 27.7161 12.2431 27.6697C12.2635 27.6641 12.3248 27.6473 12.4359 27.6043C12.6292 27.5297 12.8965 27.4061 13.2201 27.2266C13.5449 27.0465 13.9125 26.8178 14.3031 26.5405C14.1797 26.4029 14.0593 26.2578 13.9422 26.1051C12.7176 24.5094 12.7233 22.7669 13.3606 21.3013C13.9662 19.9087 15.1254 18.7677 16.2835 18.0299C16.8719 17.6551 17.503 17.3562 18.1237 17.1791C18.7231 17.0081 19.4274 16.9182 20.0987 17.1002C20.8489 17.3035 21.4819 17.8353 21.7427 18.6795ZM16.3182 24.7929C16.2315 24.6983 16.1446 24.5949 16.0578 24.4817C15.5046 23.7609 15.499 23.071 15.8061 22.3647C16.1449 21.5854 16.8745 20.8153 17.7163 20.279C18.1281 20.0167 18.5247 19.8378 18.8554 19.7434C18.9901 19.705 19.1037 19.6835 19.1953 19.6735C19.1827 19.7994 19.1483 19.9882 19.0633 20.2542C18.4749 22.0946 17.4417 23.6099 16.3182 24.7929Z" fill="#B0C9E2"/>
<path d="M7.23027 30.2983C7.92836 30.4625 8.6269 30.0275 8.79048 29.3269C8.95407 28.6262 8.52078 27.9251 7.82268 27.761C7.28839 27.6353 6.90822 27.4642 6.59667 27.2411C6.27474 27.0107 5.99104 26.7389 5.75316 26.435C5.40956 25.9959 5.1823 25.4066 5.05887 24.3407C4.93204 23.2453 4.92999 21.8158 4.92999 19.7599V16.4018C4.92999 15.8475 4.93004 15.3371 4.93172 14.8649C4.93323 14.4439 4.93399 14.2334 5.04898 13.9761C5.16395 13.7187 5.26652 13.6262 5.47167 13.4411C6.08223 12.8904 6.89094 12.5551 7.77794 12.5551C7.97411 12.5551 8.27278 12.5679 8.50958 12.5789C8.50958 12.5789 8.94094 12.5991 9.1651 12.6038C9.67188 12.6143 10.2633 12.5983 10.8341 12.4454C11.9461 12.1474 12.8146 11.2789 13.1126 10.1669C13.2655 9.59604 13.2816 9.00465 13.271 8.49787C13.2664 8.27367 13.2461 7.84235 13.2461 7.84235C13.2351 7.60555 13.2224 7.30688 13.2224 7.11071C13.2224 6.23607 13.5484 5.43756 14.0856 4.83008C14.2697 4.62171 14.3618 4.51751 14.6205 4.39988C14.879 4.28224 15.0902 4.28073 15.5125 4.27771C16.1536 4.27312 16.8701 4.27241 17.6764 4.27241C20.123 4.27241 21.0093 4.29143 21.6778 4.52989C22.8377 4.94367 23.7286 5.80948 24.145 6.87723C24.2501 7.14645 24.3236 7.49879 24.3629 8.10523C24.403 8.72301 24.4037 9.5112 24.4037 10.6451V18.6358C24.4037 19.3555 24.9849 19.9389 25.702 19.9389C26.4189 19.9389 27.0001 19.3555 27.0001 18.6358V10.6012C27.0001 9.52156 27.0002 8.64831 26.954 7.93581C26.9064 7.20233 26.8058 6.55019 26.5629 5.92736C25.8608 4.12693 24.3864 2.73036 22.5473 2.07435C21.4 1.66508 20.0208 1.66559 17.9493 1.66632L17.359 1.66636C13.5753 1.66587 11.3238 1.66557 9.47835 2.32389C6.51478 3.38105 4.15319 5.62603 3.0316 8.50204C2.65826 9.45937 2.49256 10.4882 2.41234 11.7242C2.3335 12.939 2.3335 14.4401 2.3335 16.3555V19.8403C2.33347 21.7966 2.33344 23.3781 2.47974 24.6415C2.63146 25.9518 2.95444 27.0778 3.71136 28.0449C4.10412 28.5466 4.56832 28.9901 5.08882 29.3627C5.73043 29.8221 6.43935 30.1122 7.23027 30.2983Z" fill="#004280"/>
</svg>
