<svg width="20" height="21" viewBox="0 0 20 21" fill="none" xmlns="http://www.w3.org/2000/svg">
  <path
    d="M18.3332 10.9749C18.3332 10.9749 15.8332 16.8083 9.99984 16.8083C4.1665 16.8083 1.6665 10.9749 1.6665 10.9749C1.6665 10.9749 4.1665 5.1416 9.99984 5.1416C15.4165 5.1416 18.3332 10.9749 18.3332 10.9749Z"
    stroke="currentColor" stroke-width="1.25" stroke-linejoin="round" />
  <path
    d="M9.73092 8.20544C9.85633 8.00834 10.144 8.00834 10.2694 8.20544L10.6323 8.77559C11.0336 9.40612 11.5683 9.94087 12.1988 10.3421L12.769 10.705C12.9661 10.8305 12.9661 11.1181 12.769 11.2435L12.1988 11.6065C11.5683 12.0077 11.0336 12.5425 10.6323 13.173L10.2694 13.7431C10.144 13.9402 9.85633 13.9402 9.73092 13.7431L9.368 13.173C8.96675 12.5425 8.432 12.0077 7.80147 11.6065L7.23131 11.2435C7.03422 11.1181 7.03422 10.8305 7.23131 10.705L7.80147 10.3421C8.432 9.94087 8.96675 9.40612 9.368 8.77559L9.73092 8.20544Z"
    stroke="currentColor" stroke-width="1.25" stroke-linejoin="round" />
</svg>