<svg viewBox="0 0 323 70" fill="none" xmlns="http://www.w3.org/2000/svg">
  <path
    d="M101.122 36.5333V35.7389C101.122 33.7426 100.442 32.2148 99.0828 31.1556C97.7647 30.0556 96.0348 29.5056 93.8928 29.5056C92.2453 29.5056 90.9478 29.7907 90.0004 30.3612C89.0942 30.8907 88.2293 31.7056 87.4055 32.8056C87.1584 33.1315 86.8906 33.3556 86.6022 33.4778C86.3139 33.6 85.9226 33.6611 85.4283 33.6611H83.5748C83.1217 33.6611 82.7098 33.4982 82.3391 33.1722C82.0096 32.8464 81.8654 32.4593 81.9066 32.0111C82.0302 30.7889 82.6274 29.5871 83.6983 28.4056C84.8105 27.1834 86.2728 26.1853 88.0851 25.4111C89.8974 24.6371 91.8334 24.25 93.8928 24.25C97.7235 24.25 100.813 25.3093 103.161 27.4278C105.55 29.5464 106.744 32.5204 106.744 36.35V54.9889C106.744 55.437 106.579 55.824 106.25 56.15C105.92 56.4758 105.529 56.6388 105.076 56.6388H102.79C102.337 56.6388 101.945 56.4758 101.616 56.15C101.286 55.824 101.122 55.437 101.122 54.9889V52.4833C100.463 53.95 99.0622 55.1111 96.9203 55.9667C94.7784 56.8222 92.6366 57.25 90.4947 57.25C88.394 57.25 86.5199 56.8833 84.8723 56.15C83.2246 55.3759 81.9478 54.337 81.0416 53.0333C80.1766 51.7296 79.7441 50.2629 79.7441 48.6333C79.7441 45.5777 80.8975 43.1944 83.204 41.4833C85.5107 39.7314 88.5793 38.5499 92.41 37.9389L101.122 36.5333ZM101.122 41.4222L93.8311 42.5833C91.1538 42.9907 89.0736 43.663 87.5908 44.6C86.1079 45.4963 85.3666 46.637 85.3666 48.0222C85.3666 49.0407 85.8403 49.9574 86.7876 50.7721C87.735 51.587 89.1767 51.9944 91.1126 51.9944C94.0783 51.9944 96.4879 51.1592 98.3413 49.4889C100.195 47.8185 101.122 45.6389 101.122 42.9499V41.4222Z"
    fill="white" />
  <path
    d="M121.744 55.5768C121.744 56.0312 121.597 56.4237 121.304 56.7543C121.011 57.0847 120.664 57.25 120.26 57.25H118.227C117.824 57.25 117.476 57.0847 117.183 56.7543C116.89 56.4237 116.744 56.0312 116.744 55.5768V14.9233C116.744 14.4688 116.89 14.0764 117.183 13.7458C117.476 13.4153 117.824 13.25 118.227 13.25H120.26C120.664 13.25 121.011 13.4153 121.304 13.7458C121.597 14.0764 121.744 14.4688 121.744 14.9233V55.5768Z"
    fill="white" />
  <path
    d="M144.556 51.9944C148.758 51.9944 151.594 50.4056 153.066 47.2278C153.359 46.6166 153.654 46.1889 153.948 45.9445C154.242 45.7 154.641 45.5777 155.145 45.5777H157.037C157.499 45.5777 157.897 45.7407 158.233 46.0667C158.57 46.3518 158.738 46.6981 158.738 47.1056C158.738 48.4907 158.171 49.9777 157.037 51.5667C155.901 53.1555 154.262 54.5 152.12 55.5999C149.977 56.6999 147.456 57.25 144.556 57.25C141.572 57.25 138.989 56.6388 136.803 55.4166C134.618 54.1944 132.938 52.5241 131.761 50.4056C130.584 48.2463 129.934 45.8426 129.807 43.1944C129.765 42.7056 129.744 41.7686 129.744 40.3834C129.744 39.4056 129.765 38.7129 129.807 38.3056C130.185 34.15 131.635 30.7685 134.156 28.1612C136.678 25.5537 140.144 24.25 144.556 24.25C147.456 24.25 149.955 24.8001 152.056 25.9001C154.2 26.9593 155.818 28.2834 156.91 29.8722C158.045 31.4204 158.654 32.8871 158.738 34.2722C158.78 34.7204 158.612 35.1075 158.233 35.4333C157.897 35.7593 157.499 35.9223 157.037 35.9223H155.145C154.641 35.9223 154.242 35.8 153.948 35.5555C153.654 35.3111 153.359 34.8834 153.066 34.2722C151.594 31.0944 148.758 29.5056 144.556 29.5056C142.245 29.5056 140.228 30.2593 138.505 31.7667C136.783 33.2741 135.795 35.5555 135.542 38.6111C135.501 39.0593 135.48 39.7926 135.48 40.8111C135.48 41.7482 135.501 42.4407 135.542 42.8889C135.837 45.9445 136.824 48.2259 138.505 49.7333C140.228 51.2407 142.245 51.9944 144.556 51.9944Z"
    fill="white" />
  <path
    d="M194.744 55.5768C194.744 56.0312 194.577 56.4237 194.241 56.7543C193.907 57.0847 193.51 57.25 193.05 57.25H190.726C190.266 57.25 189.869 57.0847 189.535 56.7543C189.199 56.4237 189.032 56.0312 189.032 55.5768V39.2162C189.032 36.1176 188.258 33.7627 186.71 32.1514C185.161 30.5402 183.006 29.7346 180.244 29.7346C177.524 29.7346 175.368 30.5402 173.779 32.1514C172.23 33.7627 171.456 36.1176 171.456 39.2162V55.5768C171.456 56.0312 171.288 56.4237 170.954 56.7543C170.619 57.0847 170.221 57.25 169.761 57.25H167.438C166.978 57.25 166.58 57.0847 166.246 56.7543C165.911 56.4237 165.744 56.0312 165.744 55.5768V14.9233C165.744 14.4688 165.911 14.0764 166.246 13.7458C166.58 13.4153 166.978 13.25 167.438 13.25H169.761C170.221 13.25 170.619 13.4153 170.954 13.7458C171.288 14.0764 171.456 14.4688 171.456 14.9233V28.6191C172.376 27.421 173.633 26.4294 175.222 25.6444C176.854 24.8181 178.842 24.4049 181.185 24.4049C183.821 24.4049 186.166 24.9627 188.216 26.0782C190.266 27.1937 191.857 28.8049 192.987 30.912C194.159 32.9778 194.744 35.436 194.744 38.2866V55.5768Z"
    fill="white" />
  <path
    d="M217.244 24.25C221.721 24.25 225.257 25.6352 227.852 28.4056C230.447 31.1759 231.744 34.9445 231.744 39.7111V41.3611C231.744 41.8093 231.576 42.1963 231.242 42.5222C230.907 42.8482 230.509 43.0111 230.049 43.0111H208.456V43.3778C208.54 46.0667 209.377 48.1852 210.967 49.7333C212.599 51.2407 214.691 51.9944 217.244 51.9944C219.336 51.9944 220.947 51.7296 222.077 51.2C223.249 50.6703 224.295 49.9166 225.216 48.9389C225.55 48.6129 225.844 48.3889 226.094 48.2667C226.388 48.1444 226.764 48.0833 227.224 48.0833H229.108C229.609 48.0833 230.028 48.2463 230.363 48.5721C230.697 48.8981 230.844 49.2852 230.802 49.7333C230.634 50.8333 230.007 51.974 228.919 53.1555C227.873 54.2962 226.345 55.274 224.337 56.0889C222.37 56.8629 220.006 57.25 217.244 57.25C214.566 57.25 212.18 56.6592 210.088 55.4777C207.996 54.2555 206.322 52.5852 205.066 50.4667C203.853 48.3482 203.121 45.9648 202.87 43.3166C202.787 42.0944 202.744 41.1574 202.744 40.5056C202.744 39.8537 202.787 38.9167 202.87 37.6944C203.121 35.1685 203.853 32.8871 205.066 30.85C206.322 28.813 207.975 27.2038 210.026 26.0223C212.118 24.8408 214.524 24.25 217.244 24.25ZM226.094 37.8778V37.6944C226.094 35.2092 225.279 33.2333 223.647 31.7667C222.056 30.2593 219.922 29.5056 217.244 29.5056C214.817 29.5056 212.745 30.2593 211.03 31.7667C209.355 33.2741 208.499 35.25 208.456 37.6944V37.8778H226.094Z"
    fill="white" />
  <path
    d="M244.485 28.484C245.494 27.1972 246.63 26.1803 247.892 25.433C249.154 24.6444 250.836 24.25 252.939 24.25C257.86 24.25 261.308 26.0557 263.285 29.6671C264.505 27.9236 265.892 26.5953 267.449 25.6821C269.005 24.7274 271.044 24.25 273.568 24.25C277.689 24.25 280.739 25.4745 282.715 27.9236C284.734 30.3727 285.744 33.8387 285.744 38.3217V55.5689C285.744 56.0255 285.575 56.4198 285.239 56.752C284.903 57.0839 284.503 57.25 284.04 57.25H281.706C281.244 57.25 280.844 57.0839 280.507 56.752C280.171 56.4198 280.002 56.0255 280.002 55.5689V38.9443C280.002 32.718 277.521 29.6048 272.559 29.6048C270.287 29.6048 268.479 30.3519 267.133 31.8463C265.787 33.3406 265.114 35.5613 265.114 38.5086V55.5689C265.114 56.0255 264.946 56.4198 264.61 56.752C264.274 57.0839 263.874 57.25 263.411 57.25H261.077C260.615 57.25 260.215 57.0839 259.878 56.752C259.542 56.4198 259.373 56.0255 259.373 55.5689V38.9443C259.373 32.718 256.892 29.6048 251.93 29.6048C249.658 29.6048 247.85 30.3519 246.504 31.8463C245.158 33.3406 244.485 35.5613 244.485 38.5086V55.5689C244.485 56.0255 244.317 56.4198 243.981 56.752C243.644 57.0839 243.244 57.25 242.782 57.25H240.448C239.985 57.25 239.586 57.0839 239.249 56.752C238.913 56.4198 238.744 56.0255 238.744 55.5689V26.5538C238.744 26.0972 238.913 25.7029 239.249 25.3708C239.586 25.0388 239.985 24.8727 240.448 24.8727H242.782C243.244 24.8727 243.644 25.0388 243.981 25.3708C244.317 25.7029 244.485 26.0972 244.485 26.5538V28.484Z"
    fill="white" />
  <path
    d="M303.34 67.7626C302.953 68.7542 302.333 69.25 301.476 69.25H298.842C298.413 69.25 298.048 69.1054 297.749 68.8162C297.449 68.5269 297.299 68.1758 297.299 67.7626C297.299 67.5974 297.32 67.4528 297.363 67.3288L303.531 54.3767L290.809 27.1711C290.767 27.0471 290.744 26.9025 290.744 26.7372C290.744 26.3242 290.895 25.973 291.194 25.6837C291.494 25.3946 291.858 25.25 292.287 25.25H294.922C295.778 25.25 296.4 25.7457 296.785 26.7372L306.68 47.8077L316.705 26.7372C317.09 25.7457 317.712 25.25 318.568 25.25H321.203C321.631 25.25 321.995 25.3946 322.294 25.6837C322.595 25.973 322.744 26.3242 322.744 26.7372C322.744 26.9025 322.723 27.0471 322.681 27.1711L303.34 67.7626Z"
    fill="white" />
  <path
    d="M55.5925 36.5214L35.1523 0.834101C35.0533 0.657882 34.91 0.511093 34.7367 0.408545C34.5635 0.305997 34.3665 0.251318 34.1656 0.250024C33.9647 0.24873 33.7671 0.300867 33.5926 0.401175C33.4181 0.501482 33.273 0.646414 33.1718 0.821344L27.0501 11.5148C26.8497 11.8648 26.7441 12.2619 26.7441 12.6661C26.7441 13.0702 26.8497 13.4674 27.0501 13.8174L40.3785 37.0987C40.5791 37.449 40.8679 37.74 41.2156 37.9421C41.5633 38.1443 41.9577 38.2505 42.359 38.25H54.6023C54.8028 38.2494 54.9996 38.1958 55.173 38.0945C55.3464 37.9933 55.4905 37.8478 55.5906 37.6728C55.6909 37.4979 55.7438 37.2994 55.7441 37.0975C55.7445 36.8954 55.6922 36.6967 55.5925 36.5214Z"
    fill="#363FF9" />
  <path
    d="M0.907158 55.515L22.0479 19.8251C22.1516 19.6502 22.3008 19.505 22.4803 19.4041C22.6597 19.3032 22.8632 19.25 23.0704 19.25C23.2776 19.25 23.4813 19.3032 23.6607 19.4041C23.8402 19.505 23.9892 19.6502 24.0929 19.8251L30.4277 30.5096C30.635 30.8603 30.7441 31.2579 30.7441 31.6626C30.7441 32.0674 30.635 32.465 30.4277 32.8157L16.6425 56.0986C16.4357 56.449 16.1377 56.74 15.7787 56.9421C15.4197 57.1443 15.0122 57.2506 14.5974 57.25H1.93131C1.72266 57.251 1.51746 57.1982 1.33658 57.0968C1.15569 56.9954 1.00559 56.8491 0.901526 56.6729C0.797467 56.4966 0.743161 56.2966 0.744154 56.0932C0.745147 55.8898 0.801382 55.6903 0.907158 55.515Z"
    fill="#363FF9" />
  <path
    d="M23.9336 57.25H66.5545C66.7635 57.2498 66.9689 57.1947 67.1499 57.0902C67.3308 56.9857 67.481 56.8355 67.5853 56.6548C67.6896 56.474 67.7444 56.2691 67.7441 56.0605C67.7438 55.8519 67.6884 55.6471 67.5836 55.4667L61.208 44.4379C60.9987 44.0763 60.6978 43.7762 60.3353 43.5677C59.9728 43.3592 59.5616 43.2496 59.1431 43.25H31.3516C30.9331 43.2496 30.522 43.3592 30.1595 43.5677C29.797 43.7762 29.496 44.0763 29.2868 44.4379L22.9046 55.4667C22.7997 55.6471 22.7444 55.8519 22.7441 56.0605C22.7438 56.2691 22.7985 56.474 22.9028 56.6548C23.0071 56.8355 23.1573 56.9857 23.3383 57.0902C23.5193 57.1947 23.7245 57.2498 23.9336 57.25Z"
    fill="#363FF9" />
</svg>