<svg width="32" height="32" viewBox="0 0 32 32" fill="none" xmlns="http://www.w3.org/2000/svg">
<path d="M1.6665 16C1.6665 8.08394 8.08376 1.66669 15.9998 1.66669C23.916 1.66669 30.3332 8.08394 30.3332 16C30.3332 23.9162 23.916 30.3334 15.9998 30.3334C8.08376 30.3334 1.6665 23.9162 1.6665 16Z" fill="#004280"/>
<path fill-rule="evenodd" clip-rule="evenodd" d="M19.8756 9.33922C20.6087 9.27049 21.2588 9.80912 21.3275 10.5423C21.5037 12.4215 21.1887 15.0881 20.308 17.4149C20.4473 18.1463 20.5815 18.7519 20.7831 19.2504C20.9315 19.6179 21.0707 19.7957 21.1707 19.88C21.2109 19.914 21.2621 19.9488 21.3448 19.9723C21.4311 19.3191 21.99 18.8149 22.6667 18.8149C23.4031 18.8149 24 19.4119 24 20.1483C24 20.6403 23.8809 21.2556 23.4747 21.7799C23.0283 22.3557 22.3535 22.6668 21.5835 22.6668C20.762 22.6668 20.0384 22.4133 19.4519 21.9188C19.0103 21.5465 18.6999 21.0829 18.4721 20.6143C17.4376 21.8056 16.0517 22.6668 14.2456 22.6668C10.6951 22.6668 8 19.5767 8 16.0001C8 12.4235 10.6951 9.33341 14.2456 9.33341C14.2865 9.33341 14.3275 9.33529 14.3681 9.33905C16.4055 9.52706 17.7605 10.51 18.6268 11.8654C18.6523 11.9051 18.6772 11.9451 18.7016 11.9853C18.716 11.5512 18.7059 11.1479 18.6725 10.7912C18.6037 10.058 19.1424 9.40796 19.8756 9.33922ZM17.5409 17.1283C17.4999 16.9033 17.4599 16.6843 17.4195 16.4751C17.1691 15.1783 16.8857 14.0929 16.3799 13.3014C15.9404 12.6139 15.3191 12.1207 14.1859 12.0007C12.3341 12.036 10.6667 13.7103 10.6667 16.0001C10.6667 18.3145 12.3701 20.0001 14.2456 20.0001C15.5436 20.0001 16.6832 19.0145 17.5409 17.1283Z" fill="#B0C9E2"/>
</svg>
