<svg width="32" height="32" viewBox="0 0 32 32" fill="none" xmlns="http://www.w3.org/2000/svg">
<path d="M16.0764 2.33325C18.9974 2.33324 21.2916 2.33323 23.0828 2.57404C24.9183 2.82083 26.3747 3.33687 27.519 4.48113C28.6632 5.6254 29.1792 7.08175 29.426 8.91728C29.6668 10.7085 29.6668 13.0027 29.6668 15.9237V16.0762C29.6668 18.9971 29.6668 21.2914 29.426 23.0826C29.1792 24.9181 28.6632 26.3745 27.519 27.5187C26.3747 28.663 24.9183 29.179 23.0828 29.4258C21.2916 29.6666 18.9974 29.6666 16.0764 29.6666H15.9239C13.003 29.6666 10.7087 29.6666 8.91752 29.4258C7.08199 29.179 5.62564 28.663 4.48138 27.5187C3.33711 26.3745 2.82107 24.9181 2.57428 23.0826C2.33347 21.2914 2.33348 18.9971 2.3335 16.0762V15.9237C2.33348 13.0027 2.33347 10.7085 2.57428 8.91728C2.82107 7.08175 3.33711 5.6254 4.48138 4.48113C5.62564 3.33687 7.08199 2.82083 8.91752 2.57404C10.7087 2.33323 13.003 2.33324 15.9239 2.33325H16.0764Z" fill="#004280"/>
<path fill-rule="evenodd" clip-rule="evenodd" d="M9.3335 16.3333C9.88578 16.3333 10.3335 16.781 10.3335 17.3333V22.6666C10.3335 23.2189 9.88578 23.6666 9.3335 23.6666C8.78122 23.6666 8.3335 23.2189 8.3335 22.6666V17.3333C8.3335 16.781 8.78122 16.3333 9.3335 16.3333Z" fill="#B0C9E2"/>
<path fill-rule="evenodd" clip-rule="evenodd" d="M16 8.33325C16.5523 8.33325 17 8.78097 17 9.33325V22.6666C17 23.2189 16.5523 23.6666 16 23.6666C15.4477 23.6666 15 23.2189 15 22.6666V9.33325C15 8.78097 15.4477 8.33325 16 8.33325Z" fill="#B0C9E2"/>
<path fill-rule="evenodd" clip-rule="evenodd" d="M22.6665 13.6667C23.2188 13.6667 23.6665 14.1145 23.6665 14.6667V22.6667C23.6665 23.219 23.2188 23.6667 22.6665 23.6667C22.1142 23.6667 21.6665 23.219 21.6665 22.6667V14.6667C21.6665 14.1145 22.1142 13.6667 22.6665 13.6667Z" fill="#B0C9E2"/>
</svg>
