<svg width="56" height="101" viewBox="0 0 56 101" fill="none" xmlns="http://www.w3.org/2000/svg">
  <g opacity="0.4">
    <path
      d="M7.29289 100.707C7.68341 101.098 8.31658 101.098 8.7071 100.707L15.0711 94.3431C15.4616 93.9526 15.4616 93.3195 15.0711 92.9289C14.6805 92.5384 14.0474 92.5384 13.6569 92.9289L8 98.5858L2.34314 92.9289C1.95262 92.5384 1.31945 92.5384 0.928928 92.9289C0.538404 93.3195 0.538404 93.9526 0.928928 94.3431L7.29289 100.707ZM8 0L7 -4.37114e-08L7 100L8 100L9 100L9 4.37114e-08L8 0Z"
      fill="white" />
    <path
      d="M27.2929 100.707C27.6834 101.098 28.3166 101.098 28.7071 100.707L35.0711 94.3431C35.4616 93.9526 35.4616 93.3195 35.0711 92.9289C34.6805 92.5384 34.0474 92.5384 33.6569 92.9289L28 98.5858L22.3431 92.9289C21.9526 92.5384 21.3195 92.5384 20.9289 92.9289C20.5384 93.3195 20.5384 93.9526 20.9289 94.3431L27.2929 100.707ZM28 0L27 -4.37114e-08L27 100L28 100L29 100L29 4.37114e-08L28 0Z"
      fill="white" />
    <path
      d="M47.2929 100.707C47.6834 101.098 48.3166 101.098 48.7071 100.707L55.0711 94.3431C55.4616 93.9526 55.4616 93.3195 55.0711 92.9289C54.6805 92.5384 54.0474 92.5384 53.6569 92.9289L48 98.5858L42.3431 92.9289C41.9526 92.5384 41.3195 92.5384 40.9289 92.9289C40.5384 93.3195 40.5384 93.9526 40.9289 94.3431L47.2929 100.707ZM48 0L47 -4.37114e-08L47 100L48 100L49 100L49 4.37114e-08L48 0Z"
      fill="white" />
  </g>
</svg>