<svg width="48" height="48" viewBox="0 0 48 48" fill="none" xmlns="http://www.w3.org/2000/svg">
<path d="M38 16.0004C39.1046 16.0004 40 16.8958 40 18.0004C40 19.105 39.1046 20.0004 38 20.0004L13.479 20C12.536 20.0002 11.6085 20.0004 10.8914 19.8886C10.2084 19.782 8.79982 19.4435 8.21044 17.8732C7.63004 16.3269 8.39126 15.0256 8.7985 14.4281C9.23036 13.7945 9.88298 13.0747 10.5521 12.3366L11.8577 10.8957C12.5435 10.1386 13.2091 9.4038 13.795 8.91644C14.3366 8.46596 15.5609 7.58157 17.0303 8.22921C18.4998 8.87687 18.8019 10.434 18.8973 11.1652C19.0004 11.9563 19.0002 12.9843 19 14.0436L19 16.0004H38Z" fill="#B0C9E2"/>
<path d="M10 31.9995C8.89542 31.9995 8 31.1041 8 29.9995C8 28.8949 8.89542 27.9995 10 27.9995L34.521 27.9999C35.464 27.9997 36.3916 27.9995 37.1086 28.1113C37.7916 28.2179 39.2002 28.5565 39.7896 30.1267C40.37 31.6729 39.6088 32.9743 39.2016 33.5717C38.7696 34.2053 38.117 34.9253 37.448 35.6633L36.1422 37.1041C35.4564 37.8613 34.791 38.5961 34.205 39.0835C33.6634 39.5339 32.4392 40.4183 30.9696 39.7707C29.5002 39.1231 29.198 37.5659 29.1028 36.8347C28.9996 36.0437 28.9998 35.0157 29 33.9563V31.9995H10Z" fill="#004280"/>
</svg>
