<svg width="84" height="85" viewBox="0 0 84 85" fill="none" xmlns="http://www.w3.org/2000/svg">
  <path
    d="M39.6504 2.41479C41.1045 1.57529 42.8955 1.57529 44.3496 2.41479L75.123 20.1814C76.5772 21.021 77.4727 22.5726 77.4727 24.2517V59.7849C77.4727 61.464 76.5772 63.0156 75.123 63.8552L44.3496 81.6218C42.8955 82.4613 41.1045 82.4613 39.6504 81.6218L8.87695 63.8552C7.42282 63.0156 6.52734 61.464 6.52734 59.7849V24.2517C6.52734 22.5726 7.42282 21.021 8.87695 20.1814L39.6504 2.41479Z"
    fill="#B0C9E2" stroke="url(#paint0_linear_215_14350)" stroke-width="1.8" />
  <path
    d="M44.8895 22.7647C49.9985 21.958 55.0089 22.9658 58.4915 26.265C61.8311 29.4288 62.9781 33.9563 62.3235 38.6302C61.7105 43.0074 59.5199 47.5884 55.9719 51.5904L59.3417 58.3292C59.6187 58.8828 59.5269 59.5498 59.1107 60.0082C58.6947 60.4666 58.0397 60.6222 57.4617 60.4L49.3125 57.2666C41.2019 62.4076 31.304 63.2252 25.5088 57.735C22.0078 54.4184 20.919 49.6092 21.7828 44.699C22.6455 39.7952 25.4571 34.6831 29.9258 30.4496C34.3959 26.2148 39.7691 23.5732 44.8895 22.7647Z"
    fill="#004280" />
  <path fill-rule="evenodd" clip-rule="evenodd"
    d="M41.9999 31.0007C43.1045 31.0007 43.9999 31.8962 43.9999 33.0007V38.5366L48.7941 35.7687C49.7507 35.2164 50.9739 35.5441 51.5261 36.5007C52.0785 37.4573 51.7507 38.6804 50.7941 39.2328L45.9997 42.0008L50.7939 44.7686C51.7505 45.321 52.0781 46.5442 51.5259 47.5008C50.9737 48.4574 49.7505 48.785 48.7939 48.2328L43.9999 45.465V51.0008C43.9999 52.1054 43.1045 53.0008 41.9999 53.0008C40.8953 53.0008 39.9999 52.1054 39.9999 51.0008V45.4648L35.2057 48.2328C34.2491 48.785 33.0259 48.4574 32.4736 47.5008C31.9214 46.5442 32.2491 45.321 33.2057 44.7686L37.9998 42.0008L33.2054 39.2328C32.2488 38.6804 31.9211 37.4573 32.4734 36.5007C33.0256 35.5441 34.2488 35.2164 35.2054 35.7687L39.9999 38.5368V33.0007C39.9999 31.8962 40.8953 31.0007 41.9999 31.0007Z"
    fill="#B0C9E2" />
  <defs>
    <linearGradient id="paint0_linear_215_14350" x1="42" y1="0.0183105" x2="42" y2="84.0183" gradientUnits="userSpaceOnUse">
      <stop stop-color="white" stop-opacity="0.1" />
      <stop offset="1" stop-color="#011427" />
    </linearGradient>
  </defs>
</svg>