<svg width="20" height="20" viewBox="0 0 20 20" fill="none" xmlns="http://www.w3.org/2000/svg">
<path d="M16 10C15.9999 8.66266 15.5529 7.3637 14.7302 6.30939C13.9074 5.25508 12.7561 4.50586 11.4588 4.1807C10.1616 3.85554 8.79298 3.97308 7.57021 4.51465C6.34744 5.05623 5.34065 5.99079 4.70971 7.16994C4.07878 8.34909 3.85987 9.70523 4.08774 11.023C4.31562 12.3408 4.97722 13.5447 5.96748 14.4435C6.95774 15.3423 8.2199 15.8845 9.55353 15.984C10.8872 16.0835 12.2158 15.7346 13.3285 14.9928L14.161 16.2407C12.9297 17.064 11.4812 17.5024 10 17.5C5.85775 17.5 2.5 14.1423 2.5 10C2.5 5.85775 5.85775 2.5 10 2.5C14.1423 2.5 17.5 5.85775 17.5 10V11.125C17.5001 11.6866 17.3201 12.2334 16.9864 12.685C16.6528 13.1367 16.183 13.4695 15.6463 13.6345C15.1095 13.7995 14.5339 13.788 14.0042 13.6017C13.4744 13.4154 13.0184 13.0642 12.703 12.5995C12.2024 13.12 11.5622 13.4849 10.8593 13.6503C10.1564 13.8158 9.4206 13.7748 8.74042 13.5322C8.06024 13.2896 7.46457 12.8558 7.02498 12.2829C6.58538 11.7099 6.32056 11.0223 6.26233 10.3025C6.2041 9.58269 6.35494 8.86139 6.69672 8.22525C7.0385 7.58911 7.55669 7.06519 8.18903 6.71643C8.82136 6.36766 9.54096 6.20889 10.2613 6.2592C10.9817 6.3095 11.6723 6.56674 12.25 7H13.75V11.125C13.75 11.4234 13.8685 11.7095 14.0795 11.9205C14.2905 12.1315 14.5766 12.25 14.875 12.25C15.1734 12.25 15.4595 12.1315 15.6705 11.9205C15.8815 11.7095 16 11.4234 16 11.125V10ZM10 7.75C9.40326 7.75 8.83097 7.98705 8.40901 8.40901C7.98705 8.83097 7.75 9.40326 7.75 10C7.75 10.5967 7.98705 11.169 8.40901 11.591C8.83097 12.0129 9.40326 12.25 10 12.25C10.5967 12.25 11.169 12.0129 11.591 11.591C12.0129 11.169 12.25 10.5967 12.25 10C12.25 9.40326 12.0129 8.83097 11.591 8.40901C11.169 7.98705 10.5967 7.75 10 7.75Z" fill="#7B7B7B"/>
</svg>
