<svg width="32" height="32" viewBox="0 0 32 32" fill="none" xmlns="http://www.w3.org/2000/svg">
<path fill-rule="evenodd" clip-rule="evenodd" d="M24.6984 24.5693C24.7677 23.7581 24.9405 23.1173 25.1223 22.5274C25.1532 22.4273 25.1857 22.3249 25.2192 22.2202C25.4285 21.5634 25.6667 20.8161 25.6667 19.9999C25.6667 17.9749 24.0251 16.3333 22 16.3333C19.9749 16.3333 18.3333 17.9749 18.3333 19.9999C18.3333 20.8161 18.5715 21.5634 18.7808 22.2202C18.8141 22.3249 18.8468 22.4274 18.8777 22.5274C19.0595 23.1173 19.2323 23.7581 19.3016 24.5693L16.5677 25.4371C15.5831 25.7498 15 26.701 15 27.6723V29.3333C15 29.8855 15.4477 30.3333 16 30.3333H28C28.5523 30.3333 29 29.8855 29 29.3333V27.6723C29 26.701 28.4169 25.7498 27.4323 25.4371L24.6984 24.5693ZM20.3333 19.9999C20.3333 19.0794 21.0795 18.3333 22 18.3333C22.9205 18.3333 23.6667 19.0794 23.6667 19.9999C23.6667 20.4833 23.5344 20.9049 23.3229 21.5794C23.2877 21.6915 23.2504 21.8107 23.2111 21.9383C23.0104 22.5895 22.8011 23.3578 22.7116 24.3333H21.2884C21.1989 23.3578 20.9896 22.5895 20.7889 21.9383C20.7497 21.8109 20.7124 21.6918 20.6772 21.5797C20.4656 20.9051 20.3333 20.4833 20.3333 19.9999Z" fill="#B0C9E2"/>
<path d="M20.652 1.87094C19.1331 1.66671 17.1923 1.66672 14.7419 1.66675C12.2916 1.66672 10.2003 1.66671 8.68131 1.87094C7.11808 2.0811 5.85281 2.52392 4.85499 3.52174C3.85717 4.51956 3.41435 5.78483 3.20419 7.34806C2.99996 8.867 2.99997 10.8078 3 13.2582V18.7419C2.99997 21.1923 2.99996 23.1331 3.20419 24.6521C3.41435 26.2153 3.85717 27.4806 4.85499 28.4785C5.85281 29.4762 7.11808 29.919 8.68131 30.1293C9.86407 30.2882 11.3938 30.3234 13.1699 30.3311C13.0599 30.019 13 29.6833 13 29.3334V27.6725C13 25.9583 14.0309 24.1443 15.9625 23.531L16.9873 23.2058C16.6667 22.6667 16.3333 21.1314 16.3333 20.0001C16.3333 16.8705 18.8704 14.3334 22 14.3334C23.7384 14.3334 25.2939 15.1162 26.3333 16.3483V13.2582C26.3333 10.8079 26.3333 8.86699 26.1292 7.34806C25.9189 5.78483 25.4761 4.51956 24.4784 3.52174C23.4805 2.52392 22.2152 2.0811 20.652 1.87094Z" fill="#004280"/>
<path fill-rule="evenodd" clip-rule="evenodd" d="M8.3335 9.33325C8.3335 8.78097 8.78122 8.33325 9.3335 8.33325H20.0002C20.5524 8.33325 21.0002 8.78097 21.0002 9.33325C21.0002 9.88553 20.5524 10.3333 20.0002 10.3333H9.3335C8.78122 10.3333 8.3335 9.88553 8.3335 9.33325ZM8.3335 14.6666C8.3335 14.1143 8.78122 13.6666 9.3335 13.6666H14.6668C15.2191 13.6666 15.6668 14.1143 15.6668 14.6666C15.6668 15.2189 15.2191 15.6666 14.6668 15.6666H9.3335C8.78122 15.6666 8.3335 15.2189 8.3335 14.6666Z" fill="#B0C9E2"/>
</svg>
