<svg width="48" height="48" viewBox="0 0 48 48" fill="none" xmlns="http://www.w3.org/2000/svg">
<path fill-rule="evenodd" clip-rule="evenodd" d="M24.0004 2C22.5424 2 21.2022 2.37646 19.7195 3.02414C18.2815 3.65224 16.6139 4.58028 14.5165 5.74754L6.23216 10.3579C5.07934 10.9994 4.11452 11.8052 3.45174 12.8917C2.78562 13.9836 2.50032 15.2346 2.50032 16.6381L2.50016 16.7703C2.49924 17.2812 2.4983 17.7994 2.62144 18.263C2.93136 19.4296 3.6699 20.1816 4.5744 20.5844C5.3892 20.9476 6.2744 21 6.93888 21H41.0618C41.7262 21 42.6114 20.9476 43.4262 20.5844C44.3308 20.1816 45.0692 19.4296 45.3792 18.263C45.5024 17.7994 45.5014 17.2812 45.5004 16.7703V16.6381C45.5004 15.2346 45.215 13.9836 44.549 12.8917C43.8862 11.8052 42.9214 10.9994 41.7684 10.3579L33.4842 5.74758C31.3868 4.58028 29.7192 3.65224 28.2812 3.02412C26.7984 2.37646 25.4584 2 24.0004 2ZM23.9922 11.5C22.8876 11.5 21.9922 12.3954 21.9922 13.5C21.9922 14.6046 22.8876 15.5 23.9922 15.5H24.0102C25.1148 15.5 26.0102 14.6046 26.0102 13.5C26.0102 12.3954 25.1148 11.5 24.0102 11.5H23.9922Z" fill="#004280"/>
<path d="M2.5 43C2.5 39.6862 5.85786 37 10 37H38C42.1422 37 45.5 39.6862 45.5 43C45.5 44.1046 44.3808 45 43 45H5C3.61928 45 2.5 44.1046 2.5 43Z" fill="#004280"/>
<path d="M9.99968 34.5H16.7C17.0771 34.5 17.2657 34.5 17.3828 34.3828C17.5 34.2656 17.5 34.0772 17.5 33.7V24.3C17.5 23.9228 17.5 23.7344 17.3828 23.6172C17.2657 23.5 17.0771 23.5 16.7 23.5H6.9389C6.90656 23.5 6.8904 23.5 6.88082 23.5004C6.67014 23.5106 6.51058 23.6702 6.50046 23.8808C6.5 23.8904 6.5 23.9042 6.5 23.932V33.9766C6.5 34.4888 6.5 34.7448 6.65328 34.865C6.80654 34.9852 7.07136 34.92 7.60098 34.7896C8.36944 34.6004 9.17284 34.5 9.99968 34.5Z" fill="#B0C9E2"/>
<path d="M37.9998 34.5C38.8268 34.5 39.6304 34.6004 40.399 34.7896C40.9286 34.9202 41.1934 34.9854 41.3468 34.8652C41.5 34.7452 41.5 34.489 41.5 33.9768V23.9314C41.5 23.9042 41.5 23.8906 41.4996 23.8812C41.4898 23.6702 41.3298 23.5104 41.1188 23.5004C41.1094 23.5 41.0936 23.5 41.0618 23.5H31.3C30.923 23.5 30.7344 23.5 30.6172 23.6172C30.5 23.7344 30.5 23.9228 30.5 24.3V33.7C30.5 34.0772 30.5 34.2656 30.6172 34.3828C30.7344 34.5 30.923 34.5 31.3 34.5H37.9998Z" fill="#B0C9E2"/>
</svg>
