<svg width="32" height="32" viewBox="0 0 32 32" fill="none" xmlns="http://www.w3.org/2000/svg">
<path d="M2.6665 11.4253C2.6665 9.83036 3.30968 8.85293 4.64068 8.11221L10.1197 5.06309C12.9906 3.46537 14.4261 2.6665 15.9998 2.6665C17.5736 2.6665 19.009 3.46537 21.88 5.06309L27.359 8.11221C28.69 8.85293 29.3332 9.83037 29.3332 11.4253C29.3332 11.8577 29.3332 12.074 29.286 12.2518C29.0378 13.1858 28.1914 13.3332 27.3741 13.3332H4.62554C3.8082 13.3332 2.96186 13.1858 2.71373 12.2518C2.6665 12.074 2.6665 11.8577 2.6665 11.4253Z" stroke="#B0C9E2" stroke-width="2"/>
<path d="M15.9946 9.3335H16.0066" stroke="#B0C9E2" stroke-width="2.66667" stroke-linecap="round" stroke-linejoin="round"/>
<path d="M5.3335 13.3335V24.6668M10.6668 13.3335V24.6668" stroke="#B0C9E2" stroke-width="2"/>
<path d="M21.3335 13.3335V24.6668M26.6668 13.3335V24.6668" stroke="#B0C9E2" stroke-width="2"/>
<path d="M25.3332 24.6665H6.6665C4.45737 24.6665 2.6665 26.4573 2.6665 28.6665C2.6665 29.0346 2.96498 29.3332 3.33317 29.3332H28.6665C29.0346 29.3332 29.3332 29.0346 29.3332 28.6665C29.3332 26.4573 27.5424 24.6665 25.3332 24.6665Z" stroke="#B0C9E2" stroke-width="2"/>
</svg>
