<svg width="20" height="20" viewBox="0 0 20 20" fill="none" xmlns="http://www.w3.org/2000/svg">
  <path
    d="M9.13424 13.6223C8.92337 14.1051 8.25509 14.1051 8.04424 13.6223L7.49571 12.3659C7.00756 11.2479 6.12893 10.3579 5.03293 9.87138L3.52311 9.20119C3.04308 8.98813 3.04308 8.2898 3.52311 8.07673L4.98578 7.42746C6.10995 6.92845 7.00435 6.00551 7.48416 4.84933L8.03981 3.51046C8.24599 3.0136 8.93249 3.0136 9.13868 3.51046L9.69431 4.84934C10.1741 6.00551 11.0685 6.92845 12.1927 7.42746L13.6554 8.07673C14.1354 8.2898 14.1354 8.98813 13.6554 9.20119L12.1456 9.87138C11.0496 10.3579 10.1709 11.2479 9.68274 12.3659L9.13424 13.6223ZM5.33747 8.63896C6.76612 9.27313 7.92776 10.3155 8.58923 11.7498C9.25074 10.3155 10.4124 9.27313 11.841 8.63896C10.3953 7.99723 9.22999 6.90404 8.58924 5.4443C7.94849 6.90405 6.78316 7.99723 5.33747 8.63896ZM14.6261 16.6812L14.7804 16.3276C15.0554 15.6973 15.5507 15.1953 16.1687 14.9208L16.6439 14.7096C16.901 14.5954 16.901 14.2218 16.6439 14.1076L16.1953 13.9083C15.5614 13.6266 15.0572 13.1061 14.7869 12.4543L14.6285 12.0723C14.5181 11.806 14.1499 11.806 14.0395 12.0723L13.8811 12.4543C13.6109 13.1061 13.1067 13.6266 12.4727 13.9083L12.0241 14.1076C11.7671 14.2218 11.7671 14.5954 12.0241 14.7096L12.4993 14.9208C13.1174 15.1953 13.6126 15.6973 13.8876 16.3276L14.0419 16.6812C14.1548 16.94 14.5132 16.94 14.6261 16.6812ZM13.9843 14.4043L14.3359 14.0552L14.6801 14.4043L14.3359 14.7436L13.9843 14.4043Z"
    fill="currentColor" />
</svg>