<svg width="20" height="21" viewBox="0 0 20 21" fill="none" xmlns="http://www.w3.org/2000/svg">
  <path
    d="M14.1667 19.3079C16.4679 19.3079 18.3333 17.4425 18.3333 15.1413C18.3333 12.8401 16.4679 10.9746 14.1667 10.9746C11.8655 10.9746 10 12.8401 10 15.1413C10 17.4425 11.8655 19.3079 14.1667 19.3079Z"
    stroke="currentColor" stroke-width="1.25" />
  <path
    d="M6.24984 11.8083H5.33317C3.60469 11.8083 2.74045 11.8083 2.20348 11.2713C1.6665 10.7344 1.6665 9.8701 1.6665 8.1416V6.30827C1.6665 4.57979 1.6665 3.71554 2.20348 3.17858C2.74045 2.6416 3.60469 2.6416 5.33317 2.6416H7.1665C8.895 2.6416 9.75925 2.6416 10.2962 3.17858C10.8332 3.71554 10.8332 4.57979 10.8332 6.30827V7.22494"
    stroke="currentColor" stroke-width="1.25" />
  <path d="M10.0292 16.8076C7.64795 16.4081 5.8335 14.3372 5.8335 11.8425C5.8335 9.06177 8.08765 6.80762 10.8683 6.80762C13.3631 6.80762 15.434 8.62207 15.8335 11.0033" stroke="currentColor"
    stroke-width="1.25" />
</svg>