<svg width="32" height="32" viewBox="0 0 32 32" fill="none" xmlns="http://www.w3.org/2000/svg">
<path d="M15 22.6667C15 18.4325 18.4325 15 22.6667 15C26.9008 15 30.3333 18.4325 30.3333 22.6667C30.3333 26.9008 26.9008 30.3333 22.6667 30.3333C18.4325 30.3333 15 26.9008 15 22.6667Z" fill="#004280"/>
<path d="M11.5369 1.66663C12.8597 1.66659 13.9528 1.66656 14.8184 1.78295C15.7281 1.90524 16.5348 2.17233 17.1812 2.81868C17.8274 3.46503 18.0945 4.27171 18.2169 5.18139C18.3333 6.04699 18.3332 7.14007 18.3332 8.46292V9.33348C18.3332 9.88312 17.8896 10.3297 17.34 10.3335C13.4821 10.3596 10.3595 13.4822 10.3333 17.3401C10.3296 17.8897 9.883 18.3333 9.33336 18.3333H8.46284C7.13999 18.3333 6.04687 18.3334 5.18127 18.217C4.27159 18.0946 3.46491 17.8276 2.81856 17.1813C2.17221 16.5349 1.90512 15.7282 1.78283 14.8185C1.66644 13.9529 1.66647 12.8599 1.66651 11.537V8.46295C1.66647 7.14008 1.66644 6.04699 1.78283 5.18139C1.90512 4.27171 2.17221 3.46503 2.81856 2.81868C3.46491 2.17233 4.27159 1.90524 5.18127 1.78295C6.04687 1.66656 7.13993 1.66659 8.4628 1.66663H11.5369Z" fill="#004280"/>
<path d="M10.9049 17.387C10.9049 13.807 13.8071 10.9048 17.3871 10.9048C20.1379 10.9048 22.49 12.6191 23.4308 15.0376C24.4696 15.1404 25.4475 15.4506 26.3226 15.926C26.3204 15.9106 26.3182 15.8951 26.3156 15.8796C25.5971 11.5967 21.8744 8.33337 17.3871 8.33337C12.3869 8.33337 8.3335 12.3868 8.3335 17.387C8.3335 21.8743 11.5968 25.597 15.8798 26.3155C15.8952 26.318 15.9107 26.3203 15.9262 26.3224C15.4507 25.4474 15.1406 24.4695 15.0378 23.4307C12.6192 22.4899 10.9049 20.1378 10.9049 17.387Z" fill="#B0C9E2"/>
</svg>
