<svg width="48" height="48" viewBox="0 0 48 48" fill="none" xmlns="http://www.w3.org/2000/svg">
<path fill-rule="evenodd" clip-rule="evenodd" d="M45.5 17V9C45.5 7.9116 44.7556 7.2606 44.2502 6.9094C43.7548 6.56518 43.0648 6.22184 42.336 5.85916L38.4998 3.94868C38.1648 3.77826 37.6178 3.5 37 3.5C36.3822 3.5 35.8354 3.77826 35.5004 3.94868L31.6642 5.85916C30.9354 6.22184 30.2452 6.56518 29.75 6.9094C29.2446 7.2606 28.5 7.9116 28.5 9V17C28.5 18.0884 29.2446 18.7394 29.75 19.0906C30.2452 19.4348 30.9352 19.7782 31.664 20.1408L35.5004 22.0514C35.8354 22.2218 36.3822 22.5 37 22.5C37.6178 22.5 38.1648 22.2218 38.4998 22.0514L42.336 20.1408C43.0648 19.7782 43.7548 19.4348 44.2502 19.0906C44.7556 18.7394 45.5 18.0884 45.5 17ZM35.5 18.6987L31.5 16.6525V12.0586L35.5 14.0506V18.6987ZM38.5 14.0506L42.5 12.0586V16.6525L38.5 18.6987V14.0506Z" fill="#004280"/>
<path fill-rule="evenodd" clip-rule="evenodd" d="M19.5 17V9C19.5 7.9116 18.7555 7.2606 18.2502 6.9094C17.7548 6.56518 17.0648 6.22184 16.336 5.85916L12.4997 3.94868C12.1647 3.77826 11.6178 3.5 11 3.5C10.3822 3.5 9.83526 3.77826 9.50028 3.94868L5.66406 5.85916C4.93518 6.22184 4.24518 6.56518 3.74986 6.9094C3.24448 7.2606 2.5 7.9116 2.5 9V17C2.5 18.0884 3.24448 18.7394 3.74986 19.0906C4.24518 19.4348 4.93518 19.7782 5.66404 20.1408L9.50028 22.0514C9.83528 22.2218 10.3822 22.5 11 22.5C11.6178 22.5 12.1647 22.2218 12.4997 22.0514L16.3359 20.1408C17.0648 19.7782 17.7548 19.4348 18.2502 19.0906C18.7555 18.7394 19.5 18.0884 19.5 17ZM9.5 18.6987L5.5 16.6525V12.0586L9.5 14.0506V18.6987ZM12.5 14.0506L16.5 12.0586V16.6525L12.5 18.6987V14.0506Z" fill="#004280"/>
<path d="M21.5 13C21.5 12.1716 22.1716 11.5 23 11.5H25C25.8284 11.5 26.5 12.1716 26.5 13C26.5 13.8284 25.8284 14.5 25 14.5H23C22.1716 14.5 21.5 13.8284 21.5 13Z" fill="#B0C9E2"/>
<path d="M4.00002 23.5C4.82844 23.5 5.50002 24.1716 5.50002 25V32C5.50002 33.4356 5.50182 34.3996 5.57658 35.1344C5.64878 35.844 5.7764 36.172 5.92134 36.389C6.10374 36.6618 6.3381 36.8962 6.61108 37.0786C6.82798 37.2236 7.15592 37.3512 7.86566 37.4234C8.60048 37.4982 9.56432 37.5 11 37.5C11.8284 37.5 12.5 38.1716 12.5 39C12.5 39.8284 11.8284 40.5 11 40.5H10.9233C9.58416 40.5 8.46672 40.5 7.56206 40.408C6.6151 40.3118 5.73636 40.1022 4.94438 39.573C4.34382 39.1718 3.8282 38.6562 3.42692 38.0556C2.89774 37.2636 2.6883 36.385 2.59198 35.438C2.49994 34.5334 2.49998 33.4158 2.5 32.0768V25C2.5 24.1716 3.17158 23.5 4.00002 23.5Z" fill="#B0C9E2"/>
<path d="M44 23.5C44.8284 23.5 45.5 24.1716 45.5 25V32.0766C45.5 33.4156 45.5002 34.5334 45.408 35.438C45.3118 36.385 45.1024 37.2636 44.5732 38.0556C44.1718 38.6562 43.6562 39.1718 43.0556 39.573C42.2636 40.1022 41.385 40.3118 40.438 40.408C39.5334 40.5 38.4158 40.5 37.0768 40.5H37C36.1716 40.5 35.5 39.8284 35.5 39C35.5 38.1716 36.1716 37.5 37 37.5C38.4358 37.5 39.3996 37.4982 40.1344 37.4234C40.8442 37.3512 41.172 37.2236 41.389 37.0786C41.662 36.8962 41.8964 36.6618 42.0788 36.389C42.2236 36.172 42.3512 35.844 42.4234 35.1344C42.4982 34.3996 42.5 33.4356 42.5 32V25C42.5 24.1716 43.1716 23.5 44 23.5Z" fill="#B0C9E2"/>
<path fill-rule="evenodd" clip-rule="evenodd" d="M29.0001 32.4404V30.4286C29.0001 27.6776 26.7321 25.5 24.0001 25.5C21.2679 25.5 19 27.6776 19 30.4286V32.4404C18.1345 32.546 17.2992 32.8032 16.6338 33.455C15.9615 34.1136 15.7084 34.922 15.5994 35.7166C15.4998 36.4418 15.4999 37.5262 15.5 38.5228C15.4999 39.5192 15.4998 40.4152 15.5994 41.1406C15.7084 41.935 15.9615 42.7436 16.6338 43.402C17.3017 44.0564 18.1143 44.2986 18.9105 44.4034C19.6447 44.5002 20.5537 44.5 21.5747 44.5H26.4253C27.4463 44.5 28.3553 44.5002 29.0895 44.4034C29.8857 44.2986 30.6983 44.0564 31.3663 43.402C32.0385 42.7436 32.2917 41.935 32.4007 41.1406C32.5001 40.4152 32.5001 39.5192 32.5001 38.5228C32.5001 37.5262 32.5001 36.4418 32.4007 35.7166C32.2917 34.922 32.0385 34.1136 31.3663 33.455C30.7009 32.8032 29.8655 32.546 29.0001 32.4404ZM21.9999 30.4286C21.9999 29.3924 22.8661 28.5 23.9999 28.5C25.1339 28.5 25.9999 29.3924 25.9999 30.4286V32.3572H21.9999V30.4286Z" fill="#B0C9E2"/>
</svg>
