<svg width="48" height="48" viewBox="0 0 48 48" fill="none" xmlns="http://www.w3.org/2000/svg">
<path fill-rule="evenodd" clip-rule="evenodd" d="M31.913 2.50001C33.6342 2.49991 35.1178 2.49963 36.3056 2.66017C37.58 2.83247 38.8012 3.22277 39.792 4.21877C40.7826 5.21469 41.1694 6.44185 41.3408 7.72267C41.5004 8.91645 41.501 10.4073 41.501 12.1367V35.7266C41.501 36.806 40.6296 37.6816 39.5556 37.6816H39.376C39.3152 37.7536 39.2498 37.8322 39.1866 37.92C38.8518 38.3848 38.585 38.9692 38.585 39.6368C38.585 40.304 38.8518 40.8868 39.1866 41.3516C39.2498 41.4396 39.3152 41.5196 39.376 41.5918H39.5556C40.6294 41.5918 41.5006 42.4658 41.501 43.545C41.501 44.6244 40.6296 45.5 39.5556 45.5H12.335C9.11342 45.5 6.50116 42.875 6.50098 39.6368V16.0703C6.50094 13.4121 6.50168 11.2213 6.7334 9.48829C6.97596 7.67481 7.5045 6.07343 8.78028 4.79103C10.0559 3.50881 11.6483 2.97629 13.4521 2.73243C15.1762 2.49949 17.3564 2.49997 20.001 2.50001H31.913ZM12.335 37.6796C11.2611 37.6796 10.3896 38.5554 10.3896 39.6348C10.3899 40.714 11.2613 41.5878 12.335 41.5878H35.001C34.8174 41.005 34.6964 40.3522 34.6962 39.6348C34.6962 38.9168 34.8172 38.2628 35.001 37.6796H12.335Z" fill="#004280"/>
<path d="M24.998 20C26.1026 20 26.998 20.8954 26.998 22C26.998 23.1046 26.1026 24 24.998 24H16.998C15.8935 24 14.998 23.1046 14.998 22C14.998 20.8954 15.8935 20 16.998 20H24.998ZM31 12C32.1046 12 33 12.8954 33 14C33 15.1046 32.1046 16 31 16H17C15.8954 16 15 15.1046 15 14C15 12.8954 15.8954 12 17 12H31Z" fill="#B0C9E2"/>
</svg>
