<svg width="24" height="24" viewBox="0 0 24 24" fill="none" xmlns="http://www.w3.org/2000/svg">
<path d="M14.749 6.50035C14.749 5.78251 14.7483 5.30037 14.7109 4.93297C14.6748 4.57823 14.6105 4.41445 14.5381 4.30602C14.4469 4.16956 14.3298 4.05247 14.1933 3.96129C14.0849 3.88884 13.9211 3.82454 13.5664 3.78844C13.199 3.75106 12.7169 3.75035 11.999 3.75035C11.2812 3.75035 10.799 3.75106 10.4316 3.78844C10.0769 3.82454 9.91312 3.88884 9.80469 3.96129C9.66823 4.05247 9.55116 4.16956 9.45997 4.30602C9.38752 4.41445 9.32321 4.57823 9.28711 4.93297C9.24973 5.30037 9.24902 5.78251 9.24902 6.50035C9.24902 6.91457 8.91324 7.25035 8.49902 7.25035C8.08481 7.25035 7.74902 6.91457 7.74902 6.50035C7.74902 5.81385 7.74807 5.2425 7.79493 4.7816C7.84309 4.30818 7.94836 3.86897 8.21289 3.47301C8.41353 3.17273 8.67141 2.91485 8.97168 2.71422C9.36764 2.44969 9.80686 2.34441 10.2803 2.29625C10.7412 2.24938 11.3125 2.25035 11.999 2.25035C12.6855 2.25035 13.2569 2.24938 13.7178 2.29625C14.1912 2.34441 14.6304 2.44969 15.0264 2.71422C15.3266 2.91485 15.5845 3.17273 15.7851 3.47301C16.0497 3.86897 16.155 4.30818 16.2031 4.7816C16.25 5.2425 16.249 5.81385 16.249 6.50035C16.249 6.91457 15.9132 7.25035 15.499 7.25035C15.0848 7.25035 14.749 6.91457 14.749 6.50035Z" fill="#004280"/>
<path d="M15.0576 5.75035C16.6594 5.75033 17.9387 5.75032 18.9414 5.88512C19.9773 6.02443 20.8309 6.31961 21.5059 6.99449C22.1809 7.66944 22.4767 8.52295 22.6162 9.55894C22.6998 10.1798 22.7292 10.9066 22.7412 11.7504H17.25V11.0004C17.25 10.5862 16.9142 10.2504 16.5 10.2504C16.0858 10.2504 15.75 10.5862 15.75 11.0004V11.7504H8.25V11.0004C8.25 10.5862 7.91421 10.2504 7.5 10.2504C7.08579 10.2504 6.75 10.5862 6.75 11.0004V11.7504H1.25977C1.27187 10.9071 1.30131 10.1807 1.38477 9.55992C1.52409 8.52367 1.81999 7.6706 2.49512 6.99547C3.17025 6.32034 4.02333 6.02444 5.05957 5.88512C6.06222 5.75031 7.34078 5.75033 8.94238 5.75035H15.0576Z" fill="#004280"/>
<path d="M6.74902 13.2504V14.0004C6.74902 14.4146 7.08481 14.7504 7.49902 14.7504C7.91324 14.7504 8.24902 14.4146 8.24902 14.0004V13.2504H15.749V14.0004C15.749 14.4146 16.0848 14.7504 16.499 14.7504C16.9132 14.7504 17.249 14.4146 17.249 14.0004V13.2504H22.75V14.0688C22.7503 15.6652 22.7505 16.9404 22.6162 17.9408C22.477 18.977 22.1809 19.8301 21.5058 20.5053C20.8307 21.1805 19.9777 21.4763 18.9414 21.6156C17.9382 21.7505 16.6584 21.7505 15.0557 21.7504H8.93848C7.33822 21.7504 6.06063 21.7504 5.05859 21.6156C4.02235 21.4763 3.16926 21.1804 2.49414 20.5053C1.81902 19.8301 1.5231 18.977 1.38379 17.9408C1.24899 16.9382 1.249 15.6597 1.24902 14.058V13.2504H6.74902Z" fill="#B0C9E2"/>
</svg>
