<svg width="24" height="24" viewBox="0 0 24 24" fill="none" xmlns="http://www.w3.org/2000/svg">
<rect width="24" height="24" rx="12" fill="url(#paint0_linear_537_1141)"/>
<path d="M14.6663 5.33334V8.00001M9.33301 5.33334V8.00001" stroke="white" stroke-linecap="round" stroke-linejoin="round"/>
<path d="M12.6667 6.66666H11.3333C8.81917 6.66666 7.5621 6.66666 6.78105 7.4477C6 8.22876 6 9.48583 6 12V13.3333C6 15.8475 6 17.1046 6.78105 17.8856C7.5621 18.6667 8.81917 18.6667 11.3333 18.6667H12.6667C15.1808 18.6667 16.4379 18.6667 17.2189 17.8856C18 17.1046 18 15.8475 18 13.3333V12C18 9.48583 18 8.22876 17.2189 7.4477C16.4379 6.66666 15.1808 6.66666 12.6667 6.66666Z" stroke="white" stroke-linecap="round" stroke-linejoin="round"/>
<path d="M6 10.6667H18" stroke="white" stroke-linecap="round" stroke-linejoin="round"/>
<defs>
<linearGradient id="paint0_linear_537_1141" x1="12" y1="0" x2="12" y2="24" gradientUnits="userSpaceOnUse">
<stop stop-color="#00274C"/>
<stop offset="1"/>
</linearGradient>
</defs>
</svg>
