<svg width="48" height="48" viewBox="0 0 48 48" fill="none" xmlns="http://www.w3.org/2000/svg">
<path d="M29 21C29 23.7614 26.7614 26 24 26C21.2386 26 19 23.7614 19 21C19 18.2386 21.2386 16 24 16C26.7614 16 29 18.2386 29 21Z" stroke="#B0C9E2" stroke-width="3" stroke-linecap="round" stroke-linejoin="round"/>
<path d="M32 7C36.9588 7 40.3806 7.76842 42.2658 8.35264C43.3512 8.68904 44 9.71778 44 10.8541V30.3646C44 32.5948 41.5438 34.2728 39.3524 33.859C37.4722 33.504 35.0214 33.2188 32 33.2188C22.4982 33.2188 20.2192 36.8302 6.2896 33.7584C4.9453 33.462 4 32.253 4 30.8764V10.8423C4 8.89062 5.84158 7.46732 7.75596 7.84722C20.3934 10.3549 22.8418 7 32 7Z" stroke="#B0C9E2" stroke-width="3" stroke-linecap="round" stroke-linejoin="round"/>
<path d="M4 15C7.90266 15 11.4097 11.8101 11.858 8.50834M37.001 8C37.001 12.0793 40.531 15.938 44 15.938M44 27C40.2018 27 36.5202 29.6204 36.204 33.1966M12.001 33.9922C12.001 29.574 8.41926 25.9922 4.00098 25.9922" stroke="#B0C9E2" stroke-width="3" stroke-linecap="round" stroke-linejoin="round"/>
<path d="M38 39.4658C36.3434 39.193 34.3436 39 32.001 39C23.4122 39 20.7248 42.3196 10 40.4054" stroke="#B0C9E2" stroke-width="3" stroke-linecap="round" stroke-linejoin="round"/>
</svg>
