<svg width="48" height="48" viewBox="0 0 48 48" fill="none" xmlns="http://www.w3.org/2000/svg">
<path d="M22.215 11.1525C22.7384 12.0541 23 12.505 23 13C23 13.495 22.7384 13.9459 22.215 14.8475L19.7161 19.1525C19.1927 20.0542 18.931 20.505 18.5 20.7524C18.069 21 17.5456 21 16.4989 21H11.5011C10.4544 21 9.93102 21 9.5 20.7524C9.06898 20.505 8.80728 20.0542 8.28392 19.1525L5.78506 14.8475C5.26168 13.9459 5 13.495 5 13C5 12.505 5.26168 12.0541 5.78506 11.1525L8.28392 6.84752C8.80728 5.94586 9.06898 5.49504 9.5 5.24752C9.93102 5 10.4544 5 11.5011 5H16.4989C17.5456 5 18.069 5 18.5 5.24752C18.931 5.49504 19.1927 5.94586 19.7161 6.84752L22.215 11.1525Z" stroke="#B0C9E2" stroke-width="3" stroke-linecap="round" stroke-linejoin="round"/>
<path d="M42.215 23.1524C42.7384 24.0542 43 24.505 43 25C43 25.495 42.7384 25.9458 42.215 26.8476L39.716 31.1524C39.1928 32.0542 38.931 32.505 38.5 32.7524C38.069 33 37.5456 33 36.4988 33H31.5012C30.4544 33 29.931 33 29.5 32.7524C29.069 32.505 28.8072 32.0542 28.284 31.1524L25.785 26.8476C25.2616 25.9458 25 25.495 25 25C25 24.505 25.2616 24.0542 25.785 23.1524L28.284 18.8475C28.8072 17.9459 29.069 17.495 29.5 17.2475C29.931 17 30.4544 17 31.5012 17H36.4988C37.5456 17 38.069 17 38.5 17.2475C38.931 17.495 39.1928 17.9459 39.716 18.8475L42.215 23.1524Z" stroke="#B0C9E2" stroke-width="3" stroke-linecap="round" stroke-linejoin="round"/>
<path d="M22.215 33.1524C22.7384 34.0542 23 34.505 23 35C23 35.495 22.7384 35.9458 22.215 36.8476L19.7161 41.1524C19.1927 42.0542 18.931 42.505 18.5 42.7524C18.069 43 17.5456 43 16.4989 43H11.5011C10.4544 43 9.93102 43 9.5 42.7524C9.06898 42.505 8.80728 42.0542 8.28392 41.1524L5.78506 36.8476C5.26168 35.9458 5 35.495 5 35C5 34.505 5.26168 34.0542 5.78506 33.1524L8.28392 28.8476C8.80728 27.9458 9.06898 27.495 9.5 27.2476C9.93102 27 10.4544 27 11.5011 27H16.4989C17.5456 27 18.069 27 18.5 27.2476C18.931 27.495 19.1927 27.9458 19.7161 28.8476L22.215 33.1524Z" stroke="#B0C9E2" stroke-width="3" stroke-linecap="round" stroke-linejoin="round"/>
</svg>
