<svg width="18" height="18" viewBox="0 0 18 18" fill="none" xmlns="http://www.w3.org/2000/svg">
  <path fill-rule="evenodd" clip-rule="evenodd"
    d="M9 0C11.3869 0 13.6761 0.948212 15.364 2.63604C17.0518 4.32387 18 6.61305 18 9C18 11.3869 17.0518 13.6761 15.364 15.364C13.6761 17.0518 11.3869 18 9 18C6.61305 18 4.32387 17.0518 2.63604 15.364C0.948212 13.6761 0 11.3869 0 9C0 6.61305 0.948212 4.32387 2.63604 2.63604C4.32387 0.948212 6.61305 0 9 0ZM12.8363 5.54625L7.47 10.7325L6.0525 9.2025C5.91843 9.08554 5.7487 9.01743 5.57098 9.00925C5.39325 9.00108 5.21799 9.05334 5.07375 9.1575C4.9342 9.25553 4.83615 9.40202 4.79872 9.5684C4.76128 9.73478 4.78714 9.90914 4.87125 10.0575L6.55875 12.8138C6.7275 13.0613 7.02 13.2188 7.335 13.2188C7.65 13.2188 7.93125 13.0613 8.1 12.8138C8.37 12.465 13.5225 6.31125 13.5225 6.31125C14.1975 5.63625 13.3763 5.0175 12.8475 5.54625H12.8363Z"
    fill="currentColor" />
</svg>