<svg width="48" height="48" viewBox="0 0 48 48" fill="none" xmlns="http://www.w3.org/2000/svg">
  <path
    d="M5.97078 20.41C6.50996 19.7516 6.77956 19.4224 7.04152 19.5162C7.30346 19.61 7.30268 20.0668 7.3011 20.9802C7.30108 20.9918 7.30108 21.0034 7.30108 21.015C7.30108 31.8864 16.1141 40.6994 26.9854 40.6994C26.997 40.6994 27.0086 40.6994 27.0202 40.6994C27.9336 40.6978 28.3904 40.697 28.4842 40.959C28.578 41.2208 28.2488 41.4904 27.5904 42.0296C24.9414 44.1988 21.5544 45.5004 17.8634 45.5004C9.37844 45.5004 2.5 38.622 2.5 30.137C2.5 26.446 3.80158 23.059 5.97078 20.41Z"
    fill="#004280" />
  <path d="M10.5 20.0004C10.5 10.3355 18.335 2.50049 28 2.50049C37.665 2.50049 45.5 10.3355 45.5 20.0004C45.5 29.6654 37.665 37.5004 28 37.5004C18.335 37.5004 10.5 29.6654 10.5 20.0004Z"
    fill="#B0C9E2" />
</svg>