<svg width="57" height="56" viewBox="0 0 57 56" fill="none" xmlns="http://www.w3.org/2000/svg">
<rect x="0.799805" width="56" height="56" rx="28" fill="#222A35"/>
<path d="M25.689 20.2638C26.4403 15.8249 30.3035 12.4443 34.9562 12.4443C40.1474 12.4443 44.3556 16.6526 44.3556 21.8438C44.3556 26.4964 40.9751 30.3597 36.5362 31.111" stroke="#B0C9E2" stroke-width="2.33333" stroke-linecap="round" stroke-linejoin="round"/>
<path d="M22.5775 43.5558C27.7321 43.5558 31.9108 39.3771 31.9108 34.2225C31.9108 29.0678 27.7321 24.8892 22.5775 24.8892C17.4228 24.8892 13.2441 29.0678 13.2441 34.2225C13.2441 39.3771 17.4228 43.5558 22.5775 43.5558Z" stroke="#B0C9E2" stroke-width="2.33333" stroke-linecap="round" stroke-linejoin="round"/>
<path d="M13.2441 23.3333C13.2441 18.1733 17.4175 14 22.5775 14L21.2441 16.6667" stroke="#B0C9E2" stroke-width="2.33333" stroke-linecap="round" stroke-linejoin="round"/>
<path d="M44.3558 32.6665C44.3558 37.8264 40.1824 41.9998 35.0225 41.9998L36.3557 39.3331" stroke="#B0C9E2" stroke-width="2.33333" stroke-linecap="round" stroke-linejoin="round"/>
</svg>
