<svg width="25" height="24" viewBox="0 0 25 24" fill="none" xmlns="http://www.w3.org/2000/svg">
  <path
    d="M18.0595 6.90145C21.9214 10.7634 23.3448 15.6017 21.2381 17.7084L18.6952 20.2513C16.5885 22.358 11.7502 20.9346 7.88825 17.0727C4.09499 13.2795 2.65449 8.54475 4.60038 6.38144L4.70972 6.26574L7.25254 3.72292C9.35927 1.6162 14.1976 3.03954 18.0595 6.90145ZM10.4311 14.5299C8.06624 12.1651 6.61493 9.43346 6.33077 7.18752L5.98113 7.53715C4.78473 8.73355 5.90675 12.5484 9.15966 15.8013C12.3445 18.9862 16.0685 20.1292 17.3456 19.0517L17.4238 18.9798L17.7741 18.6308C15.5288 18.346 12.7965 16.8954 10.4311 14.5299ZM16.7881 8.17286C13.5352 4.91995 9.72035 3.79794 8.52395 4.99433C7.32756 6.19073 8.44957 10.0056 11.7025 13.2585C14.9554 16.5114 18.7702 17.6334 19.9666 16.437C21.163 15.2406 20.041 11.4258 16.7881 8.17286Z"
    fill="currentColor" />
</svg>