<svg width="32" height="32" viewBox="0 0 32 32" fill="none" xmlns="http://www.w3.org/2000/svg">
<path d="M14.0002 23.6665V25.6665C14.0002 26.0346 13.7016 26.3332 13.3335 26.3332H10.6668C9.93046 26.3332 9.3335 26.9301 9.3335 27.6665C9.3335 28.4029 9.93046 28.9998 10.6668 28.9998H21.3335C22.0699 28.9998 22.6668 28.4029 22.6668 27.6665C22.6668 26.9301 22.0699 26.3332 21.3335 26.3332H18.6668C18.2987 26.3332 18.0002 26.0346 18.0002 25.6665V23.6665H14.0002Z" fill="#B0C9E2"/>
<path d="M21.4064 3C23.2298 2.99997 24.6996 2.99995 25.8556 3.15536C27.0557 3.31672 28.0661 3.66191 28.8688 4.46447C29.6713 5.26703 30.0165 6.27752 30.1778 7.47767C30.3332 8.63363 30.3332 10.1034 30.3332 11.9268V14.7399C30.3332 16.5633 30.3332 18.0331 30.1778 19.1891C30.0165 20.3892 29.6713 21.3996 28.8688 22.2023C28.0661 23.0048 27.0557 23.35 25.8556 23.5113C24.6996 23.6667 23.2298 23.6667 21.4064 23.6667H10.5933C8.7699 23.6667 7.30013 23.6667 6.14417 23.5113C4.94402 23.35 3.93353 23.0048 3.13097 22.2023C2.32841 21.3996 1.98322 20.3892 1.82186 19.1891C1.66645 18.0331 1.66648 16.5633 1.6665 14.7399V11.9268C1.66648 10.1034 1.66645 8.63361 1.82186 7.47767C1.98322 6.27752 2.32841 5.26703 3.13097 4.46447C3.93353 3.66191 4.94402 3.31672 6.14417 3.15536C7.30012 2.99995 8.76988 2.99997 10.5933 3H21.4064Z" fill="#004280"/>
</svg>
