<svg width="20" height="20" viewBox="0 0 20 20" fill="none" xmlns="http://www.w3.org/2000/svg">
<path d="M17.5 13.7515C17.4997 14.7772 17.1491 15.772 16.5063 16.5712C15.8635 17.3705 14.967 17.9262 13.9653 18.1465L13.4867 16.711C13.9249 16.6388 14.3416 16.4704 14.7068 16.2177C15.0721 15.9651 15.3767 15.6346 15.5988 15.25H13.75C13.3522 15.25 12.9706 15.092 12.6893 14.8107C12.408 14.5294 12.25 14.1478 12.25 13.75V10.75C12.25 10.3522 12.408 9.97064 12.6893 9.68934C12.9706 9.40804 13.3522 9.25 13.75 9.25H15.9535C15.7705 7.80017 15.0647 6.46695 13.9686 5.50051C12.8724 4.53406 11.4613 4.00081 10 4.00081C8.53866 4.00081 7.12755 4.53406 6.03143 5.50051C4.93531 6.46695 4.22952 7.80017 4.0465 9.25H6.25C6.64782 9.25 7.02936 9.40804 7.31066 9.68934C7.59196 9.97064 7.75 10.3522 7.75 10.75V13.75C7.75 14.1478 7.59196 14.5294 7.31066 14.8107C7.02936 15.092 6.64782 15.25 6.25 15.25H4C3.60218 15.25 3.22064 15.092 2.93934 14.8107C2.65804 14.5294 2.5 14.1478 2.5 13.75V10C2.5 5.85775 5.85775 2.5 10 2.5C14.1423 2.5 17.5 5.85775 17.5 10V13.7515ZM16 13.75V10.75H13.75V13.75H16ZM4 10.75V13.75H6.25V10.75H4Z" fill="#A4A4A4"/>
</svg>
