<svg width="32" height="32" viewBox="0 0 32 32" fill="none" xmlns="http://www.w3.org/2000/svg">
<path d="M17 9C17 12.3137 19.6863 15 23 15C26.3137 15 29 12.3137 29 9C29 5.68629 26.3137 3 23 3C19.6863 3 17 5.68629 17 9Z" fill="#B0C9E2"/>
<path d="M3 9C3 12.3137 5.68629 15 9 15C12.3137 15 15 12.3137 15 9C15 5.68629 12.3137 3 9 3C5.68629 3 3 5.68629 3 9Z" fill="#004280"/>
<path d="M17 23C17 26.3137 19.6863 29 23 29C26.3137 29 29 26.3137 29 23C29 19.6863 26.3137 17 23 17C19.6863 17 17 19.6863 17 23Z" fill="#004280"/>
<path d="M3 23C3 26.3137 5.68629 29 9 29C12.3137 29 15 26.3137 15 23C15 19.6863 12.3137 17 9 17C5.68629 17 3 19.6863 3 23Z" fill="#B0C9E2"/>
</svg>
