<svg width="48" height="48" viewBox="0 0 48 48" fill="none" xmlns="http://www.w3.org/2000/svg">
  <path
    d="M26 20C26 18.8954 25.1046 18 24 18C22.8954 18 22 18.8954 22 20V30.3414C19.6696 31.165 18 33.3876 18 36C18 39.3138 20.6862 42 24 42C27.3138 42 30 39.3138 30 36C30 33.3876 28.3304 31.165 26 30.3414V20Z"
    fill="#004280" />
  <path fill-rule="evenodd" clip-rule="evenodd"
    d="M24 10C15.1634 10 8 17.1634 8 26C8 27.1046 7.10456 28 6 28C4.89544 28 4 27.1046 4 26C4 14.9543 12.9543 6 24 6C35.0456 6 44 14.9543 44 26C44 27.1046 43.1046 28 42 28C40.8954 28 40 27.1046 40 26C40 17.1634 32.8366 10 24 10Z"
    fill="#B0C9E2" />
</svg>