<svg width="20" height="21" viewBox="0 0 20 21" fill="none" xmlns="http://www.w3.org/2000/svg">
  <path
    d="M10.0002 7.6416C13.6821 7.6416 16.6668 6.52231 16.6668 5.1416C16.6668 3.76089 13.6821 2.6416 10.0002 2.6416C6.31826 2.6416 3.3335 3.76089 3.3335 5.1416C3.3335 6.52231 6.31826 7.6416 10.0002 7.6416Z"
    stroke="currentColor" stroke-width="1.25" />
  <path d="M5.8335 10.0098C6.33481 10.1605 6.89545 10.2846 7.50016 10.3764" stroke="currentColor" stroke-width="1.25" stroke-linecap="round" />
  <path d="M16.6668 10.9746C16.6668 12.3554 13.6821 13.4746 10.0002 13.4746C6.31826 13.4746 3.3335 12.3554 3.3335 10.9746" stroke="currentColor" stroke-width="1.25" />
  <path d="M5.8335 15.8428C6.33481 15.9935 6.89545 16.1176 7.50016 16.2094" stroke="currentColor" stroke-width="1.25" stroke-linecap="round" />
  <path d="M16.6668 5.1416V16.8083C16.6668 18.189 13.6821 19.3083 10.0002 19.3083C6.31826 19.3083 3.3335 18.189 3.3335 16.8083V5.1416" stroke="currentColor" stroke-width="1.25" />
</svg>