<svg width="48" height="48" viewBox="0 0 48 48" fill="none" xmlns="http://www.w3.org/2000/svg">
<path fill-rule="evenodd" clip-rule="evenodd" d="M40.5 31.8022V30C40.5 26.9624 38.0376 24.5 35 24.5C31.9624 24.5 29.5 26.9624 29.5 30V31.8022C29.067 31.9344 28.6496 32.1314 28.2606 32.43C27.9486 32.6694 27.6694 32.9486 27.43 33.2606C26.8862 33.9692 26.6796 34.771 26.587 35.5922C26.5 36.3642 26.5 37.478 26.5 38.5814C26.5 39.6846 26.5 40.6358 26.587 41.4078C26.6796 42.229 26.8862 43.0308 27.43 43.7394C27.6694 44.0514 27.9486 44.3306 28.2606 44.57C28.9692 45.1138 29.771 45.3204 30.5922 45.413C31.3642 45.5 32.3154 45.5 33.4186 45.5H36.5814C37.6846 45.5 38.6358 45.5 39.4078 45.413C40.229 45.3204 41.0308 45.1138 41.7394 44.57C42.0514 44.3306 42.3306 44.0514 42.57 43.7394C43.1138 43.0308 43.3204 42.229 43.413 41.4078C43.5002 40.6358 43.5 39.6846 43.5 38.5814C43.5 37.478 43.5002 36.3642 43.413 35.5922C43.3204 34.771 43.1138 33.9692 42.57 33.2606C42.3306 32.9486 42.0514 32.6694 41.7394 32.43C41.3504 32.1314 40.9332 31.9344 40.5 31.8022ZM32.5 30C32.5 28.6192 33.6192 27.5 35 27.5C36.3808 27.5 37.5 28.6192 37.5 30V31.502H32.5V30Z" fill="#B0C9E2"/>
<path d="M27.8808 2.76966C25.8746 2.49994 23.3166 2.49996 20.1116 2.5C16.9063 2.49996 14.1254 2.49994 12.1192 2.76966C10.0467 3.0483 8.33988 3.63932 6.9896 4.9896C5.63932 6.33988 5.0483 8.0467 4.76966 10.1192C4.49994 12.1254 4.49996 14.6833 4.5 17.8885V30.1114C4.49996 33.3166 4.49994 35.8746 4.76966 37.8808C5.0483 39.9534 5.63932 41.6602 6.9896 43.0104C8.33988 44.3606 10.0467 44.9516 12.1192 45.2304C14.1254 45.5 16.9063 45.5 20.1114 45.5C22.1988 45.5 24.0118 45.5 25.5766 45.4256C25.5324 45.3714 25.489 45.3168 25.4466 45.2614C24.5132 44.0448 24.2204 42.7318 24.1026 41.6878C23.9998 40.7742 23.9998 39.703 24 38.6784C23.9998 37.6538 23.9998 36.2258 24.1026 35.3122C24.2204 34.2682 24.5132 32.9552 25.4466 31.7386C25.819 31.2534 26.5146 30.629 27 30.2566C27 25 30.5818 22 35 22C35.168 22 35.3346 22.0052 35.5 22.0154V17.8885C35.5 14.6833 35.5 12.1254 35.2304 10.1192C34.9516 8.0467 34.3606 6.33988 33.0104 4.9896C31.6602 3.63932 29.9534 3.0483 27.8808 2.76966Z" fill="#004280"/>
<path opacity="0.4" fill-rule="evenodd" clip-rule="evenodd" d="M20 36C21.1046 36 22 36.8954 22 38V38.02C22 39.1246 21.1046 40.02 20 40.02C18.8954 40.02 18 39.1246 18 38.02V38C18 36.8954 18.8954 36 20 36Z" fill="white"/>
</svg>
