<svg width="33" height="32" viewBox="0 0 33 32" fill="none" xmlns="http://www.w3.org/2000/svg">
<path d="M30.1668 18.0665V17.9998V8.6665C30.1668 8.11421 29.7192 7.6665 29.1668 7.6665H3.8335C3.2812 7.6665 2.8335 8.11421 2.8335 8.6665V17.9998V18.0665C2.83347 20.5209 2.83346 22.4647 3.03792 23.9855C3.24811 25.5486 3.69122 26.8133 4.68896 27.811C5.68671 28.8087 6.9514 29.2519 8.51448 29.4621C10.0352 29.6666 11.9791 29.6665 14.4336 29.6665H14.5001H18.5001H18.5668C21.0212 29.6665 22.9652 29.6666 24.4858 29.4621C26.0489 29.2519 27.3136 28.8087 28.3113 27.811C29.3092 26.8133 29.7522 25.5486 29.9624 23.9855C30.1669 22.4647 30.1669 20.5209 30.1668 18.0665Z" fill="#004280"/>
<path d="M16.4999 12.6665C15.7635 12.6665 15.1666 13.2634 15.1666 13.9998V20.5207C14.7527 20.0439 14.3113 19.5017 14.0273 19.1378C13.8861 18.9569 13.6532 18.6474 13.5742 18.5429C13.1376 17.9501 12.3025 17.8227 11.7096 18.259C11.1168 18.6955 10.9895 19.5306 11.4258 20.1235C11.512 20.2377 11.7746 20.5847 11.9258 20.7785C12.227 21.1646 12.6435 21.6838 13.0976 22.2069C13.5461 22.7234 14.0577 23.2746 14.5469 23.7069C14.7899 23.9217 15.0598 24.1359 15.3373 24.3033C15.5781 24.4485 15.997 24.6665 16.4999 24.6665C17.003 24.6665 17.4218 24.4485 17.6627 24.3033C17.9402 24.1359 18.2099 23.9217 18.4531 23.7069C18.9422 23.2746 19.4539 22.7233 19.9023 22.2069C20.3565 21.6838 20.7729 21.1646 21.0742 20.7785C21.2254 20.5847 21.4879 20.2377 21.5742 20.1235C22.0103 19.5307 21.883 18.6969 21.2903 18.2602C20.6974 17.8235 19.8625 17.9511 19.4258 18.5441C19.3467 18.6486 19.1138 18.9569 18.9726 19.1378C18.6887 19.5017 18.2473 20.0439 17.8333 20.5207V13.9998C17.8333 13.2635 17.2363 12.6665 16.4999 12.6665Z" fill="#B0C9E2"/>
<path d="M19.7539 2.33332C22.1779 2.33332 23.8295 2.30384 25.2682 2.97916C26.7066 3.65467 27.6721 4.91238 29.1263 6.73307L29.9062 7.71223C30.1073 7.96399 30.1869 8.26431 30.1589 8.55468C30.103 8.05528 29.681 7.66666 29.1666 7.66666H3.83332C3.319 7.66668 2.8956 8.05523 2.83984 8.55468C2.81184 8.26443 2.8929 7.9639 3.09375 7.71223L3.87499 6.73307C5.32898 4.91263 6.29363 3.65466 7.73176 2.97916C9.17044 2.30368 10.822 2.33332 13.2461 2.33332H19.7539Z" fill="#B0C9E2"/>
</svg>
