<svg viewBox="0 0 32 32" fill="none" xmlns="http://www.w3.org/2000/svg">
<path fill-rule="evenodd" clip-rule="evenodd" d="M3.33317 6.02059C3.33317 5.28422 3.93013 4.68726 4.6665 4.68726H9.33317C10.0695 4.68726 10.6665 5.28422 10.6665 6.02059V10.6665C10.6665 11.4029 10.0695 11.9999 9.33317 11.9999C8.5968 11.9999 7.99984 11.4029 7.99984 10.6665V8.94408C6.33918 10.8253 5.33317 13.2952 5.33317 15.9999C5.33317 21.8909 10.1088 26.6666 15.9998 26.6666C16.8164 26.6666 17.61 26.575 18.3714 26.4022C19.0896 26.2393 19.8038 26.6894 19.9668 27.4075C20.1297 28.1255 19.6797 28.8398 18.9616 29.0027C18.0077 29.2193 17.0162 29.3333 15.9998 29.3333C8.63604 29.3333 2.6665 23.3637 2.6665 15.9999C2.6665 12.7003 3.86561 9.68107 5.84957 7.35392H4.6665C3.93013 7.35392 3.33317 6.75698 3.33317 6.02059Z" fill="#004280"/>
<path fill-rule="evenodd" clip-rule="evenodd" d="M16.0003 5.33341C15.1837 5.33341 14.3901 5.42492 13.6287 5.59772C12.9105 5.76067 12.1963 5.31061 12.0333 4.59248C11.8704 3.87436 12.3205 3.16011 13.0386 2.99716C13.9924 2.78073 14.9839 2.66675 16.0003 2.66675C23.3641 2.66675 29.3336 8.63628 29.3336 16.0001C29.3336 19.3094 28.1273 22.3369 26.1328 24.6667H27.3336C28.07 24.6667 28.667 25.2637 28.667 26.0001C28.667 26.7365 28.07 27.3334 27.3336 27.3334H22.6359C21.8995 27.3334 21.3025 26.7365 21.3025 26.0001V21.3334C21.3025 20.597 21.8995 20.0001 22.6359 20.0001C23.3723 20.0001 23.9692 20.597 23.9692 21.3334V23.0909C25.6484 21.2054 26.6669 18.7215 26.6669 16.0001C26.6669 10.109 21.8913 5.33341 16.0003 5.33341Z" fill="#B0C9E2"/>
</svg>
