<svg width="62" height="60" viewBox="0 0 62 60" fill="none" xmlns="http://www.w3.org/2000/svg">
<path d="M0.0426929 17.6229V6.36615L9.77363 0.75L19.5168 6.36615V17.6229L9.77363 23.239L0.0426929 17.6229ZM41.8208 17.6229V6.36615L51.5517 0.75L61.2948 6.36615V17.6229L51.5517 23.239L41.8208 17.6229ZM0 53.6049V42.3482L9.73094 36.732L19.4741 42.3482V53.6049L9.73094 59.221L0 53.6049ZM41.7832 53.6049V42.3482L51.5141 36.732L61.2572 42.3482V53.6049L51.5141 59.221L41.7832 53.6049ZM10.5218 35.7023V24.4466L20.2527 18.8305L29.9958 24.4466V35.7023L20.2527 41.3195L10.5218 35.7023ZM31.4372 35.7023V24.4466L41.1682 18.8305L50.9113 24.4466V35.7023L41.1682 41.3195L31.4372 35.7023Z" fill="#86EE02"/>
</svg>
