<svg width="32" height="32" viewBox="0 0 32 32" fill="none" xmlns="http://www.w3.org/2000/svg">
<path d="M16.1312 4.32102C11.3285 1.87455 7.44749 3.29168 5.45931 4.83648C5.17053 5.06018 4.81009 5.33939 4.57137 5.8272C4.33109 6.31819 4.33245 6.79771 4.33367 7.22839L4.3335 27.6673C4.3335 28.4037 4.93046 29.0007 5.66683 29.0007C6.40322 29.0007 7.00017 28.4037 7.00017 27.6673V19.9444C7.00017 19.7328 7.00017 19.6269 7.05321 19.5345C7.10623 19.442 7.19035 19.3928 7.35859 19.2944C8.98386 18.344 11.7474 17.6657 15.2234 19.4364C20.1766 21.9596 24.4608 20.9387 26.5731 19.784C26.7827 19.6717 27.1952 19.4505 27.434 19.0477C27.6747 18.642 27.6698 18.1275 27.6672 17.8684V7.77892C27.6672 7.27275 27.6672 6.81222 27.6284 6.45607C27.5935 6.13712 27.5024 5.55427 27.0094 5.1793C26.7318 4.96822 26.4272 4.90719 26.196 4.89339C25.9686 4.8798 25.7402 4.9077 25.5378 4.94355C25.1495 5.0123 24.6003 5.1646 24.027 5.32363C22.1375 5.84752 19.3339 5.95246 16.1312 4.32102Z" fill="#B0C9E2"/>
<path d="M5.45931 4.83384C5.17053 5.05752 4.81009 5.33674 4.57137 5.82454C4.33109 6.31553 4.33245 6.79506 4.33367 7.22574L4.3335 27.6647C4.3335 28.401 4.93046 28.998 5.66683 28.998C6.40322 28.998 7.00017 28.401 7.00017 27.6647V19.9418C7.00017 19.8592 7.00017 19.7927 7.00331 19.7368C7.03637 19.1504 7.05289 18.8571 7.05305 18.8515C7.05318 18.8468 7.05321 19.3931 7.05321 19.3931V19.3186V3.8645C6.43566 4.15404 5.90082 4.4908 5.45931 4.83384Z" fill="#004280"/>
</svg>
