<svg width="48" height="48" viewBox="0 0 48 48" fill="none" xmlns="http://www.w3.org/2000/svg">
<path d="M5 11C5 7.70016 5 6.05026 6.02512 5.02512C7.05026 4 8.70016 4 12 4C15.2998 4 16.9497 4 17.9749 5.02512C19 6.05026 19 7.70016 19 11C19 14.2998 19 15.9497 17.9749 16.9749C16.9497 18 15.2998 18 12 18C8.70016 18 7.05026 18 6.02512 16.9749C5 15.9497 5 14.2998 5 11Z" stroke="#B0C9E2" stroke-width="3"/>
<path d="M7.3137 31.3138C9.52284 29.1046 10.6274 28 12 28C13.3726 28 14.4772 29.1046 16.6863 31.3138C18.8954 33.5228 20 34.6274 20 36C20 37.3726 18.8954 38.4772 16.6863 40.6862C14.4772 42.8954 13.3726 44 12 44C10.6274 44 9.52284 42.8954 7.3137 40.6862C5.10456 38.4772 4 37.3726 4 36C4 34.6274 5.10456 33.5228 7.3137 31.3138Z" stroke="#B0C9E2" stroke-width="3"/>
<path d="M12 18V28M20 36H30" stroke="#B0C9E2" stroke-width="3" stroke-linecap="round" stroke-linejoin="round"/>
<path d="M30 36C30 32.7002 30 31.0502 31.0252 30.0252C32.0502 29 33.7002 29 37 29C40.2998 29 41.9498 29 42.9748 30.0252C44 31.0502 44 32.7002 44 36C44 39.2998 44 40.9498 42.9748 41.9748C41.9498 43 40.2998 43 37 43C33.7002 43 32.0502 43 31.0252 41.9748C30 40.9498 30 39.2998 30 36Z" stroke="#B0C9E2" stroke-width="3"/>
</svg>
