<svg width="16" height="16" viewBox="0 0 16 16" fill="none" xmlns="http://www.w3.org/2000/svg">
<path d="M4.3998 13.6999C3.24 13.6999 2.2998 12.7597 2.2998 11.5999C2.2998 10.4401 3.24 9.49992 4.3998 9.49992C5.3508 9.49992 6.1542 10.1323 6.4128 10.9999H9.7998V9.79992H10.9998V6.34512L9.654 4.99992H6.1998V6.19992H2.5998V2.59992H6.1998V3.79992H9.654L11.5998 1.85352L14.1456 4.39992L12.1998 6.34452V9.79992H13.3998V13.3999H9.7998V12.1999H6.4128C6.1548 13.0675 5.3508 13.6999 4.3998 13.6999ZM4.3998 10.6999C3.903 10.6999 3.4998 11.1031 3.4998 11.5999C3.4998 12.0967 3.903 12.4999 4.3998 12.4999C4.8966 12.4999 5.2998 12.0967 5.2998 11.5999C5.2998 11.1031 4.8966 10.6999 4.3998 10.6999ZM12.1998 10.9999H10.9998V12.1999H12.1998V10.9999ZM11.5998 3.55152L10.7514 4.39992L11.5998 5.24832L12.4482 4.39992L11.5998 3.55152ZM4.9998 3.79992H3.7998V4.99992H4.9998V3.79992Z" fill="white"/>
</svg>
