<svg width="278" height="59" viewBox="0 0 278 59" fill="none" xmlns="http://www.w3.org/2000/svg">
  <path
    d="M0.0426929 17.3357V6.07904L9.77363 0.462891L19.5168 6.07904V17.3357L9.77363 22.9519L0.0426929 17.3357ZM41.8208 17.3357V6.07904L51.5517 0.462891L61.2948 6.07904V17.3357L51.5517 22.9519L41.8208 17.3357ZM0 53.3177V42.061L9.73094 36.4449L19.4741 42.061V53.3177L9.73094 58.9339L0 53.3177ZM41.7832 53.3177V42.061L51.5141 36.4449L61.2572 42.061V53.3177L51.5141 58.9339L41.7832 53.3177ZM10.5218 35.4152V24.1595L20.2527 18.5433L29.9958 24.1595V35.4152L20.2527 41.0323L10.5218 35.4152ZM31.4372 35.4152V24.1595L41.1682 18.5433L50.9113 24.1595V35.4152L41.1682 41.0323L31.4372 35.4152Z"
    fill="#86EE02" />
  <path
    d="M117.09 43.2017H112.076V25.35L107.389 25.4374V43.2017H102.398V9.08905H107.389V21.9935C108.552 21.8187 109.715 21.6377 110.877 21.4486C112.345 21.2159 113.507 21.099 114.365 21.099C116.181 21.099 117.09 21.9935 117.09 23.7805V43.2017ZM130.124 24.8488H125.437V30.1234H130.124V24.8488ZM134.898 40.4765C134.898 42.294 133.961 43.2017 132.086 43.2017H123.476C121.602 43.2017 120.665 42.294 120.665 40.4765V23.9116C120.665 22.0951 121.602 21.1864 123.476 21.1864H132.086C133.961 21.1864 134.898 22.0951 134.898 23.9116V31.9979L133.525 33.3712H125.437V39.5393H130.124V35.8778H134.898V40.4765ZM181.855 38.7799V32.8731H177.082V38.9548L181.855 38.7799ZM186.585 42.7473H181.811V41.9839C180.678 42.1588 179.544 42.3326 178.411 42.5074C176.929 42.725 175.803 42.8337 175.032 42.8337C173.216 42.8337 172.308 41.9402 172.308 40.1532V32.2195C172.308 30.403 173.245 29.4942 175.12 29.4942H181.855V24.4372H177.082V27.5761H172.569V23.4572C172.569 21.6408 173.506 20.732 175.381 20.732H183.817C185.662 20.732 186.585 21.6408 186.585 23.4572V42.7473ZM204.776 20.7757L199.262 42.5074L197.147 50.8336H192.046L194.336 42.6162L188.756 20.7757H193.878L196.776 35.2486L199.676 20.7757H204.776ZM258.998 42.725H254.028V41.9626C252.881 42.1517 251.726 42.3407 250.563 42.5288C249.153 42.7473 247.99 42.8561 247.076 42.8561C245.259 42.8561 244.351 41.9484 244.351 40.1319V20.7107H249.299V38.5838L254.028 38.475V20.7107H258.998V42.725ZM272.251 36.9269V24.8732L267.564 24.9606V38.5838H270.659C271.721 38.5838 272.251 38.0318 272.251 36.9269ZM277.265 38.3002C277.265 39.6816 276.85 40.7631 276.021 41.5479C275.194 42.3326 274.089 42.725 272.709 42.725H262.573V8.61332H267.564V21.5168C268.727 21.3429 269.89 21.161 271.052 20.9719C272.52 20.7401 273.682 20.6233 274.539 20.6233C276.356 20.6233 277.265 21.5168 277.265 23.3038V38.3002ZM98.8244 9.06363V16.3204H86.8205V43.2292H79.5638V16.3204H68.0448V9.06363H98.8244ZM169.856 18.6584C169.856 21.1254 168.931 23.4796 167.253 25.2849C166.246 26.3695 165.023 27.1959 163.676 27.7255C163.676 27.7255 163.602 27.7916 162.328 28.1067C161.055 28.4208 160.841 28.4259 160.841 28.4259H149.133V43.0807H141.876V21.1254H149.133V21.1406H160.116C161.484 21.1406 162.599 20.0266 162.599 18.6584C162.599 17.2881 161.484 16.1751 160.116 16.1751C160.056 16.1751 160.001 16.1771 159.955 16.1812L159.936 16.1832L159.886 16.1903H158.708V16.1751H141.876V10.2783L141.877 8.91726H160.578C160.578 8.91726 161.354 9.01281 162.063 9.15004C162.771 9.28828 163.282 9.44177 163.282 9.44177C167.123 10.7571 169.856 14.4013 169.856 18.6584ZM240.776 8.5625V42.6701H233.519V28.1372H217.793V42.6701H210.536V8.5625H217.793V20.8794H233.519V8.5625H240.776Z"
    fill="white" />
</svg>