<svg width="84" height="85" viewBox="0 0 84 85" fill="none" xmlns="http://www.w3.org/2000/svg">
  <path
    d="M39.6504 2.41479C41.1045 1.57529 42.8955 1.57529 44.3496 2.41479L75.123 20.1814C76.5772 21.021 77.4727 22.5726 77.4727 24.2517V59.7849C77.4727 61.464 76.5772 63.0156 75.123 63.8552L44.3496 81.6218C42.8955 82.4613 41.1045 82.4613 39.6504 81.6218L8.87695 63.8552C7.42282 63.0156 6.52734 61.464 6.52734 59.7849V24.2517C6.52734 22.5726 7.42282 21.021 8.87695 20.1814L39.6504 2.41479Z"
    fill="#B0C9E2" stroke="url(#paint0_linear_213_2003)" stroke-width="1.8" />
  <path d="M42 63.5C53.8742 63.5 63.5 53.8742 63.5 42C63.5 30.1259 53.8742 20.5 42 20.5C30.1259 20.5 20.5 30.1259 20.5 42C20.5 53.8742 30.1259 63.5 42 63.5Z" fill="#004280" />
  <path
    d="M40 45C40 43.5508 40.644 42.3792 41.3614 41.5156C42.071 40.6616 42.9538 39.9834 43.6934 39.4766L43.9766 39.2578C44.6068 38.7058 45 37.8984 45 37C45 35.3432 43.6568 34 42 34C40.3432 34 39 35.3432 39 37C39 38.1046 38.1046 39 37 39C35.8954 39 35 38.1046 35 37C35 33.134 38.134 30 42 30C45.866 30 49 33.134 49 37C49 39.251 47.936 41.2534 46.291 42.5312L45.9532 42.7774C45.3264 43.207 44.7978 43.6386 44.4376 44.0722C44.0852 44.4966 44 44.7924 44 45C44 46.1046 43.1046 47 42 47C40.8954 47 40 46.1046 40 45Z"
    fill="#B0C9E2" />
  <path
    d="M42.0176 50L42.2226 50.0098C43.231 50.1122 44.0176 50.9646 44.0176 52C44.0176 53.0354 43.231 53.8878 42.2226 53.9902L42.0176 54H42C40.8954 54 40 53.1046 40 52C40 50.8954 40.8954 50 42 50H42.0176Z"
    fill="#B0C9E2" />
  <defs>
    <linearGradient id="paint0_linear_213_2003" x1="42" y1="0.0183105" x2="42" y2="84.0183" gradientUnits="userSpaceOnUse">
      <stop stop-color="white" stop-opacity="0.1" />
      <stop offset="1" stop-color="#011427" />
    </linearGradient>
  </defs>
</svg>