<svg width="20" height="20" viewBox="0 0 20 20" fill="none" xmlns="http://www.w3.org/2000/svg">
  <path
    d="M16.75 16C16.75 16.1989 16.671 16.3897 16.5303 16.5303C16.3897 16.671 16.1989 16.75 16 16.75H4C3.80109 16.75 3.61032 16.671 3.46967 16.5303C3.32902 16.3897 3.25 16.1989 3.25 16V8.1175C3.24992 8.00321 3.27596 7.89041 3.32614 7.78772C3.37631 7.68503 3.44929 7.59517 3.5395 7.525L9.5395 2.8585C9.67116 2.75608 9.8332 2.70048 10 2.70048C10.1668 2.70048 10.3288 2.75608 10.4605 2.8585L16.4605 7.525C16.5507 7.59517 16.6237 7.68503 16.6739 7.78772C16.724 7.89041 16.7501 8.00321 16.75 8.1175V16ZM15.25 15.25V8.4835L10 4.4005L4.75 8.4835V15.25H15.25Z"
    fill="currentColor" />
</svg>