<svg width="32" height="32" viewBox="0 0 32 32" fill="none" xmlns="http://www.w3.org/2000/svg">
  <path
    d="M6.85731 18.6667C5.88996 17.0777 5.3335 15.2158 5.3335 13.2252C5.3335 7.39394 10.1091 2.66675 16.0002 2.66675C21.8912 2.66675 26.6668 7.39394 26.6668 13.2252C26.6668 15.2158 26.1104 17.0777 25.143 18.6667"
    stroke="#5C5C5C" stroke-width="2" stroke-linecap="round" />
  <path
    d="M9.84366 22.7975C9.72117 22.4287 9.65993 22.2443 9.66706 22.095C9.68216 21.779 9.88136 21.5015 10.1753 21.3873C10.3142 21.3333 10.5079 21.3333 10.8953 21.3333H21.1044C21.4918 21.3333 21.6854 21.3333 21.8244 21.3873C22.1184 21.5015 22.3176 21.779 22.3326 22.095C22.3397 22.2443 22.2785 22.4287 22.156 22.7975C21.9296 23.4791 21.8164 23.8201 21.6418 24.0959C21.2761 24.6741 20.7028 25.0889 20.0406 25.2543C19.7245 25.3333 19.3665 25.3333 18.6506 25.3333H13.349C12.6331 25.3333 12.2752 25.3333 11.9591 25.2543C11.2969 25.0889 10.7236 24.6741 10.3578 24.0959C10.1832 23.8201 10.07 23.4791 9.84366 22.7975Z"
    stroke="#5C5C5C" stroke-width="2" />
  <path
    d="M20 25.3333L19.8276 26.1954C19.6391 27.1382 19.5448 27.6095 19.3335 27.9821C19.0069 28.5579 18.4776 28.9918 17.8488 29.1991C17.4421 29.3333 16.9615 29.3333 16 29.3333C15.0385 29.3333 14.5579 29.3333 14.1512 29.1991C13.5224 28.9918 12.9931 28.5579 12.6665 27.9821C12.4553 27.6095 12.361 27.1382 12.1724 26.1954L12 25.3333"
    stroke="#5C5C5C" stroke-width="2" />
  <path d="M16 21.3334V14.6667" stroke="#5C5C5C" stroke-width="2" stroke-linecap="round" stroke-linejoin="round" />
</svg>