<svg width="84" height="84" viewBox="0 0 84 84" fill="none" xmlns="http://www.w3.org/2000/svg">
<path d="M39.6504 2.39648C41.1045 1.55698 42.8955 1.55697 44.3496 2.39648L75.123 20.1631C76.5772 21.0027 77.4727 22.5543 77.4727 24.2334V59.7666C77.4727 61.4457 76.5772 62.9973 75.123 63.8369L44.3496 81.6035C42.8955 82.443 41.1045 82.443 39.6504 81.6035L8.87695 63.8369C7.42282 62.9973 6.52734 61.4457 6.52734 59.7666V24.2334C6.52734 22.5543 7.42282 21.0027 8.87695 20.1631L39.6504 2.39648Z" fill="#B0C9E2" stroke="url(#paint0_linear_537_1559)" stroke-width="1.8"/>
<path d="M42 63.4817C53.8742 63.4817 63.5 53.8559 63.5 41.9817C63.5 30.1076 53.8742 20.4817 42 20.4817C30.1259 20.4817 20.5 30.1076 20.5 41.9817C20.5 53.8559 30.1259 63.4817 42 63.4817Z" fill="#004280"/>
<path fill-rule="evenodd" clip-rule="evenodd" d="M42 36.2317C38.8462 36.2317 36.25 38.876 36.25 42.1876C36.25 43.0782 36.4383 43.9208 36.7746 44.6769L35.4041 45.2865C34.9837 44.3414 34.75 43.2913 34.75 42.1876C34.75 38.092 37.9741 34.7317 42 34.7317C46.0259 34.7317 49.25 38.092 49.25 42.1876C49.25 43.2913 49.0163 44.3414 48.5959 45.2865L47.2254 44.6769C47.5617 43.9208 47.75 43.0782 47.75 42.1876C47.75 38.876 45.1538 36.2317 42 36.2317Z" fill="#B0C9E2"/>
<path fill-rule="evenodd" clip-rule="evenodd" d="M42.75 31.2317V33.7317H41.25V31.2317H42.75Z" fill="#B0C9E2"/>
<path fill-rule="evenodd" clip-rule="evenodd" d="M52.75 42.7317H50.25V41.2317H52.75V42.7317Z" fill="#B0C9E2"/>
<path fill-rule="evenodd" clip-rule="evenodd" d="M33.75 42.7317H31.25V41.2317H33.75V42.7317Z" fill="#B0C9E2"/>
<path fill-rule="evenodd" clip-rule="evenodd" d="M50.1312 34.9106L48.3634 36.6784L47.3027 35.6177L49.0705 33.85L50.1312 34.9106Z" fill="#B0C9E2"/>
<path fill-rule="evenodd" clip-rule="evenodd" d="M35.6369 36.679L33.8691 34.9112L34.9298 33.8506L36.6976 35.6184L35.6369 36.679Z" fill="#B0C9E2"/>
<path d="M38 45.7317H46C46.2247 45.7317 46.4376 45.8324 46.58 46.0062C46.7225 46.18 46.7795 46.4085 46.7354 46.6288L46.4149 48.2317H37.5852L37.2646 46.6288C37.2205 46.4085 37.2776 46.18 37.42 46.0062C37.5625 45.8324 37.7753 45.7317 38 45.7317Z" fill="#B0C9E2"/>
<path d="M38.8662 49.7317L39.2618 52.105C39.322 52.4666 39.6349 52.7317 40.0015 52.7317H44.0015C44.3681 52.7317 44.681 52.4666 44.7413 52.105L45.1369 49.7317H38.8662Z" fill="#B0C9E2"/>
<defs>
<linearGradient id="paint0_linear_537_1559" x1="42" y1="0" x2="42" y2="84" gradientUnits="userSpaceOnUse">
<stop stop-color="white" stop-opacity="0.1"/>
<stop offset="1" stop-color="#011427"/>
</linearGradient>
</defs>
</svg>
