<svg width="16" height="16" viewBox="0 0 16 16" fill="none" xmlns="http://www.w3.org/2000/svg">
  <path
    d="M8.00344 3.89092C5.73201 3.89092 3.89987 5.69443 3.89987 7.93037C3.89987 10.1663 5.73201 11.9698 8.00344 11.9698C10.2749 11.9698 12.107 10.1663 12.107 7.93037C12.107 5.69443 10.2749 3.89092 8.00344 3.89092ZM8.00344 10.5565C6.53558 10.5565 5.33558 9.3788 5.33558 7.93037C5.33558 6.48193 6.53201 5.3042 8.00344 5.3042C9.47486 5.3042 10.6713 6.48193 10.6713 7.93037C10.6713 9.3788 9.47129 10.5565 8.00344 10.5565ZM13.232 3.72568C13.232 4.24951 12.8034 4.66787 12.2749 4.66787C11.7427 4.66787 11.3177 4.24599 11.3177 3.72568C11.3177 3.20537 11.7463 2.78349 12.2749 2.78349C12.8034 2.78349 13.232 3.20537 13.232 3.72568ZM15.9499 4.68193C15.8891 3.41982 15.5963 2.30185 14.657 1.38076C13.7213 0.459668 12.5856 0.171387 11.3034 0.108105C9.98201 0.0342774 6.0213 0.0342774 4.69987 0.108105C3.4213 0.167871 2.28558 0.456152 1.3463 1.37725C0.407014 2.29834 0.117728 3.41631 0.0534423 4.67842C-0.0215576 5.9792 -0.0215576 9.87802 0.0534423 11.1788C0.114157 12.4409 0.407014 13.5589 1.3463 14.48C2.28558 15.4011 3.41773 15.6893 4.69987 15.7526C6.0213 15.8265 9.98201 15.8265 11.3034 15.7526C12.5856 15.6929 13.7213 15.4046 14.657 14.48C15.5927 13.5589 15.8856 12.4409 15.9499 11.1788C16.0249 9.87802 16.0249 5.98271 15.9499 4.68193ZM14.2427 12.5745C13.9641 13.2636 13.4249 13.7944 12.7213 14.0722C11.6677 14.4835 9.16772 14.3886 8.00344 14.3886C6.83915 14.3886 4.33558 14.48 3.28558 14.0722C2.58558 13.7979 2.0463 13.2671 1.76416 12.5745C1.3463 11.5374 1.44273 9.07646 1.44273 7.93037C1.44273 6.78427 1.34987 4.31982 1.76416 3.28623C2.04273 2.59717 2.58201 2.06631 3.28558 1.78857C4.33915 1.37725 6.83915 1.47217 8.00344 1.47217C9.16772 1.47217 11.6713 1.38076 12.7213 1.78857C13.4213 2.06279 13.9606 2.59365 14.2427 3.28623C14.6606 4.32334 14.5641 6.78427 14.5641 7.93037C14.5641 9.07646 14.6606 11.5409 14.2427 12.5745Z"
    fill="#151D26" />
</svg>