<svg width="32" height="32" viewBox="0 0 32 32" fill="none" xmlns="http://www.w3.org/2000/svg">
<path d="M14.6556 29.0884C13.3304 30.7483 10.6377 30.7483 9.31245 29.0884L8.57768 28.1681C8.4848 28.0519 8.3093 27.9648 8.08561 27.9755C7.86156 27.9861 7.70874 28.088 7.63869 28.1992C7.07585 29.0921 6.11488 29.4133 5.27922 29.3499C4.46702 29.2881 3.5788 28.8459 3.16642 27.9673C2.90861 27.5659 3.00682 26.6651 3.08816 26.2649L5.66277 14.082C5.97297 12.6141 6.22468 11.423 6.54364 10.4923C6.87618 9.52204 7.31629 8.72457 8.06989 8.11551C8.82288 7.50695 9.6952 7.24301 10.7146 7.11903C11.6936 6.99996 12.9148 6.99997 14.4217 7H17.5783C19.0852 6.99997 20.3064 6.99996 21.2853 7.11903C22.3048 7.24301 23.1771 7.50695 23.9301 8.11551C24.6837 8.72457 25.1239 9.52204 25.4564 10.4923C25.7753 11.423 26.0271 12.614 26.3372 14.082L28.9119 26.2649C28.9932 26.6651 29.0913 27.5659 28.8336 27.9673C28.4212 28.8459 27.5329 29.2881 26.7208 29.3499C25.8851 29.4133 24.9241 29.0921 24.3613 28.1992C24.2912 28.088 24.1384 27.9861 23.9144 27.9755C23.6907 27.9648 23.5152 28.0519 23.4223 28.1681L22.6876 29.0884C21.3623 30.7483 18.6696 30.7483 17.3444 29.0884C17.0529 28.7235 16.4687 28.3963 16 28.3963C15.5313 28.3963 14.9471 28.7235 14.6556 29.0884Z" fill="#004280"/>
<path fill-rule="evenodd" clip-rule="evenodd" d="M17 13.3335C17 12.7812 16.5523 12.3335 16 12.3335H12C11.4477 12.3335 11 12.7812 11 13.3335C11 13.8858 11.4477 14.3335 12 14.3335H16C16.5523 14.3335 17 13.8858 17 13.3335Z" fill="#B0C9E2"/>
<path fill-rule="evenodd" clip-rule="evenodd" d="M19.6665 18.6665C19.6665 18.1142 19.2188 17.6665 18.6665 17.6665H10.6665C10.1142 17.6665 9.6665 18.1142 9.6665 18.6665C9.6665 19.2188 10.1142 19.6665 10.6665 19.6665H18.6665C19.2188 19.6665 19.6665 19.2188 19.6665 18.6665Z" fill="#B0C9E2"/>
<path fill-rule="evenodd" clip-rule="evenodd" d="M8.09977 1.66651C8.1291 1.66651 8.15853 1.66652 8.18806 1.66652L23.9001 1.66651C25.052 1.66644 26.0494 1.66639 26.8493 1.77465C27.7121 1.89148 28.5342 2.15548 29.1957 2.82165C29.8506 3.48108 30.1037 4.28907 30.2166 5.13464C30.3228 5.93023 30.3228 6.92608 30.3228 8.09268V8.174C30.3228 8.49311 30.3256 8.79969 30.3284 9.09165C30.3354 9.85268 30.3416 10.5143 30.2936 11.0393C30.219 11.8544 30.0004 12.6128 29.3384 13.2794C28.8393 13.782 28.0145 13.7972 27.496 13.3134C26.9776 12.8295 26.9618 12.0299 27.4609 11.5273C27.5617 11.4259 27.6529 11.3057 27.6977 10.8162C27.7338 10.4208 27.7294 9.94852 27.723 9.26692C27.72 8.95175 27.7166 8.59181 27.7166 8.174C27.7166 6.90349 27.7141 6.073 27.6321 5.45891C27.5542 4.87639 27.4261 4.68231 27.3182 4.57372C27.217 4.47187 27.0441 4.35187 26.4888 4.27669C25.8908 4.19572 25.0776 4.19283 23.8117 4.19283H8.18806C6.92233 4.19283 6.10911 4.19572 5.51106 4.27669C4.95573 4.35187 4.78273 4.47187 4.68159 4.57372C4.57375 4.68231 4.44554 4.87637 4.36775 5.45891C4.28577 6.073 4.28321 6.90349 4.28321 8.174C4.28321 8.594 4.27974 8.95548 4.27673 9.27181C4.27023 9.95095 4.26573 10.4219 4.30169 10.8166C4.34631 11.3063 4.4375 11.4261 4.53801 11.5273C5.0371 12.0299 5.02141 12.8295 4.50295 13.3134C3.9845 13.7972 3.15961 13.782 2.6605 13.2794C1.99833 12.6126 1.77998 11.8539 1.70571 11.0389C1.65799 10.5151 1.66425 9.85484 1.67143 9.09567C1.67421 8.80247 1.67711 8.49453 1.67711 8.174C1.67711 8.1468 1.67711 8.11968 1.67711 8.09267C1.67706 6.92607 1.67701 5.93023 1.78323 5.13464C1.89613 4.28907 2.14925 3.48108 2.80409 2.82165C3.46563 2.15548 4.28773 1.89148 5.15058 1.77465C5.95034 1.66639 6.94785 1.66644 8.09977 1.66651Z" fill="#B0C9E2"/>
</svg>
