<svg width="32" height="32" viewBox="0 0 32 32" fill="none" xmlns="http://www.w3.org/2000/svg">
<path d="M5.3335 24.8611V10.7391C5.3335 6.93375 5.3335 5.03108 6.50507 3.84892C7.67664 2.66675 9.56226 2.66675 13.3335 2.66675H18.6668C22.438 2.66675 24.3236 2.66675 25.4952 3.84892C26.6668 5.03108 26.6668 6.93375 26.6668 10.7391V24.8611C26.6668 26.8767 26.6668 27.8845 26.0508 28.2811C25.0443 28.9295 23.4883 27.5699 22.7056 27.0765C22.059 26.6686 21.7358 26.4647 21.3768 26.453C20.9891 26.4402 20.66 26.6358 19.9614 27.0765L17.4135 28.6833C16.7262 29.1166 16.3826 29.3334 16.0002 29.3334C15.6178 29.3334 15.2742 29.1166 14.5868 28.6833L12.039 27.0765C11.3924 26.6686 11.069 26.4647 10.7102 26.453C10.3225 26.4402 9.9934 26.6358 9.29466 27.0765C8.5121 27.5699 6.95599 28.9295 5.94943 28.2811C5.3335 27.8845 5.3335 26.8767 5.3335 24.8611Z" stroke="#B0C9E2" stroke-width="2" stroke-linecap="round" stroke-linejoin="round"/>
<path d="M21.3332 8H10.6665" stroke="#B0C9E2" stroke-width="2" stroke-linecap="round" stroke-linejoin="round"/>
<path d="M13.3332 13.3333H10.6665" stroke="#B0C9E2" stroke-width="2" stroke-linecap="round" stroke-linejoin="round"/>
<path d="M19.3335 13.1667C18.229 13.1667 17.3335 13.9501 17.3335 14.9167C17.3335 15.8832 18.229 16.6667 19.3335 16.6667C20.438 16.6667 21.3335 17.4501 21.3335 18.4167C21.3335 19.3832 20.438 20.1667 19.3335 20.1667M19.3335 13.1667C20.2043 13.1667 20.9451 13.6536 21.2196 14.3333M19.3335 13.1667V12M19.3335 20.1667C18.4627 20.1667 17.7219 19.6797 17.4474 19M19.3335 20.1667V21.3333" stroke="#B0C9E2" stroke-width="2" stroke-linecap="round"/>
</svg>
