<svg width="48" height="48" viewBox="0 0 48 48" fill="none" xmlns="http://www.w3.org/2000/svg">
<path d="M6 28V20C6 12.4575 6 8.6863 8.34314 6.34314C10.6863 4 14.4575 4 22 4H26C33.5424 4 37.3138 4 39.6568 6.34314C42 8.6863 42 12.4575 42 20V28C42 35.5424 42 39.3138 39.6568 41.6568C37.3138 44 33.5424 44 26 44H22C14.4575 44 10.6863 44 8.34314 41.6568C6 39.3138 6 35.5424 6 28Z" stroke="#B0C9E2" stroke-width="3"/>
<path d="M22.6666 21.3334C24.7766 23.4432 27.5556 25.5874 27.5556 25.5874L31.365 21.7778C31.365 21.7778 29.221 18.9988 27.1112 16.8889C25.0012 14.779 22.2222 12.6349 22.2222 12.6349L18.4127 16.4444C18.4127 16.4444 20.5568 19.2234 22.6666 21.3334ZM22.6666 21.3334L16 28M32 21.1428L26.9206 26.2222M22.8572 12L17.7778 17.0794" stroke="#B0C9E2" stroke-width="3" stroke-linecap="round" stroke-linejoin="round"/>
<path d="M16 36H32" stroke="#B0C9E2" stroke-width="3" stroke-linecap="round"/>
</svg>
