<svg width="16" height="16" viewBox="0 0 16 16" fill="none" xmlns="http://www.w3.org/2000/svg">
<path d="M14.3337 14.6666H9.66699C9.66699 13.3779 10.7117 12.3333 12.0003 12.3333C13.289 12.3333 14.3337 13.3779 14.3337 14.6666Z" stroke="white" stroke-linecap="round" stroke-linejoin="round"/>
<path d="M13.1663 9.83341C13.1663 10.4777 12.644 11.0001 11.9997 11.0001C11.3553 11.0001 10.833 10.4777 10.833 9.83341C10.833 9.18908 11.3553 8.66675 11.9997 8.66675C12.644 8.66675 13.1663 9.18908 13.1663 9.83341Z" stroke="white" stroke-linecap="round" stroke-linejoin="round"/>
<path d="M7.33365 14.6666H3.00033C2.26394 14.6666 1.66699 14.0696 1.66699 13.3333L1.66709 2.66657C1.66709 1.9302 2.26404 1.33325 3.00042 1.33325H11.667C12.4034 1.33325 13.0003 1.93021 13.0003 2.66659V6.66659" stroke="white" stroke-linecap="round" stroke-linejoin="round"/>
<path d="M4.66699 4.66675H10.0003M4.66699 8.00009H9.00033" stroke="white" stroke-linecap="round"/>
</svg>
