<svg width="1206" height="228" viewBox="0 0 1206 228" fill="none" xmlns="http://www.w3.org/2000/svg">
  <g opacity="0.1">
    <path
      d="M1199.28 30.25L1181.98 29.4388L1189.93 44.8279L1199.28 30.25ZM130.961 158.003L130.234 156.69L130.961 158.003ZM7.71924 226.25L8.44591 227.562L131.688 159.315L130.961 158.003L130.234 156.69L6.99257 224.938L7.71924 226.25ZM1071.29 96.3564L1071.97 97.6892L1187.97 37.7777L1187.29 36.445L1186.6 35.1123L1070.6 95.0237L1071.29 96.3564ZM608.411 123.281L607.882 124.684C759.422 181.818 928.081 172.007 1071.97 97.6892L1071.29 96.3564L1070.6 95.0237C927.46 168.952 759.685 178.711 608.94 121.877L608.411 123.281ZM130.961 158.003L131.688 159.315C277.656 78.4824 451.755 65.8213 607.882 124.684L608.411 123.281L608.94 121.877C451.99 62.7037 276.972 75.4316 130.234 156.69L130.961 158.003Z"
      fill="url(#paint0_linear_263_1843)" />
    <path
      d="M1206 214.25L1197.82 198.982L1188.69 213.699L1206 214.25ZM1087.66 140.812L1086.87 142.086L1087.66 140.812ZM1 51.8425L0.477749 53.2487L243.375 143.462L243.898 142.056L244.42 140.65L1.52225 50.4364L1 51.8425ZM1087.66 140.812L1086.87 142.086L1193.74 208.406L1194.53 207.132L1195.32 205.857L1088.45 139.537L1087.66 140.812ZM623.291 120.621L623.968 121.96C771.21 47.4449 946.647 55.0728 1086.87 142.086L1087.66 140.812L1088.45 139.537C947.339 51.9718 770.79 44.2955 622.613 119.283L623.291 120.621ZM243.898 142.056L243.375 143.462C367.694 189.635 505.641 181.841 623.968 121.96L623.291 120.621L622.613 119.283C505.032 178.787 367.955 186.531 244.42 140.65L243.898 142.056Z"
      fill="url(#paint1_linear_263_1843)" />
    <path
      d="M1194.8 117.75L1177.57 115.967L1184.64 131.779L1194.8 117.75ZM222.088 104L221.801 102.528L221.794 102.529L221.786 102.531L222.088 104ZM763.034 102.637L762.445 104.017L805.835 122.517L806.423 121.137L807.011 119.758L763.622 101.258L763.034 102.637ZM12.1987 147.102L12.5005 148.571L222.39 105.469L222.088 104L221.786 102.531L11.897 145.632L12.1987 147.102ZM222.088 104L222.375 105.472L417.236 67.5192L416.949 66.0468L416.662 64.5745L221.801 102.528L222.088 104ZM806.423 121.137L805.835 122.517C930.504 175.673 1071.69 174.442 1195.41 119.119L1194.8 117.75L1194.19 116.381C1071.23 171.362 930.912 172.586 807.011 119.758L806.423 121.137ZM763.034 102.637L763.622 101.258C654.237 54.6186 533.382 41.841 416.662 64.5745L416.949 66.0468L417.236 67.5192C533.367 44.9003 653.612 57.6134 762.445 104.017L763.034 102.637Z"
      fill="url(#paint2_linear_263_1843)" />
    <path
      d="M1185.84 81.498L1170.84 72.8378V90.1583L1185.84 81.498ZM196.993 81.498L196.4 82.8757L196.463 82.903L196.529 82.9244L196.993 81.498ZM991.55 81.498V82.998H1172.34V81.498V79.998H991.55V81.498ZM22.2778 6.25L21.6845 7.62766L196.4 82.8757L196.993 81.498L197.587 80.1204L22.8712 4.87234L22.2778 6.25ZM196.993 81.498L196.529 82.9244L385.682 144.461L386.146 143.035L386.61 141.609L197.457 80.0716L196.993 81.498ZM774.467 125.844L775.055 127.223C843.502 98.0412 917.142 82.998 991.55 82.998V81.498V79.998C916.737 79.998 842.697 95.1229 773.879 124.464L774.467 125.844ZM774.467 125.844L773.879 124.464C651.107 176.808 513.527 182.899 386.61 141.609L386.146 143.035L385.682 144.461C513.289 185.976 651.616 179.852 775.055 127.223L774.467 125.844Z"
      fill="url(#paint3_linear_263_1843)" />
  </g>
  <defs>
    <linearGradient id="paint0_linear_263_1843" x1="7.71924" y1="128.25" x2="1199.28" y2="128.25" gradientUnits="userSpaceOnUse">
      <stop />
      <stop offset="0.447115" stop-color="white" />
      <stop offset="1" stop-color="white" stop-opacity="0" />
    </linearGradient>
    <linearGradient id="paint1_linear_263_1843" x1="1" y1="107.25" x2="1206" y2="107.25" gradientUnits="userSpaceOnUse">
      <stop />
      <stop offset="0.447115" stop-color="white" />
      <stop offset="1" stop-color="white" stop-opacity="0" />
    </linearGradient>
    <linearGradient id="paint2_linear_263_1843" x1="12.1987" y1="117.75" x2="1194.8" y2="117.75" gradientUnits="userSpaceOnUse">
      <stop />
      <stop offset="0.447115" stop-color="white" />
      <stop offset="1" stop-color="white" stop-opacity="0" />
    </linearGradient>
    <linearGradient id="paint3_linear_263_1843" x1="22.2778" y1="106.75" x2="1185.84" y2="106.75" gradientUnits="userSpaceOnUse">
      <stop offset="0.0988551" />
      <stop offset="0.447115" stop-color="white" />
      <stop offset="1" stop-color="white" stop-opacity="0" />
    </linearGradient>
  </defs>
</svg>