<svg width="16" height="16" viewBox="0 0 16 16" fill="none" xmlns="http://www.w3.org/2000/svg">
  <path
    d="M3.63281 15.9336V5.81312H0.202508V15.9336H3.63281ZM1.9181 4.43051C3.11431 4.43051 3.85889 3.65338 3.85889 2.68222C3.8366 1.68916 3.11436 0.933594 1.9408 0.933594C0.767434 0.933594 0.00012207 1.68917 0.00012207 2.68222C0.00012207 3.65342 0.74452 4.43051 1.89571 4.43051H1.918H1.9181ZM5.53147 15.9336H8.96177V10.2818C8.96177 9.97936 8.98406 9.6772 9.07465 9.46097C9.32263 8.85664 9.88705 8.23072 10.8346 8.23072C12.0759 8.23072 12.5725 9.1588 12.5725 10.5193V15.9335H16.0026V10.1305C16.0026 7.02193 14.3103 5.57552 12.0533 5.57552C10.2028 5.57552 9.39033 6.58985 8.93895 7.28071H8.96185V5.81291H5.53155C5.57657 6.76256 5.53155 15.9334 5.53155 15.9334L5.53147 15.9336Z"
    fill="#151D26" />
</svg>