<svg width="32" height="32" viewBox="0 0 32 32" fill="none" xmlns="http://www.w3.org/2000/svg">
<path d="M23.9999 14.6626C23.477 13.5955 22.064 12.0285 19.1603 12.0951C19.1603 12.0951 16.8574 11.9951 14.254 11.9951C11.6508 11.9951 10.432 12.0561 8.34655 12.0951C7.01153 12.0618 4.47495 12.3619 3.30681 15.1294C2.53917 17.4632 2.50578 22.3646 2.97305 24.8319C3.07318 26.099 3.74069 27.8662 5.80999 28.7998C7.07827 29.4666 9.1142 29.1998 10.6495 29.3332M7.97943 10.9282C7.91267 7.76062 7.77917 5.25994 11.4505 3.19272C12.6854 2.69258 14.5211 2.25913 16.7907 3.32609C19.1603 4.75981 19.4555 6.27712 19.661 6.66033C20.2283 8.16074 19.928 10.2947 19.9947 11.1616" stroke="#B0C9E2" stroke-width="2" stroke-linecap="round"/>
<path d="M20.6665 26.3137C20.6665 27.9725 19.3213 29.2877 17.6734 29.2877C16.0257 29.2877 14.6665 27.9725 14.6665 26.3137C14.6665 24.6551 16.0257 23.3223 17.6734 23.3223C19.3213 23.3223 20.6665 24.6551 20.6665 26.3137Z" stroke="#B0C9E2" stroke-width="2"/>
<path d="M20.3003 23.7211L22.9543 21.1309M22.9543 21.1309L24.8354 19.3207C25.267 18.9531 26.1336 18.0922 27.1643 19.0785L29.3336 21.1309M22.9543 21.1309L25.1003 23.1914" stroke="#B0C9E2" stroke-width="2" stroke-linecap="round"/>
</svg>
