<svg width="32" height="32" viewBox="0 0 32 32" fill="none" xmlns="http://www.w3.org/2000/svg">
<path d="M10.6665 10.6667C10.6665 9.89945 10.6665 9.5702 10.726 9.23276C10.9597 7.90729 11.8579 6.79006 13.1105 6.26668C13.4296 6.13337 13.8077 6.04701 14.5641 5.8743L18.2009 5.04381C22.7205 4.01176 24.9802 3.49573 26.4901 4.68422C27.9998 5.87272 27.9998 8.1676 27.9998 12.7574V19.2427C27.9998 23.8324 27.9998 26.1273 26.49 27.3157C24.9802 28.5043 22.7205 27.9883 18.2009 26.9561L14.5641 26.1257C13.8077 25.9529 13.4296 25.8667 13.1105 25.7333C11.8579 25.2099 10.9597 24.0927 10.726 22.7672C10.6665 22.4299 10.6665 22.1005 10.6665 21.3333" stroke="#B0C9E2" stroke-width="2" stroke-linecap="round" stroke-linejoin="round"/>
<path d="M17.3333 12C17.3333 12 21.3333 14.946 21.3333 16C21.3333 17.0541 17.3333 20 17.3333 20M20.6667 16H4" stroke="#B0C9E2" stroke-width="2" stroke-linecap="round" stroke-linejoin="round"/>
</svg>
