<svg width="32" height="32" viewBox="0 0 32 32" fill="none" xmlns="http://www.w3.org/2000/svg">
<path fill-rule="evenodd" clip-rule="evenodd" d="M1.6665 16.0001C1.6665 8.084 8.08376 1.66675 15.9998 1.66675C23.916 1.66675 30.3332 8.084 30.3332 16.0001C30.3332 23.9162 23.916 30.3334 15.9998 30.3334C8.08376 30.3334 1.6665 23.9162 1.6665 16.0001Z" fill="#004280"/>
<path d="M22.5924 9.87636C23.0291 9.2836 23.8641 9.15627 24.4571 9.59251L24.4596 9.59381C24.4604 9.59437 24.4611 9.59553 24.4623 9.59641C24.4653 9.59865 24.4697 9.60276 24.4752 9.60684C24.4864 9.61505 24.5028 9.62664 24.5235 9.64199C24.5647 9.67269 24.6239 9.71792 24.6992 9.7748C24.8499 9.88856 25.0641 10.0514 25.3203 10.2514C25.8315 10.6502 26.5172 11.2006 27.2071 11.7995C27.8904 12.3928 28.608 13.0607 29.1653 13.6915C29.4425 14.0053 29.7091 14.3407 29.9128 14.6785C30.0944 14.9798 30.3333 15.453 30.3333 16.0001C30.3333 16.547 30.0944 17.0203 29.9128 17.3217C29.7091 17.6595 29.4425 17.995 29.1653 18.3087C28.608 18.9394 27.8904 19.6073 27.2071 20.2006C26.5172 20.7995 25.8315 21.3499 25.3203 21.7487C25.064 21.9487 24.8499 22.1115 24.6992 22.2254C24.6239 22.2822 24.5647 22.3274 24.5235 22.3582C24.5028 22.3735 24.4864 22.3851 24.4752 22.3933C24.4697 22.3974 24.4652 22.4002 24.4623 22.4025C24.4608 22.4035 24.4605 22.4057 24.4596 22.4063H24.4571C23.8641 22.8425 23.0303 22.7165 22.5937 22.1238C22.1571 21.5309 22.2833 20.6959 22.8763 20.2591L22.8789 20.2579C22.8809 20.2563 22.8837 20.2533 22.888 20.2501C22.8971 20.2434 22.9113 20.2338 22.9297 20.2201C22.9667 20.1926 23.022 20.151 23.0924 20.0977C23.2335 19.9913 23.4363 19.8371 23.6797 19.6473C24.1685 19.2657 24.8163 18.7462 25.4596 18.1875C25.7876 17.9029 26.1059 17.6135 26.3984 17.3334H12.3333C11.597 17.3334 11 16.7365 11 16.0001C11 15.2637 11.597 14.6667 12.3333 14.6667H26.3984C26.1057 14.3867 25.7876 14.0973 25.4596 13.8126C24.8163 13.254 24.1685 12.7344 23.6797 12.3529C23.4363 12.163 23.2335 12.0089 23.0924 11.9024C23.022 11.8492 22.9667 11.8075 22.9297 11.78C22.9113 11.7664 22.8971 11.7568 22.888 11.7501C22.8837 11.7469 22.8809 11.7438 22.8789 11.7423L22.8763 11.7409C22.2836 11.3044 22.1563 10.4693 22.5924 9.87636Z" fill="#B0C9E2"/>
</svg>
