<svg width="33" height="31" viewBox="0 0 332 317" fill="none" xmlns="http://www.w3.org/2000/svg">
<path d="M0.231244 91.476V30.4479L52.9383 0L105.711 30.4479V91.476L52.9383 121.924L0.231244 91.476ZM226.52 91.476V30.4479L279.227 0L332 30.4479V91.476L279.227 121.924L226.52 91.476ZM0 286.552V225.524L52.7071 195.076L105.48 225.524V286.552L52.7071 317L0 286.552ZM226.316 286.552V225.524L279.023 195.076L331.796 225.524V286.552L279.023 317L226.316 286.552ZM56.9906 189.493V128.471L109.698 98.023L162.471 128.471V189.493L109.698 219.947L56.9906 189.493ZM170.278 189.493V128.471L222.985 98.023L275.758 128.471V189.493L222.985 219.947L170.278 189.493Z" fill="#86EE02"/>
</svg>
