<svg width="32" height="32" viewBox="0 0 32 32" fill="none" xmlns="http://www.w3.org/2000/svg">
<path d="M18.9604 2.43022C17.0133 2.3008 14.9824 2.30106 13.0394 2.43022C6.9505 2.83497 2.11946 7.75002 1.72223 13.8964C1.64793 15.0463 1.64793 16.2356 1.72223 17.3855C1.87013 19.674 2.86847 21.7386 3.97825 23.4138C4.31069 24.0558 4.13747 25.0187 3.5157 26.197L3.48706 26.2512C3.27815 26.6468 3.07365 27.0342 2.95567 27.3644C2.83067 27.7143 2.70147 28.2699 3.02371 28.8193C3.31978 29.3241 3.79283 29.509 4.17519 29.583C4.49265 29.6444 4.8819 29.6537 5.24709 29.6625L5.30806 29.6639C7.20106 29.7099 8.53498 29.1634 9.59157 28.3843C9.80127 28.2297 9.94529 28.1238 10.0537 28.0493C10.2114 28.1071 10.4269 28.1955 10.7444 28.3263C11.4662 28.6235 12.2861 28.8017 13.0394 28.8518C14.9824 28.9809 17.0133 28.9811 18.9604 28.8518C25.0492 28.447 29.8802 23.5319 30.2774 17.3855C30.3517 16.2356 30.3517 15.0463 30.2774 13.8964C29.8802 7.75002 25.0492 2.83497 18.9604 2.43022Z" fill="#004280"/>
<path fill-rule="evenodd" clip-rule="evenodd" d="M16.0102 11.3334C15.1073 11.3334 14.6769 11.9423 14.6769 12.3444C14.6769 13.0808 14.08 13.6777 13.3436 13.6777C12.6072 13.6777 12.0103 13.0808 12.0103 12.3444C12.0103 10.1571 13.9677 8.66675 16.0102 8.66675C18.0528 8.66675 20.0102 10.1571 20.0102 12.3444C20.0102 13.1151 19.7522 13.8223 19.3304 14.3987C19.0837 14.7357 18.7996 15.0519 18.551 15.3234C18.5041 15.3747 18.4584 15.4245 18.414 15.4729C18.2081 15.6969 18.0277 15.8931 17.8606 16.095C17.4324 16.6125 17.3436 16.8817 17.3436 17.033V17.6191C17.3436 18.3555 16.7466 18.9525 16.0102 18.9525C15.2738 18.9525 14.6769 18.3555 14.6769 17.6191V17.033C14.6769 15.8897 15.3117 14.9925 15.8064 14.3947C16.022 14.1343 16.2586 13.8769 16.4654 13.6521C16.5062 13.6077 16.5458 13.5646 16.584 13.523C16.831 13.253 17.0266 13.0313 17.1785 12.8237C17.2913 12.6696 17.3436 12.5071 17.3436 12.3444C17.3436 11.9423 16.9132 11.3334 16.0102 11.3334ZM14.6769 22.0001C14.6769 21.2637 15.2738 20.6667 16.0102 20.6667H16.0262C16.7626 20.6667 17.3596 21.2637 17.3596 22.0001C17.3596 22.7365 16.7626 23.3334 16.0262 23.3334H16.0102C15.2738 23.3334 14.6769 22.7365 14.6769 22.0001Z" fill="#B0C9E2"/>
</svg>
