<svg width="20" height="20" viewBox="0 0 20 20" fill="none" xmlns="http://www.w3.org/2000/svg">
  <path
    d="M2.5 7.74551C2.49961 7.15466 2.61576 6.56954 2.84183 6.02365C3.06789 5.47775 3.39941 4.98182 3.81741 4.56423C4.23541 4.14665 4.73168 3.81562 5.2778 3.59011C5.82392 3.36459 6.40915 3.24902 7 3.25001H13C15.4848 3.25001 17.5 5.27126 17.5 7.74551V16.75H7C4.51525 16.75 2.5 14.7288 2.5 12.2545V7.74551ZM16 15.25V7.74551C15.998 6.95088 15.6812 6.18943 15.1189 5.62797C14.5565 5.0665 13.7946 4.7508 13 4.75001H7C6.60614 4.74902 6.21595 4.82579 5.85182 4.97593C5.48769 5.12606 5.15678 5.3466 4.87807 5.62489C4.59936 5.90319 4.37832 6.23377 4.22764 6.59767C4.07696 6.96157 3.9996 7.35164 4 7.74551V12.2545C4.00199 13.0491 4.31884 13.8106 4.88114 14.372C5.44345 14.9335 6.20537 15.2492 7 15.25H16ZM11.5 9.25001H13V10.75H11.5V9.25001ZM7 9.25001H8.5V10.75H7V9.25001Z"
    fill="#A4A4A4" />
</svg>