<svg  viewBox="0 0 200 68" fill="none" xmlns="http://www.w3.org/2000/svg">
<path d="M56.7295 64.1795C56.6453 64.1795 56.5718 64.1479 56.5087 64.0845C56.4456 64.0211 56.4141 63.947 56.4141 63.8627C56.4141 63.8098 56.4245 63.7518 56.4456 63.6885L60.4359 53.4078C60.4778 53.302 60.5305 53.2228 60.5936 53.1702C60.6671 53.1173 60.7671 53.091 60.8933 53.091H61.4295C61.5557 53.091 61.6503 53.1173 61.7134 53.1702C61.7869 53.2228 61.8449 53.302 61.8869 53.4078L65.8771 63.6885C65.8983 63.7518 65.9087 63.8098 65.9087 63.8627C65.9087 63.947 65.8772 64.0211 65.8141 64.0845C65.751 64.1479 65.6775 64.1795 65.5933 64.1795H65.2778C65.1728 64.1795 65.0939 64.1529 65.0412 64.1003C64.9886 64.037 64.952 63.9841 64.9308 63.9419L63.953 61.4074H58.3698L57.3919 63.9419C57.3815 63.9841 57.3446 64.037 57.2815 64.1003C57.2288 64.1529 57.15 64.1795 57.0449 64.1795H56.7295ZM58.7483 60.457H63.5745L61.1614 54.2157L58.7483 60.457ZM67.9178 64.1795C67.8127 64.1795 67.7285 64.1479 67.6654 64.0845C67.6023 64.0211 67.5708 63.9365 67.5708 63.831V56.2909C67.5708 56.185 67.6023 56.1008 67.6654 56.0374C67.7285 55.974 67.8127 55.9424 67.9178 55.9424H68.1859C68.2912 55.9424 68.3751 55.974 68.4382 56.0374C68.5013 56.1008 68.5329 56.185 68.5329 56.2909V57.0354C68.8167 56.6656 69.1587 56.3647 69.558 56.1324C69.9681 55.8999 70.5097 55.7839 71.1825 55.7839C71.8976 55.7839 72.4916 55.9424 72.9647 56.2592C73.4486 56.5652 73.806 56.9878 74.0372 57.5264C74.2792 58.0542 74.4 58.6562 74.4 59.3323V63.831C74.4 63.9365 74.3684 64.0211 74.3053 64.0845C74.2423 64.1479 74.1584 64.1795 74.053 64.1795H73.7849C73.6798 64.1795 73.5956 64.1479 73.5325 64.0845C73.4694 64.0211 73.4379 63.9365 73.4379 63.831V59.4115C73.4379 58.5665 73.2329 57.9066 72.8228 57.4314C72.4127 56.9454 71.8134 56.7027 71.0248 56.7027C70.2785 56.7027 69.6738 56.9454 69.211 57.4314C68.759 57.9066 68.5329 58.5665 68.5329 59.4115V63.831C68.5329 63.9365 68.5013 64.0211 68.4382 64.0845C68.3751 64.1479 68.2912 64.1795 68.1859 64.1795H67.9178ZM81.4919 64.1795C81.3869 64.1795 81.3027 64.1479 81.2396 64.0845C81.1765 64.0211 81.1449 63.9365 81.1449 63.831V53.4395C81.1449 53.3337 81.1765 53.2494 81.2396 53.1861C81.3027 53.1227 81.3869 53.091 81.4919 53.091H81.7916C81.8966 53.091 81.9808 53.1227 82.0439 53.1861C82.107 53.2494 82.1386 53.3337 82.1386 53.4395V63.831C82.1386 63.9365 82.107 64.0211 82.0439 64.0845C81.9808 64.1479 81.8966 64.1795 81.7916 64.1795H81.4919ZM85.2453 64.1795C85.1402 64.1795 85.056 64.1479 84.9929 64.0845C84.9298 64.0211 84.8983 63.9365 84.8983 63.831V56.2909C84.8983 56.185 84.9298 56.1008 84.9929 56.0374C85.056 55.974 85.1402 55.9424 85.2453 55.9424H85.5134C85.6184 55.9424 85.7027 55.974 85.7657 56.0374C85.8288 56.1008 85.8604 56.185 85.8604 56.2909V57.0354C86.1443 56.6656 86.4859 56.3647 86.8855 56.1324C87.2956 55.8999 87.8372 55.7839 88.51 55.7839C89.2251 55.7839 89.8191 55.9424 90.2923 56.2592C90.7758 56.5652 91.1335 56.9878 91.3647 57.5264C91.6067 58.0542 91.7275 58.6562 91.7275 59.3323V63.831C91.7275 63.9365 91.6959 64.0211 91.6329 64.0845C91.5698 64.1479 91.4855 64.1795 91.3805 64.1795H91.1124C91.0074 64.1795 90.9231 64.1479 90.86 64.0845C90.797 64.0211 90.7654 63.9365 90.7654 63.831V59.4115C90.7654 58.5665 90.5604 57.9066 90.1503 57.4314C89.7402 56.9454 89.1409 56.7027 88.3523 56.7027C87.6057 56.7027 87.0013 56.9454 86.5386 57.4314C86.0866 57.9066 85.8604 58.5665 85.8604 59.4115V63.831C85.8604 63.9365 85.8288 64.0211 85.7657 64.0845C85.7027 64.1479 85.6184 64.1795 85.5134 64.1795H85.2453ZM97.3084 64.3379C96.5721 64.3379 95.9466 64.1954 95.4315 63.9102C94.9161 63.6143 94.5218 63.192 94.2486 62.643C93.9855 62.0936 93.8436 61.4441 93.8228 60.6946C93.8121 60.5362 93.807 60.3248 93.807 60.0609C93.807 59.7967 93.8121 59.5857 93.8228 59.4273C93.8436 58.667 93.9855 58.0175 94.2486 57.4789C94.5218 56.9295 94.9161 56.5126 95.4315 56.2275C95.9466 55.9316 96.5721 55.7839 97.3084 55.7839C97.8654 55.7839 98.3439 55.8632 98.7436 56.0216C99.1537 56.1692 99.4899 56.3701 99.753 56.6235C100.016 56.8662 100.215 57.1355 100.352 57.4314C100.489 57.727 100.562 58.0175 100.573 58.3026C100.584 58.4081 100.552 58.4927 100.478 58.5561C100.405 58.6194 100.321 58.6511 100.226 58.6511H100.005C99.9 58.6511 99.8211 58.6299 99.7688 58.5878C99.7265 58.5348 99.6792 58.4452 99.6268 58.3185C99.406 57.7165 99.101 57.2993 98.7121 57.067C98.3335 56.824 97.8654 56.7027 97.3084 56.7027C96.5933 56.7027 95.9993 56.9245 95.5261 57.368C95.0634 57.8008 94.8164 58.5136 94.7849 59.5065C94.7637 59.8759 94.7637 60.2456 94.7849 60.6154C94.8164 61.6079 95.0634 62.3262 95.5261 62.7697C95.9993 63.2025 96.5933 63.4192 97.3084 63.4192C97.8654 63.4192 98.3335 63.3029 98.7121 63.0707C99.101 62.8277 99.406 62.4054 99.6268 61.8034C99.6792 61.6767 99.7265 61.5921 99.7688 61.55C99.8211 61.4971 99.9 61.4708 100.005 61.4708H100.226C100.321 61.4708 100.405 61.5025 100.478 61.5658C100.552 61.6292 100.584 61.7134 100.573 61.8193C100.562 62.0515 100.515 62.2837 100.431 62.5163C100.347 62.7485 100.215 62.9756 100.037 63.1974C99.8684 63.4192 99.6584 63.6143 99.406 63.7835C99.1537 63.9524 98.8486 64.0845 98.4912 64.1795C98.1443 64.285 97.75 64.3379 97.3084 64.3379ZM105.78 64.3379C105.023 64.3379 104.387 64.1795 103.871 63.8627C103.367 63.5459 102.978 63.1128 102.704 62.5638C102.442 62.0144 102.3 61.402 102.278 60.7263C102.268 60.5679 102.263 60.3461 102.263 60.0609C102.263 59.7758 102.268 59.554 102.278 59.3956C102.3 58.7091 102.442 58.0967 102.704 57.5581C102.978 57.0087 103.367 56.576 103.871 56.2592C104.387 55.9424 105.023 55.7839 105.78 55.7839C106.537 55.7839 107.168 55.9424 107.672 56.2592C108.188 56.576 108.577 57.0087 108.84 57.5581C109.113 58.0967 109.26 58.7091 109.281 59.3956C109.292 59.554 109.297 59.7758 109.297 60.0609C109.297 60.3461 109.292 60.5679 109.281 60.7263C109.26 61.402 109.113 62.0144 108.84 62.5638C108.577 63.1128 108.188 63.5459 107.672 63.8627C107.168 64.1795 106.537 64.3379 105.78 64.3379ZM105.78 63.4192C106.516 63.4192 107.115 63.1816 107.578 62.7064C108.041 62.2311 108.288 61.5446 108.319 60.6471C108.33 60.4886 108.335 60.2932 108.335 60.0609C108.335 59.8284 108.33 59.6332 108.319 59.4748C108.288 58.5665 108.041 57.88 107.578 57.4155C107.115 56.9403 106.516 56.7027 105.78 56.7027C105.044 56.7027 104.445 56.9403 103.982 57.4155C103.519 57.88 103.272 58.5665 103.241 59.4748C103.23 59.6332 103.225 59.8284 103.225 60.0609C103.225 60.2932 103.23 60.4886 103.241 60.6471C103.272 61.5446 103.519 62.2311 103.982 62.7064C104.445 63.1816 105.044 63.4192 105.78 63.4192ZM114.417 64.3379C113.807 64.3379 113.287 64.2271 112.855 64.0053C112.435 63.7835 112.093 63.4876 111.83 63.1182C111.567 62.7485 111.373 62.3366 111.247 61.8826C111.131 61.4283 111.063 60.9689 111.042 60.5045C111.031 60.3461 111.026 60.1981 111.026 60.0609C111.026 59.9234 111.031 59.7758 111.042 59.6174C111.063 59.1526 111.131 58.6933 111.247 58.2393C111.373 57.7849 111.567 57.3731 111.83 57.0037C112.093 56.634 112.435 56.3384 112.855 56.1166C113.287 55.8948 113.807 55.7839 114.417 55.7839C115.069 55.7839 115.605 55.9053 116.025 56.1483C116.457 56.391 116.804 56.6869 117.066 57.0354V53.2811C117.066 53.1753 117.098 53.091 117.161 53.0277C117.224 52.9643 117.308 52.9326 117.413 52.9326H117.682C117.787 52.9326 117.871 52.9643 117.934 53.0277C117.997 53.091 118.029 53.1753 118.029 53.2811V63.831C118.029 63.9365 117.997 64.0211 117.934 64.0845C117.871 64.1479 117.787 64.1795 117.682 64.1795H117.413C117.308 64.1795 117.224 64.1479 117.161 64.0845C117.098 64.0211 117.066 63.9365 117.066 63.831V63.0865C116.804 63.4455 116.457 63.7465 116.025 63.9895C115.605 64.2217 115.069 64.3379 114.417 64.3379ZM114.511 63.4192C115.111 63.4192 115.594 63.2766 115.962 62.9915C116.331 62.7064 116.604 62.3525 116.783 61.9302C116.961 61.4971 117.056 61.064 117.066 60.6312C117.077 60.4728 117.082 60.2669 117.082 60.0134C117.082 59.76 117.077 59.554 117.066 59.3956C117.056 58.973 116.956 58.5561 116.767 58.1442C116.588 57.7324 116.315 57.3889 115.947 57.1146C115.578 56.8399 115.1 56.7027 114.511 56.7027C113.902 56.7027 113.413 56.8399 113.045 57.1146C112.687 57.3889 112.43 57.7482 112.272 58.1917C112.114 58.6353 112.025 59.1105 112.004 59.6174C111.993 59.913 111.993 60.2086 112.004 60.5045C112.025 61.0114 112.114 61.4866 112.272 61.9302C112.43 62.3737 112.687 62.7326 113.045 63.0073C113.413 63.2817 113.902 63.4192 114.511 63.4192ZM123.645 64.3379C122.624 64.3379 121.815 64.0053 121.216 63.34C120.616 62.6639 120.274 61.7822 120.191 60.6946C120.18 60.5362 120.175 60.3248 120.175 60.0609C120.175 59.7967 120.18 59.5857 120.191 59.4273C120.243 58.7091 120.411 58.0755 120.695 57.5264C120.979 56.9771 121.368 56.5494 121.862 56.2433C122.367 55.937 122.961 55.7839 123.645 55.7839C124.381 55.7839 125.006 55.9474 125.521 56.275C126.037 56.6023 126.431 57.0721 126.704 57.6848C126.988 58.2972 127.13 59.0259 127.13 59.8709V60.1085C127.13 60.214 127.093 60.2986 127.02 60.3619C126.957 60.4253 126.872 60.457 126.767 60.457H121.153C121.153 60.457 121.153 60.4779 121.153 60.5203C121.153 60.5625 121.153 60.5941 121.153 60.6154C121.173 61.0906 121.284 61.5446 121.484 61.9777C121.684 62.4 121.967 62.7485 122.336 63.0232C122.703 63.2871 123.14 63.4192 123.645 63.4192C124.097 63.4192 124.47 63.3504 124.764 63.2133C125.069 63.0757 125.311 62.9281 125.49 62.7697C125.668 62.6005 125.784 62.4738 125.837 62.3895C125.932 62.252 126.005 62.1728 126.058 62.1519C126.11 62.1202 126.194 62.1044 126.31 62.1044H126.562C126.657 62.1044 126.736 62.1361 126.799 62.1994C126.872 62.252 126.904 62.3262 126.894 62.4212C126.883 62.5688 126.799 62.7539 126.641 62.9756C126.494 63.1866 126.278 63.398 125.995 63.6093C125.721 63.8203 125.385 63.9945 124.985 64.132C124.586 64.2692 124.139 64.3379 123.645 64.3379ZM121.153 59.5699H126.168V59.5065C126.168 58.9784 126.068 58.5032 125.868 58.0809C125.668 57.6582 125.38 57.3256 125.001 57.0829C124.622 56.8294 124.17 56.7027 123.645 56.7027C123.119 56.7027 122.667 56.8294 122.288 57.0829C121.92 57.3256 121.636 57.6582 121.437 58.0809C121.247 58.5032 121.153 58.9784 121.153 59.5065V59.5699ZM137.219 64.3379C136.263 64.3379 135.479 64.1529 134.869 63.7835C134.27 63.4033 133.823 62.8911 133.529 62.247C133.235 61.6026 133.071 60.8688 133.04 60.0451C133.03 59.612 133.024 59.1472 133.024 58.6511C133.024 58.1547 133.03 57.6794 133.04 57.2255C133.071 56.4017 133.235 55.6677 133.529 55.0236C133.823 54.3687 134.27 53.8564 134.869 53.487C135.479 53.1173 136.263 52.9326 137.219 52.9326C137.966 52.9326 138.602 53.0381 139.128 53.2494C139.654 53.4604 140.08 53.7405 140.405 54.089C140.742 54.4267 140.989 54.7964 141.147 55.1978C141.315 55.5885 141.409 55.974 141.431 56.3542C141.441 56.4493 141.409 56.5285 141.336 56.5918C141.273 56.6444 141.194 56.671 141.099 56.671H140.784C140.7 56.671 140.626 56.6498 140.563 56.6077C140.5 56.5548 140.458 56.4651 140.437 56.3384C140.237 55.3984 139.859 54.7543 139.301 54.4058C138.755 54.0573 138.061 53.8831 137.219 53.8831C136.263 53.8831 135.5 54.1574 134.933 54.7068C134.375 55.2454 134.075 56.1112 134.034 57.3047C134.002 58.1705 134.002 59.0576 134.034 59.9659C134.075 61.159 134.375 62.0303 134.933 62.5796C135.5 63.1182 136.263 63.3875 137.219 63.3875C138.061 63.3875 138.755 63.2133 139.301 62.8648C139.859 62.5163 140.237 61.8719 140.437 60.9322C140.458 60.8055 140.5 60.7209 140.563 60.6787C140.626 60.6258 140.7 60.5995 140.784 60.5995H141.099C141.194 60.5995 141.273 60.6312 141.336 60.6946C141.409 60.7472 141.441 60.8213 141.431 60.9163C141.409 61.2965 141.315 61.6872 141.147 62.0886C140.989 62.4792 140.742 62.8489 140.405 63.1974C140.08 63.5351 139.654 63.8098 139.128 64.0211C138.602 64.2321 137.966 64.3379 137.219 64.3379ZM146.672 64.3379C145.915 64.3379 145.28 64.1795 144.764 63.8627C144.259 63.5459 143.87 63.1128 143.597 62.5638C143.334 62.0144 143.192 61.402 143.171 60.7263C143.161 60.5679 143.155 60.3461 143.155 60.0609C143.155 59.7758 143.161 59.554 143.171 59.3956C143.192 58.7091 143.334 58.0967 143.597 57.5581C143.87 57.0087 144.259 56.576 144.764 56.2592C145.28 55.9424 145.915 55.7839 146.672 55.7839C147.43 55.7839 148.06 55.9424 148.565 56.2592C149.081 56.576 149.469 57.0087 149.732 57.5581C150.006 58.0967 150.153 58.7091 150.174 59.3956C150.185 59.554 150.19 59.7758 150.19 60.0609C150.19 60.3461 150.185 60.5679 150.174 60.7263C150.153 61.402 150.006 62.0144 149.732 62.5638C149.469 63.1128 149.081 63.5459 148.565 63.8627C148.06 64.1795 147.43 64.3379 146.672 64.3379ZM146.672 63.4192C147.409 63.4192 148.008 63.1816 148.47 62.7064C148.933 62.2311 149.18 61.5446 149.212 60.6471C149.222 60.4886 149.227 60.2932 149.227 60.0609C149.227 59.8284 149.222 59.6332 149.212 59.4748C149.18 58.5665 148.933 57.88 148.47 57.4155C148.008 56.9403 147.409 56.7027 146.672 56.7027C145.937 56.7027 145.337 56.9403 144.874 57.4155C144.412 57.88 144.165 58.5665 144.133 59.4748C144.123 59.6332 144.117 59.8284 144.117 60.0609C144.117 60.2932 144.123 60.4886 144.133 60.6471C144.165 61.5446 144.412 62.2311 144.874 62.7064C145.337 63.1816 145.937 63.4192 146.672 63.4192ZM152.691 64.1795C152.586 64.1795 152.502 64.1479 152.439 64.0845C152.376 64.0211 152.344 63.9365 152.344 63.831V56.2909C152.344 56.185 152.376 56.1008 152.439 56.0374C152.502 55.974 152.586 55.9424 152.691 55.9424H152.959C153.065 55.9424 153.149 55.974 153.212 56.0374C153.275 56.1008 153.306 56.185 153.306 56.2909V56.8453C153.569 56.5072 153.88 56.2484 154.237 56.0691C154.605 55.879 155.047 55.7839 155.562 55.7839C156.74 55.7839 157.581 56.2801 158.085 57.273C158.327 56.8187 158.68 56.4597 159.142 56.1958C159.615 55.9211 160.157 55.7839 160.766 55.7839C161.324 55.7839 161.823 55.9157 162.265 56.18C162.717 56.4334 163.069 56.8136 163.321 57.3205C163.585 57.8274 163.716 58.461 163.716 59.2214V63.831C163.716 63.9365 163.684 64.0211 163.621 64.0845C163.558 64.1479 163.474 64.1795 163.369 64.1795H163.101C162.996 64.1795 162.911 64.1479 162.848 64.0845C162.785 64.0211 162.754 63.9365 162.754 63.831V59.3798C162.754 58.6828 162.654 58.1442 162.454 57.764C162.254 57.3731 161.992 57.0987 161.665 56.9403C161.34 56.7819 160.987 56.7027 160.609 56.7027C160.293 56.7027 159.973 56.7819 159.647 56.9403C159.321 57.0987 159.047 57.3731 158.826 57.764C158.616 58.1442 158.511 58.6828 158.511 59.3798V63.831C158.511 63.9365 158.48 64.0211 158.416 64.0845C158.353 64.1479 158.269 64.1795 158.164 64.1795H157.896C157.791 64.1795 157.707 64.1479 157.644 64.0845C157.581 64.0211 157.549 63.9365 157.549 63.831V59.3798C157.549 58.6828 157.444 58.1442 157.234 57.764C157.023 57.3731 156.755 57.0987 156.429 56.9403C156.103 56.7819 155.762 56.7027 155.404 56.7027C155.089 56.7027 154.768 56.7819 154.442 56.9403C154.116 57.0987 153.843 57.3731 153.622 57.764C153.412 58.1442 153.306 58.6774 153.306 59.364V63.831C153.306 63.9365 153.275 64.0211 153.212 64.0845C153.149 64.1479 153.065 64.1795 152.959 64.1795H152.691ZM166.554 67.1893C166.449 67.1893 166.364 67.1576 166.301 67.0942C166.238 67.0309 166.207 66.9463 166.207 66.8408V56.2909C166.207 56.185 166.238 56.1008 166.301 56.0374C166.364 55.974 166.449 55.9424 166.554 55.9424H166.822C166.927 55.9424 167.011 55.974 167.074 56.0374C167.137 56.1008 167.169 56.185 167.169 56.2909V57.0354C167.432 56.6761 167.773 56.3805 168.194 56.1483C168.625 55.9053 169.166 55.7839 169.818 55.7839C170.439 55.7839 170.959 55.8948 171.38 56.1166C171.8 56.3276 172.142 56.6127 172.405 56.972C172.668 57.331 172.862 57.7324 172.989 58.1759C173.115 58.6194 173.183 59.0734 173.194 59.5382C173.204 59.6966 173.209 59.8709 173.209 60.0609C173.209 60.251 173.204 60.4253 173.194 60.5837C173.183 61.0481 173.115 61.5025 172.989 61.946C172.862 62.3895 172.668 62.7906 172.405 63.1499C172.142 63.5088 171.8 63.7994 171.38 64.0211C170.959 64.2321 170.439 64.3379 169.818 64.3379C169.166 64.3379 168.625 64.2163 168.194 63.9736C167.773 63.7306 167.432 63.435 167.169 63.0865V66.8408C167.169 66.9463 167.137 67.0309 167.074 67.0942C167.011 67.1576 166.927 67.1893 166.822 67.1893H166.554ZM169.724 63.4192C170.344 63.4192 170.833 63.2817 171.191 63.0073C171.548 62.7326 171.806 62.3737 171.963 61.9302C172.121 61.4866 172.21 61.0114 172.232 60.5045C172.242 60.2086 172.242 59.913 172.232 59.6174C172.21 59.1105 172.121 58.6353 171.963 58.1917C171.806 57.7482 171.548 57.3889 171.191 57.1146C170.833 56.8399 170.344 56.7027 169.724 56.7027C169.124 56.7027 168.641 56.8453 168.273 57.1304C167.905 57.4155 167.632 57.7745 167.453 58.2076C167.285 58.6299 167.19 59.0576 167.169 59.4907C167.158 59.6491 167.153 59.855 167.153 60.1085C167.153 60.3619 167.158 60.5679 167.169 60.7263C167.179 61.1486 167.274 61.5658 167.453 61.9777C167.642 62.3895 167.92 62.7326 168.289 63.0073C168.667 63.2817 169.146 63.4192 169.724 63.4192ZM177.563 64.3379C177.059 64.3379 176.591 64.2321 176.16 64.0211C175.739 63.8098 175.397 63.5301 175.135 63.1816C174.871 62.8223 174.74 62.4212 174.74 61.9777C174.74 61.2595 175.029 60.6838 175.608 60.251C176.186 59.8179 176.938 59.5382 177.863 59.4115L180.355 59.063V58.5086C180.355 57.9487 180.182 57.5106 179.835 57.1938C179.498 56.8662 178.956 56.7027 178.21 56.7027C177.663 56.7027 177.221 56.8136 176.885 57.0354C176.549 57.2464 176.317 57.5264 176.191 57.8749C176.139 58.0333 176.039 58.1125 175.892 58.1125H175.639C175.513 58.1125 175.423 58.0809 175.371 58.0175C175.318 57.9433 175.292 57.8591 175.292 57.764C175.292 57.6161 175.345 57.4314 175.45 57.2096C175.565 56.9878 175.739 56.7711 175.97 56.5601C176.202 56.3384 176.501 56.1533 176.869 56.0057C177.237 55.8578 177.684 55.7839 178.21 55.7839C178.83 55.7839 179.34 55.8682 179.74 56.0374C180.15 56.2063 180.465 56.428 180.686 56.7027C180.917 56.9666 181.081 57.2622 181.175 57.5898C181.27 57.9171 181.317 58.2393 181.317 58.5561V63.831C181.317 63.9365 181.286 64.0211 181.222 64.0845C181.159 64.1479 181.075 64.1795 180.97 64.1795H180.702C180.597 64.1795 180.513 64.1479 180.45 64.0845C180.387 64.0211 180.355 63.9365 180.355 63.831V63.0865C180.229 63.2766 180.05 63.4667 179.819 63.6568C179.587 63.8469 179.288 64.0104 178.92 64.1479C178.562 64.2746 178.11 64.3379 177.563 64.3379ZM177.721 63.4192C178.205 63.4192 178.646 63.3134 179.046 63.1024C179.445 62.891 179.761 62.5688 179.992 62.1361C180.234 61.6925 180.355 61.1381 180.355 60.4728V59.9342L178.32 60.2194C177.458 60.3353 176.806 60.5362 176.365 60.8213C175.923 61.1064 175.702 61.4654 175.702 61.8985C175.702 62.247 175.802 62.5321 176.002 62.7539C176.202 62.9756 176.454 63.1445 176.759 63.2608C177.074 63.3663 177.395 63.4192 177.721 63.4192ZM184.158 64.1795C184.053 64.1795 183.969 64.1479 183.906 64.0845C183.843 64.0211 183.811 63.9365 183.811 63.831V56.2909C183.811 56.185 183.843 56.1008 183.906 56.0374C183.969 55.974 184.053 55.9424 184.158 55.9424H184.426C184.531 55.9424 184.615 55.974 184.678 56.0374C184.742 56.1008 184.773 56.185 184.773 56.2909V57.0354C185.057 56.6656 185.399 56.3647 185.798 56.1324C186.208 55.8999 186.75 55.7839 187.423 55.7839C188.138 55.7839 188.732 55.9424 189.205 56.2592C189.689 56.5652 190.046 56.9878 190.277 57.5264C190.519 58.0542 190.64 58.6562 190.64 59.3323V63.831C190.64 63.9365 190.609 64.0211 190.546 64.0845C190.483 64.1479 190.398 64.1795 190.293 64.1795H190.025C189.92 64.1795 189.836 64.1479 189.773 64.0845C189.71 64.0211 189.678 63.9365 189.678 63.831V59.4115C189.678 58.5665 189.473 57.9066 189.063 57.4314C188.653 56.9454 188.054 56.7027 187.265 56.7027C186.518 56.7027 185.914 56.9454 185.451 57.4314C184.999 57.9066 184.773 58.5665 184.773 59.4115V63.831C184.773 63.9365 184.742 64.0211 184.678 64.0845C184.615 64.1479 184.531 64.1795 184.426 64.1795H184.158ZM194.271 67.1893C194.187 67.1893 194.113 67.1576 194.05 67.0942C193.987 67.0309 193.955 66.9567 193.955 66.8725C193.955 66.83 193.961 66.7825 193.971 66.7299C193.992 66.6874 194.018 66.6295 194.05 66.5557L195.264 63.7043L192.252 56.576C192.189 56.4176 192.157 56.3117 192.157 56.2592C192.157 56.1746 192.189 56.1008 192.252 56.0374C192.315 55.974 192.389 55.9424 192.473 55.9424H192.804C192.909 55.9424 192.988 55.9686 193.041 56.0216C193.104 56.0637 193.146 56.1166 193.167 56.18L195.816 62.4529L198.529 56.18C198.561 56.1166 198.603 56.0637 198.655 56.0216C198.708 55.9686 198.787 55.9424 198.892 55.9424H199.207C199.292 55.9424 199.365 55.974 199.428 56.0374C199.491 56.1008 199.523 56.1746 199.523 56.2592C199.523 56.3117 199.491 56.4176 199.428 56.576L194.949 66.9517C194.917 67.015 194.875 67.0676 194.823 67.1101C194.77 67.1627 194.691 67.1893 194.586 67.1893H194.271Z" fill="white"/>
<path d="M52.5182 10.7004C50.8896 9.56543 48.9155 9.00757 46.5775 9.00757C44.2396 9.00757 42.5339 9.52698 40.9628 10.585C39.3913 11.643 38.1457 13.105 37.245 14.9902C36.3443 16.8755 35.8074 19.0492 35.6544 21.5307C35.6161 22.0694 35.5967 22.8003 35.5967 23.7045C35.5967 24.6086 35.5967 25.3396 35.6544 25.8783C35.9225 29.6101 36.9957 32.6496 38.893 34.9579C40.7903 37.2663 43.3581 38.4207 46.5775 38.4207C49.797 38.4207 49.548 38.1898 50.8319 37.7088C52.0967 37.2279 53.1698 36.6317 54.0514 35.9006C54.9329 35.1696 55.6229 34.4386 56.102 33.6885C56.5812 32.9381 56.8494 32.3225 56.8685 31.8032C56.9067 31.2453 56.5618 30.8413 56.0252 30.7452C55.6037 30.6682 55.048 30.6682 54.6262 30.7452C54.3772 30.7836 54.1665 30.8798 53.994 31.0721C53.8215 31.2645 53.6682 31.4761 53.5339 31.707C53.3614 31.9956 52.9973 32.4188 52.4416 32.9958C51.8668 33.5537 51.1195 34.0732 50.1611 34.5542C49.2031 35.0351 48.0148 35.2657 46.5967 35.2657C45.1786 35.2657 43.6262 34.8042 42.4574 33.8808C41.2883 32.9574 40.3876 31.7648 39.7554 30.2835C39.1229 28.8215 38.7779 27.2632 38.7014 25.6282V25.0895H56.4853C56.8111 25.0895 57.0984 24.9742 57.3094 24.7626C57.5202 24.5509 57.6353 24.2623 57.6353 23.8969V23.0889C57.6353 20.1841 57.1943 17.6833 56.3128 15.5673C55.4312 13.4512 54.1665 11.8354 52.5376 10.7196L52.5182 10.7004ZM54.5497 22.0309H38.6631V21.8193C38.6631 20.011 38.9695 18.376 39.5829 16.9139C40.196 15.4519 41.0967 14.2976 42.2849 13.4512C43.4732 12.6049 44.8913 12.1624 46.5584 12.1624C48.2255 12.1624 49.6631 12.5856 50.851 13.4512C52.0393 14.317 52.9591 15.4519 53.5913 16.9139C54.2239 18.376 54.5497 20.011 54.5497 21.8193V22.0309Z" fill="white"/>
<path d="M75.0349 35.2858H72.3329C70.838 35.2858 69.8031 34.7469 69.2091 33.6505C68.6151 32.554 68.3275 31.0536 68.3275 29.1299V12.1823H75.0158C75.3413 12.1823 75.6098 12.0668 75.8205 11.8552C76.0124 11.6436 76.1272 11.3551 76.1272 10.9896V10.2201C76.1272 9.85463 76.0316 9.56606 75.8205 9.35447C75.6098 9.14284 75.3608 9.02744 75.0158 9.02744H68.3275V1.65972C68.3275 1.29423 68.2319 1.00568 68.0208 0.794071C67.8101 0.582466 67.5611 0.467041 67.2161 0.467041H66.3729C66.047 0.467041 65.7789 0.582466 65.5682 0.794071C65.3571 1.00568 65.2614 1.31347 65.2614 1.65972V9.02744H61.3712C61.0453 9.02744 60.7772 9.14284 60.5665 9.35447C60.3749 9.56606 60.2598 9.85463 60.2598 10.2201V10.9896C60.2598 11.3551 60.3554 11.6436 60.5665 11.8552C60.7772 12.0668 61.0262 12.1823 61.3712 12.1823H65.2614V29.3415C65.2614 31.0536 65.453 32.5925 65.8554 33.9778C66.2577 35.3626 66.9477 36.459 67.9635 37.2477C68.9601 38.0559 70.3205 38.4405 72.0645 38.4405H75.0158C75.3413 38.4405 75.6098 38.3252 75.8205 38.1135C76.0316 37.9019 76.1272 37.6134 76.1272 37.2477V36.4786C76.1272 36.1129 76.0316 35.8244 75.8205 35.6127C75.6098 35.3819 75.3413 35.2858 75.0158 35.2858H75.0349Z" fill="white"/>
<path d="M99.0424 12.1432C98.3334 11.2198 97.3176 10.4696 96.0528 9.87321C94.7881 9.27689 93.1401 9.00757 91.1854 9.00757C89.2307 9.00757 88.1002 9.25765 86.931 9.77702C85.7619 10.2964 84.823 10.912 84.0948 11.6622C83.3666 12.4125 82.8109 13.1627 82.4659 13.9322C82.121 14.7016 81.9485 15.3365 81.9485 15.8367C81.9485 16.3368 82.025 16.4523 82.1975 16.6831C82.3699 16.9139 82.6384 17.0293 83.0407 17.0293H83.8454C84.3055 17.0293 84.6314 16.76 84.8038 16.2214C85.2062 15.0287 85.9344 14.0476 87.0075 13.3166C88.0807 12.5664 89.4797 12.2009 91.2045 12.2009C92.9293 12.2009 95.2864 12.7588 96.3787 13.8552C97.4518 14.971 98.0075 16.4715 98.0075 18.3952V20.2996L90.1122 21.4922C87.18 21.9347 84.8038 22.8966 82.9639 24.3778C81.1243 25.8783 80.2236 27.8404 80.2236 30.322C80.2236 32.8034 80.6451 33.2266 81.4693 34.4386C82.2934 35.6506 83.3857 36.6317 84.7465 37.3435C86.0877 38.0745 87.5632 38.4399 89.1733 38.4399C90.7827 38.4399 92.335 38.209 93.485 37.7665C94.6347 37.3051 95.574 36.7661 96.3018 36.1123C97.0303 35.4581 97.6052 34.8043 98.0075 34.1501V37.2471C98.0075 37.6128 98.1035 37.9013 98.3142 38.1129C98.525 38.3243 98.7743 38.4399 99.1193 38.4399H99.9622C100.288 38.4399 100.556 38.3243 100.767 38.1129C100.978 37.9013 101.074 37.6128 101.074 37.2471V18.549C101.074 17.4525 100.921 16.356 100.633 15.2211C100.345 14.1054 99.828 13.0665 99.1193 12.1432H99.0424ZM97.9693 25.1473C97.9693 27.4364 97.5861 29.3408 96.8387 30.8413C96.0911 32.3418 95.0756 33.4576 93.8105 34.1885C92.5461 34.9195 91.1471 35.2852 89.6139 35.2852C88.0807 35.2852 87.5632 35.0928 86.5861 34.7079C85.6089 34.3233 84.8038 33.7461 84.1713 32.9958C83.5391 32.2264 83.2132 31.2453 83.2132 30.0527C83.2132 28.86 83.9223 27.3211 85.3213 26.3399C86.7203 25.3588 88.7897 24.6663 91.5112 24.2623L97.9501 23.2813V25.128H97.9693V25.1473Z" fill="white"/>
<path d="M166.253 12.0458C165.39 11.1032 164.221 10.353 162.785 9.77584C161.327 9.21798 159.565 8.92944 157.457 8.92944C155.349 8.92944 153.872 9.19877 152.512 9.73739C151.151 10.276 150.041 10.9493 149.159 11.7188C148.296 12.5075 147.664 13.3154 147.261 14.1426C146.859 14.989 146.648 15.6815 146.609 16.2779C146.609 16.6434 146.705 16.932 146.878 17.1435C147.051 17.3552 147.338 17.4706 147.703 17.4706H151.65C152.149 17.4706 152.532 17.2398 152.799 16.7588C153.163 15.8931 153.719 15.1814 154.467 14.662C155.214 14.1426 156.192 13.8733 157.379 13.8733C159.086 13.8733 160.273 14.2966 160.982 15.1237C161.691 15.9508 162.037 17.1435 162.037 18.6632V19.7983L155.196 20.8948C152.09 21.3949 149.599 22.4145 147.721 23.9149C145.843 25.4154 144.904 27.4545 144.904 29.9937C144.904 32.533 145.307 32.9562 146.13 34.2258C146.955 35.4954 148.047 36.4765 149.446 37.2268C150.845 37.977 152.416 38.3427 154.141 38.3427C155.866 38.3427 156.805 38.1503 157.858 37.7654C158.913 37.3808 159.795 36.8998 160.522 36.3033C161.251 35.7071 161.846 35.0529 162.267 34.3606V37.0343C162.267 37.4 162.381 37.7077 162.592 37.9578C162.803 38.2079 163.11 38.3427 163.473 38.3427H167.518C167.844 38.3427 168.131 38.2079 168.361 37.9578C168.591 37.7077 168.706 37.4 168.706 37.0343V19.3751C168.706 17.9515 168.514 16.605 168.111 15.3354C167.709 14.0657 167.076 12.9499 166.214 12.0073L166.253 12.0458ZM162.113 25.5115C162.113 27.2622 161.846 28.7048 161.29 29.8399C160.734 30.9748 159.986 31.8212 159.047 32.3792C158.108 32.9369 157.035 33.1871 155.866 33.1871C154.697 33.1871 154.371 33.0524 153.662 32.7831C152.953 32.5137 152.377 32.0905 151.937 31.5327C151.497 30.9748 151.267 30.2823 151.267 29.4936C151.267 28.7048 151.746 27.5507 152.723 26.8197C153.701 26.0887 155.157 25.5693 157.111 25.2422L162.113 24.3766V25.5115Z" fill="white"/>
<path d="M199.905 21.7408C199.848 19.8555 199.579 18.1242 199.1 16.566C198.64 15.0078 197.969 13.6613 197.106 12.5071C196.245 11.3721 195.153 10.4872 193.868 9.87162C192.564 9.25602 191.033 8.94824 189.269 8.94824C187.505 8.94824 185.723 9.33297 184.421 10.0832C183.118 10.8335 182.083 11.8145 181.277 12.9687V10.3718C181.277 10.0063 181.163 9.69845 180.951 9.4484C180.741 9.19832 180.434 9.06368 180.071 9.06368H176.122C175.796 9.06368 175.509 9.19832 175.279 9.4484C175.05 9.69845 174.935 10.0063 174.935 10.3718V46.8641C174.935 47.2294 175.05 47.5371 175.279 47.7872C175.509 48.0373 175.796 48.1721 176.122 48.1721H180.377C180.741 48.1721 181.029 48.0373 181.258 47.7872C181.489 47.5371 181.584 47.2294 181.584 46.8641V34.4948C182.389 35.6488 183.424 36.5915 184.689 37.3033C185.953 38.0152 187.487 38.3613 189.288 38.3613C191.09 38.3613 192.585 38.0344 193.888 37.3802C195.19 36.7263 196.283 35.8221 197.165 34.6873C198.045 33.5329 198.717 32.2056 199.196 30.6474C199.656 29.1084 199.905 27.4155 199.943 25.6073C199.982 24.9533 200 24.2993 200 23.6452C200 22.9912 200 22.3564 199.943 21.7408H199.905ZM193.102 25.2995C193.045 26.6077 192.833 27.8003 192.469 28.8968C192.125 29.9934 191.55 30.8783 190.745 31.5323C189.939 32.2055 188.829 32.5325 187.391 32.5325C185.953 32.5325 184.976 32.2055 184.152 31.5515C183.328 30.8975 182.676 30.0703 182.255 29.0699C181.814 28.0696 181.584 27.0309 181.546 25.9343C181.507 25.2418 181.489 24.5301 181.489 23.799C181.489 23.0681 181.489 22.3756 181.546 21.7215C181.603 20.5865 181.833 19.49 182.216 18.432C182.6 17.3547 183.213 16.4891 184.057 15.7966C184.9 15.104 186.01 14.7578 187.372 14.7578C188.733 14.7578 189.92 15.104 190.725 15.7581C191.53 16.4314 192.106 17.3163 192.45 18.3935C192.795 19.49 193.006 20.6827 193.082 21.9908C193.141 23.0873 193.141 24.1646 193.082 25.261V25.2995H193.102Z" fill="white"/>
<path d="M29.75 1.1407V1.10224C29.6734 0.852159 29.52 0.640547 29.2901 0.505887C29.041 0.351994 28.7151 0.352 28.4277 0.332764H27.5078C27.2587 0.332764 26.9713 0.390464 26.7605 0.563598C26.6071 0.698254 26.473 0.890625 26.3772 1.08299C26.1664 1.48697 25.9939 1.91018 25.8022 2.31415C25.7256 2.46804 25.649 2.64117 25.5723 2.8143C25.534 2.89126 25.4957 2.96821 25.4573 3.04515C25.4573 3.08362 25.4191 3.1221 25.3998 3.17981C25.3998 3.17981 25.3423 3.25675 25.3423 3.29523L25.0166 3.96852C24.9016 4.2186 24.7866 4.46868 24.6716 4.71877C24.5374 4.98806 24.4225 5.25738 24.2883 5.52671C24.1543 5.81525 24.0201 6.10379 23.8859 6.39236C23.7518 6.70014 23.5984 6.98868 23.4643 7.29649C23.311 7.60427 23.1577 7.9313 23.0235 8.23908C22.8702 8.56611 22.7169 8.89314 22.5636 9.22016L22.0845 10.2205C21.9312 10.5668 21.7587 10.913 21.6053 11.2593C21.433 11.6055 21.2796 11.9518 21.1071 12.2981C20.9346 12.6443 20.7814 12.9906 20.6089 13.3368C20.4364 13.6831 20.2831 14.0294 20.1106 14.3756C19.9382 14.7219 19.7849 15.0682 19.6315 15.4144L19.1525 16.434C18.9991 16.7609 18.8458 17.1072 18.6734 17.4343C18.5201 17.7613 18.3667 18.0884 18.2135 18.3961C18.0602 18.7039 17.926 19.0117 17.7726 19.3388C17.6385 19.6273 17.4852 19.935 17.351 20.2236C17.217 20.4929 17.0828 20.7814 16.9487 21.0701C16.8337 21.3393 16.6995 21.5894 16.5846 21.8587C16.4695 22.0897 16.3546 22.3397 16.2396 22.5705C16.1438 22.7821 16.0479 22.9938 15.933 23.2053L15.6646 23.7631C15.588 23.9171 15.5114 24.071 15.4347 24.2442C15.3772 24.3787 15.3198 24.4942 15.2623 24.6289C15.2623 24.6674 15.243 24.6866 15.2239 24.725C15.2239 24.7635 15.0322 25.1675 15.0322 25.1675C15.0322 25.1483 15.013 25.129 15.013 25.1098C14.9939 25.052 14.9556 24.9943 14.9364 24.9366C14.8981 24.8404 14.8407 24.7443 14.8022 24.6481C14.7448 24.5135 14.6873 24.398 14.6299 24.2634C14.5531 24.1094 14.4765 23.9555 14.3999 23.7824C14.3041 23.5901 14.2274 23.417 14.1315 23.2246C14.0358 23.013 13.9399 22.8014 13.825 22.5897C13.71 22.3589 13.595 22.1089 13.48 21.8781C13.3651 21.6086 13.2309 21.3586 13.1158 21.0893C12.9818 20.82 12.8476 20.5314 12.7134 20.2429C12.5793 19.9544 12.426 19.6465 12.2919 19.358C12.1385 19.0502 12.0044 18.7424 11.8511 18.4153C11.6978 18.0884 11.5445 17.7613 11.3912 17.4535C11.2379 17.1265 11.0846 16.7803 10.9121 16.4532C10.7588 16.1069 10.5863 15.7607 10.433 15.4336C10.2605 15.0874 10.1072 14.7411 9.95389 14.3948C9.78144 14.0486 9.62811 13.7023 9.45563 13.3561C9.28315 13.0098 9.12986 12.6636 8.95737 12.3173C8.78492 11.971 8.6316 11.6248 8.45912 11.2785C8.30583 10.9322 8.13335 10.586 7.98003 10.2397C7.82674 9.89346 7.65425 9.56644 7.50097 9.23941C7.34764 8.91238 7.19432 8.58535 7.04103 8.25833C6.88771 7.95055 6.73439 7.62352 6.60026 7.31574C6.4661 7.00795 6.31278 6.71938 6.17865 6.4116C6.04452 6.12303 5.91036 5.83449 5.7762 5.54592C5.64207 5.27663 5.52707 5.0073 5.39294 4.73798C5.27798 4.48789 5.16298 4.23785 5.04801 3.98777C4.95217 3.75693 4.83721 3.5453 4.72221 3.31447C4.72221 3.27599 4.68388 3.23751 4.66472 3.19904C4.64556 3.16058 4.6264 3.1221 4.60724 3.06439C4.56892 2.98743 4.53056 2.91049 4.49224 2.83356C4.4156 2.67965 4.33895 2.50652 4.26227 2.33339C4.07063 1.91018 3.89818 1.50621 3.68737 1.10224C3.59157 0.909866 3.47657 0.736734 3.3041 0.582839C3.13162 0.428946 2.90166 0.371228 2.69087 0.371228H1.54104C1.36857 0.371228 1.1961 0.37123 1.04279 0.409704C0.697841 0.505887 0.410386 0.775206 0.295404 1.12147C0.237914 1.27536 0.21875 1.44849 0.21875 1.62162V37.306C0.21875 37.6713 0.333729 37.9598 0.544529 38.1715C0.755331 38.3832 1.04279 38.4988 1.36857 38.4988H2.26925C2.59505 38.4988 2.86334 38.3832 3.07414 38.1715C3.28494 37.9598 3.38075 37.6713 3.38075 37.306V7.77741C3.38075 7.77741 3.39992 7.83511 3.41909 7.8736C3.45741 7.95055 3.49573 8.04674 3.53406 8.12368C3.59157 8.25833 3.66821 8.39297 3.7257 8.52765C3.82154 8.72 3.89818 8.89314 3.97482 9.08552C4.07063 9.31635 4.18563 9.54719 4.28143 9.75878C4.39643 10.0281 4.53056 10.2782 4.64556 10.5475C4.77969 10.8361 4.91385 11.1438 5.06717 11.4324C5.22046 11.7594 5.37378 12.0865 5.52707 12.4135C5.68039 12.7597 5.85288 13.106 6.00617 13.4523C6.17865 13.8178 6.35113 14.1832 6.52358 14.5488C6.69607 14.9335 6.88771 15.2991 7.06019 15.6837C7.25184 16.0685 7.42429 16.4724 7.59677 16.8572C7.78841 17.2612 7.96086 17.6459 8.15251 18.0307C8.34415 18.4346 8.5166 18.8193 8.70825 19.2041C8.89989 19.5888 9.07237 19.9928 9.24486 20.3774C9.41731 20.7622 9.58979 21.1277 9.78144 21.5125C9.95388 21.8781 10.1264 22.2434 10.2989 22.609C10.4521 22.9553 10.6246 23.3015 10.7779 23.6478C10.9312 23.9747 11.0846 24.3018 11.2379 24.6096C11.372 24.8982 11.5061 25.2059 11.6403 25.4946C11.7553 25.7639 11.8894 26.0139 12.0044 26.2832C12.1002 26.514 12.2152 26.7256 12.311 26.9564C12.3877 27.1296 12.4835 27.322 12.5602 27.4952C12.6176 27.6299 12.6751 27.7644 12.7518 27.8991C12.905 28.2261 13.0393 28.5532 13.2692 28.8224C13.5759 29.188 13.9975 29.3227 14.4574 29.3227H15.9139C16.2204 29.2649 16.5078 29.1303 16.7186 28.8995C16.8911 28.7071 17.0062 28.4763 17.1211 28.2453C17.2553 27.9952 17.3703 27.7452 17.4852 27.4759C17.8302 26.7448 18.1559 26.0139 18.5009 25.2636C18.5967 25.0714 18.6734 24.8982 18.75 24.7058C18.9033 24.3595 19.0759 24.0133 19.2291 23.6862C19.4016 23.3207 19.5741 22.9553 19.7466 22.5705C19.9382 22.1858 20.1106 21.7818 20.3022 21.397C20.4939 20.993 20.6855 20.5891 20.8772 20.1852C21.0688 19.762 21.2605 19.358 21.4521 18.9348C21.6438 18.5116 21.8354 18.0884 22.0462 17.6652C22.2379 17.2419 22.4294 16.8187 22.621 16.4148L23.196 15.1836C23.3876 14.7796 23.5601 14.3948 23.7518 13.991C23.9242 13.6062 24.1158 13.2407 24.2883 12.8559C24.4608 12.4904 24.6142 12.1442 24.7866 11.7787C24.9399 11.4517 25.0932 11.1246 25.2465 10.7976C25.3806 10.509 25.5148 10.2205 25.649 9.93192C25.7639 9.68184 25.879 9.43179 25.9939 9.18171C26.0898 8.97008 26.1855 8.77773 26.2814 8.56611C26.358 8.41222 26.4155 8.25833 26.4922 8.10444C26.5305 8.00825 26.588 7.91206 26.6263 7.83511C26.6263 7.83511 26.6454 7.77741 26.6646 7.75816V37.2868C26.6646 37.6713 26.7605 37.9598 26.9713 38.1715C27.1821 38.3832 27.4312 38.4988 27.7762 38.4988H28.6768C29.041 38.4988 29.3284 38.3832 29.52 38.1715C29.7117 37.9598 29.8266 37.6713 29.8266 37.306V1.91018C29.8266 1.64086 29.8266 1.39078 29.7691 1.1407H29.75Z" fill="white"/>
<path d="M139.823 0.695529C139.593 0.44545 139.286 0.310791 138.923 0.310791H135.033C134.573 0.310791 134.208 0.445457 133.978 0.71477C133.748 0.984087 133.595 1.19569 133.538 1.34958L123.802 20.9711L114.163 1.34958C114.105 1.19569 113.952 1.00332 113.722 0.71477C113.492 0.464692 113.167 0.310791 112.745 0.310791H108.663C108.318 0.310791 108.049 0.44545 107.82 0.695529C107.59 0.945607 107.475 1.27264 107.475 1.67662V37.1494C107.475 37.5148 107.59 37.8225 107.82 38.0726C108.049 38.3226 108.356 38.4575 108.721 38.4575H112.917C113.243 38.4575 113.53 38.3226 113.761 38.0726C113.99 37.8225 114.105 37.5148 114.105 37.1494V13.5457L121.1 28.0888C121.273 28.4158 121.483 28.7043 121.733 28.9351C121.982 29.1661 122.346 29.2814 122.806 29.2814H124.856C125.297 29.2814 125.642 29.1661 125.91 28.9351C126.179 28.7043 126.389 28.4158 126.562 28.0888L133.556 13.5457V37.1494C133.556 37.5148 133.672 37.8225 133.882 38.0726C134.094 38.3226 134.399 38.4575 134.764 38.4575H138.96C139.325 38.4575 139.632 38.3226 139.862 38.0726C140.092 37.8225 140.206 37.5148 140.206 37.1494V1.67662C140.206 1.27264 140.092 0.945607 139.862 0.695529H139.823Z" fill="white"/>
</svg>
