<svg width="32" height="32" viewBox="0 0 32 32" fill="none" xmlns="http://www.w3.org/2000/svg">
<path d="M18.6665 2.96235C17.8049 2.78764 16.913 2.69592 15.9998 2.69592C8.63604 2.69592 2.6665 8.65891 2.6665 16.0146C2.6665 23.3702 8.63604 29.3333 15.9998 29.3333C23.3636 29.3333 29.3332 23.3702 29.3332 16.0146C29.3332 15.1025 29.2413 14.2116 29.0665 13.3509" stroke="#B0C9E2" stroke-width="2" stroke-linecap="round"/>
<path d="M16.0002 12.019C14.5274 12.019 13.3335 12.9135 13.3335 14.0168C13.3335 15.1201 14.5274 16.0146 16.0002 16.0146C17.473 16.0146 18.6668 16.9092 18.6668 18.0124C18.6668 19.1157 17.473 20.0102 16.0002 20.0102M16.0002 12.019C17.1612 12.019 18.149 12.5749 18.5151 13.3509M16.0002 12.019V10.6871M16.0002 20.0102C14.8391 20.0102 13.8514 19.4544 13.4852 18.6784M16.0002 20.0102V21.3421" stroke="#B0C9E2" stroke-width="2" stroke-linecap="round"/>
<path d="M29.3268 2.66663L23.7591 8.23145M22.6602 3.36155L22.8178 7.479C22.8178 8.44947 23.3979 9.05412 24.4546 9.13039L28.62 9.32597" stroke="#B0C9E2" stroke-width="2" stroke-linecap="round" stroke-linejoin="round"/>
</svg>
