<svg width="32" height="32" viewBox="0 0 32 32" fill="none" xmlns="http://www.w3.org/2000/svg">
<path d="M2.68945 18.6665C5.62221 18.6665 7.99969 21.044 7.99969 23.9768" stroke="#B0C9E2" stroke-width="2" stroke-linecap="round" stroke-linejoin="round"/>
<path d="M7.99969 5.35596C7.99969 8.28872 5.62221 10.6662 2.68945 10.6662" stroke="#B0C9E2" stroke-width="2" stroke-linecap="round" stroke-linejoin="round"/>
<path d="M24 5.35596C24 8.26305 26.3587 10.6245 29.2564 10.6656" stroke="#B0C9E2" stroke-width="2" stroke-linecap="round" stroke-linejoin="round"/>
<path d="M29.3332 17.3335V13.3335C29.3332 9.56226 29.3332 7.67664 28.1616 6.50507C26.99 5.3335 25.1044 5.3335 21.3332 5.3335H10.6665C6.89526 5.3335 5.00965 5.3335 3.83808 6.50507C2.6665 7.67664 2.6665 9.56226 2.6665 13.3335V16.0002C2.6665 19.7714 2.6665 21.657 3.83808 22.8286C5.00965 24.0002 6.89526 24.0002 10.6665 24.0002H17.3332" stroke="#B0C9E2" stroke-width="2" stroke-linecap="round" stroke-linejoin="round"/>
<path d="M20 14.6665C20 16.8757 18.2092 18.6665 16 18.6665C13.7908 18.6665 12 16.8757 12 14.6665C12 12.4574 13.7908 10.6665 16 10.6665C18.2092 10.6665 20 12.4574 20 14.6665Z" stroke="#B0C9E2" stroke-width="2" stroke-linecap="round" stroke-linejoin="round"/>
<path d="M25.3335 18.6665V26.6665M21.3335 22.6665H29.3335" stroke="#B0C9E2" stroke-width="2" stroke-linecap="round" stroke-linejoin="round"/>
</svg>
