<svg width="57" height="58" viewBox="0 0 57 58" fill="none" xmlns="http://www.w3.org/2000/svg">
  <path
    d="M26.4331 1.56934C27.7738 0.79526 29.4264 0.795261 30.7671 1.56934L51.2817 13.4141C52.6224 14.1881 53.4487 15.6189 53.4487 17.167V40.8564C53.4487 42.4045 52.6224 43.8353 51.2817 44.6094L30.7671 56.4541C29.4264 57.2282 27.7738 57.2282 26.4331 56.4541L5.91846 44.6094C4.57777 43.8353 3.75152 42.4045 3.75146 40.8564V17.167C3.75152 15.6189 4.57777 14.1881 5.91846 13.4141L26.4331 1.56934Z"
    fill="#222A35" stroke="url(#paint0_linear_263_2131)" stroke-width="1.2" />
  <path d="M8.67041 32.367V26.7686H10.5802L11.3522 29.9006H11.3665L12.1385 26.7686H14.0626V32.367H12.7352V28.8593H12.7215L11.8858 32.367H10.8117L9.97596 28.8593H9.96218V32.367H8.67041Z"
    fill="white" />
  <path
    d="M18.589 31.6819C18.121 32.2273 17.5031 32.4998 16.7354 32.4998C15.9681 32.4998 15.3525 32.2273 14.8888 31.6819C14.4255 31.1363 14.1938 30.4381 14.1938 29.5872C14.1938 28.7364 14.4255 28.037 14.8888 27.489C15.3525 26.9408 15.9681 26.6665 16.7354 26.6665C17.5031 26.6665 18.121 26.9408 18.589 27.489C19.0572 28.037 19.2914 28.7364 19.2914 29.5872C19.2914 30.4381 19.0572 31.1363 18.589 31.6819ZM15.956 30.7457C16.1387 31.0432 16.4007 31.192 16.7423 31.192C17.0842 31.192 17.3463 31.0432 17.5287 30.7457C17.7113 30.4482 17.8026 30.0621 17.8026 29.5872C17.8026 29.112 17.7113 28.7243 17.5287 28.4241C17.3463 28.124 17.0842 27.9738 16.7423 27.9738C16.4007 27.9738 16.1387 28.124 15.956 28.4241C15.7737 28.7243 15.6826 29.112 15.6826 29.5872C15.6826 30.0621 15.7737 30.4482 15.956 30.7457Z"
    fill="white" />
  <path
    d="M23.6217 31.6819C23.1537 32.2273 22.5358 32.4998 21.7682 32.4998C21.0008 32.4998 20.3852 32.2273 19.9216 31.6819C19.4582 31.1363 19.2266 30.4381 19.2266 29.5872C19.2266 28.7364 19.4582 28.037 19.9216 27.489C20.3852 26.9408 21.0008 26.6665 21.7682 26.6665C22.5358 26.6665 23.1537 26.9408 23.6217 27.489C24.0899 28.037 24.3241 28.7364 24.3241 29.5872C24.3241 30.4381 24.0899 31.1363 23.6217 31.6819ZM20.9887 30.7457C21.1714 31.0432 21.4334 31.192 21.7751 31.192C22.117 31.192 22.379 31.0432 22.5614 30.7457C22.744 30.4482 22.8353 30.0621 22.8353 29.5872C22.8353 29.112 22.744 28.7243 22.5614 28.4241C22.379 28.124 22.117 27.9738 21.7751 27.9738C21.4334 27.9738 21.1714 28.124 20.9887 28.4241C20.8064 28.7243 20.7153 29.112 20.7153 29.5872C20.7153 30.0621 20.8064 30.4482 20.9887 30.7457Z"
    fill="white" />
  <path d="M24.4561 32.367V26.7686H25.923L27.5663 29.9161H27.5801V26.7686H28.9988V32.367H27.4819L25.888 29.1959H25.8742V32.367H24.4561Z" fill="white" />
  <path d="M29.3271 32.367V26.7686H30.7941V30.9655H32.9428V32.367H29.3271Z" fill="white" />
  <path d="M33.0542 32.367V26.7686H34.5211V32.367H33.0542Z" fill="white" />
  <path
    d="M38.5716 32.3666L38.4596 31.7715H38.4452C38.1457 32.2572 37.666 32.4998 37.0059 32.4998C36.3178 32.4998 35.7655 32.252 35.3494 31.756C34.8856 31.2078 34.6538 30.4848 34.6538 29.5872C34.6538 28.7414 34.8797 28.0431 35.3316 27.4925C35.7833 26.9419 36.3884 26.6665 37.1466 26.6665C37.7971 26.6665 38.3236 26.844 38.7261 27.1989C39.1289 27.5539 39.37 28.0447 39.4492 28.6711H38.0311C37.9889 28.4831 37.8941 28.3264 37.7468 28.2012C37.5993 28.076 37.418 28.0134 37.2029 28.0134C36.8608 28.0134 36.5986 28.157 36.416 28.4442C36.2336 28.7311 36.1426 29.112 36.1426 29.5872C36.1426 30.057 36.242 30.4407 36.4407 30.7382C36.6397 31.0358 36.9124 31.1845 37.2586 31.1845C37.736 31.1845 38.0311 30.9522 38.1437 30.4872H37.4763V29.3287H39.5475V32.3666H38.5716Z"
    fill="white" />
  <path d="M39.771 32.367V26.7686H41.2379V28.8202H42.783V26.7686H44.2505V32.367H42.783V30.1746H41.2379V32.367H39.771Z" fill="white" />
  <path d="M44.2412 28.1626V26.7686H48.5662V28.1626H47.1269V32.367H45.6599V28.1626H44.2412Z" fill="white" />
  <defs>
    <linearGradient id="paint0_linear_263_2131" x1="28.6001" y1="1.01172" x2="28.6001" y2="57.0117" gradientUnits="userSpaceOnUse">
      <stop stop-color="white" stop-opacity="0.4" />
      <stop offset="1" stop-color="#011427" />
    </linearGradient>
  </defs>
</svg>