<svg width="20" height="20" viewBox="0 0 20 20" fill="none" xmlns="http://www.w3.org/2000/svg">
  <path
    d="M13 16V4H4V15.25C4 15.4489 4.07902 15.6397 4.21967 15.7803C4.36032 15.921 4.55109 16 4.75 16H13ZM15.25 17.5H4.75C4.15326 17.5 3.58097 17.2629 3.15901 16.841C2.73705 16.419 2.5 15.8467 2.5 15.25V3.25C2.5 3.05109 2.57902 2.86032 2.71967 2.71967C2.86032 2.57902 3.05109 2.5 3.25 2.5H13.75C13.9489 2.5 14.1397 2.57902 14.2803 2.71967C14.421 2.86032 14.5 3.05109 14.5 3.25V8.5H17.5V15.25C17.5 15.8467 17.2629 16.419 16.841 16.841C16.419 17.2629 15.8467 17.5 15.25 17.5ZM14.5 10V15.25C14.5 15.4489 14.579 15.6397 14.7197 15.7803C14.8603 15.921 15.0511 16 15.25 16C15.4489 16 15.6397 15.921 15.7803 15.7803C15.921 15.6397 16 15.4489 16 15.25V10H14.5ZM5.5 5.5H10V10H5.5V5.5ZM7 7V8.5H8.5V7H7ZM5.5 10.75H11.5V12.25H5.5V10.75ZM5.5 13H11.5V14.5H5.5V13Z"
    fill="currentColor" />
</svg>