<svg width="33" height="32" viewBox="0 0 33 32" fill="none" xmlns="http://www.w3.org/2000/svg">
<path d="M24.5692 3C25.7672 2.99996 26.7661 2.99993 27.5592 3.10655C28.3962 3.21909 29.152 3.46665 29.7592 4.07395C30.3665 4.68124 30.6141 5.43698 30.7266 6.27403C30.8333 7.06708 30.8332 8.06604 30.8332 9.26401V16.0337C30.8332 16.6263 30.8332 17.1211 30.8054 17.5272C30.7766 17.95 30.7145 18.3493 30.5541 18.7365C30.182 19.6349 29.4681 20.3488 28.5697 20.7209C28.1825 20.8813 27.7832 20.9435 27.3604 20.9723C26.9542 21 26.4594 21 25.8669 21H25.8332C25.2809 21 24.8332 20.5523 24.8332 20V13.1707C23.668 13.5825 22.8332 14.6937 22.8332 16V18.6667C22.8332 19.2189 22.3854 19.6667 21.8332 19.6667C20.9448 19.6667 20.1476 20.0516 19.5968 20.6669C19.4072 20.8789 19.1361 21 18.8517 21H8.43052C7.23256 21 6.23357 21.0001 5.44053 20.8935C4.60348 20.7809 3.84775 20.5333 3.24045 19.926C2.63316 19.3188 2.3856 18.5631 2.27305 17.726C2.16644 16.9329 2.16647 15.934 2.16651 14.736V9.264C2.16647 8.06605 2.16644 7.06707 2.27305 6.27403C2.3856 5.43698 2.63316 4.68124 3.24045 4.07395C3.84775 3.46665 4.60348 3.21909 5.44053 3.10655C6.23357 2.99993 7.23252 2.99996 8.43047 3H24.5692Z" fill="#B0C9E2"/>
<path d="M13.5 12C13.5 10.3431 14.8432 9 16.5 9C18.1568 9 19.5 10.3431 19.5 12C19.5 13.6568 18.1569 15 16.5 15C14.8431 15 13.5 13.6568 13.5 12Z" fill="#004280"/>
<path d="M20.8337 17.7667V16C20.8337 13.2386 23.0722 11 25.8337 11C26.3859 11 26.8337 11.4477 26.8337 12V19.3792C26.8337 20.8968 26.8337 22.0993 26.7513 23.0673C26.6671 24.0575 26.4913 24.8935 26.0858 25.6521C25.4953 26.7569 24.5905 27.6617 23.4858 28.2521C22.7271 28.6577 21.891 28.8335 20.901 28.9177C19.933 29 18.7303 29 17.2129 29H16.4637C15.2522 29 14.2919 29 13.5141 28.9469C12.7194 28.8927 12.0422 28.7797 11.41 28.5179C9.85812 27.8751 8.62518 26.6421 7.9824 25.0903C7.72052 24.4581 7.60758 23.7809 7.55336 22.9863C7.5152 22.4269 7.50448 21.7735 7.50146 21H17.1182C17.6966 19.3635 19.1027 18.118 20.8337 17.7667Z" fill="#004280"/>
</svg>
