<svg viewBox="0 0 265 52" fill="none" xmlns="http://www.w3.org/2000/svg">
  <path
    d="M41.587 0.25L25.4984 9.39802V37.9494L16.6217 43.0441L7.69058 37.9454V27.752L16.6217 22.7027L22.3643 25.9999V17.7527L16.5716 14.4968L0.487305 23.748V42.0483L16.6258 51.25L32.7101 42.0483V13.501L41.641 8.40222L50.5681 13.501V23.649L41.641 28.7932L35.8485 25.467V33.6729L41.587 36.9496L57.8298 27.8015V9.39802L41.587 0.25Z"
    fill="white" />
  <path fill-rule="evenodd" clip-rule="evenodd"
    d="M135.977 39.8873H143.188V0.75H135.977V39.8873ZM89.6143 12.0673C93.0323 12.0673 95.8661 13.4266 98.1071 16.1413C100.352 18.856 101.471 22.2234 101.471 26.2439C101.471 30.2642 100.348 33.6317 98.1071 36.3464C95.8618 39.0608 93.0323 40.4204 89.6143 40.4204C87.1938 40.4204 85.0904 39.6807 83.3126 38.1975C81.5681 36.6811 80.2869 34.6357 79.4646 32.0615V50.4651H72.2529V12.5962H79.4646V20.422C80.2826 17.8478 81.5681 15.819 83.3126 14.3398C85.0945 12.8234 87.1938 12.0673 89.6143 12.0673ZM86.9934 33.9126C88.9508 33.9126 90.6076 33.1895 91.9598 31.7434C93.312 30.2642 93.9881 28.4297 93.9881 26.2439C93.9881 24.0581 93.312 22.2937 91.9598 20.8476C90.6076 19.3683 88.9508 18.6246 86.9934 18.6246C84.8191 18.6246 83.0246 19.3477 81.5972 20.7938C80.1742 22.24 79.4606 24.0539 79.4606 26.2397C79.4606 28.4254 80.1742 30.2599 81.5972 31.7392C83.0205 33.1854 84.8191 33.9086 86.9934 33.9086V33.9126ZM103.386 26.2439C103.386 30.2642 104.793 33.6317 107.606 36.3464C110.419 39.0608 113.928 40.4204 118.131 40.4204C122.334 40.4204 125.844 39.0608 128.656 36.3464C131.469 33.6317 132.876 30.2642 132.876 26.2439C132.876 22.2234 131.469 18.856 128.656 16.1413C125.844 13.4266 122.334 12.0673 118.131 12.0673C113.928 12.0673 110.419 13.4266 107.606 16.1413C104.793 18.856 103.386 22.2234 103.386 26.2439ZM112.948 31.7434C111.558 30.2642 110.865 28.4297 110.865 26.2439C110.865 24.0581 111.558 22.2937 112.948 20.8476C114.338 19.3683 116.065 18.6246 118.131 18.6246C120.197 18.6246 121.925 19.3477 123.314 20.7938C124.704 22.24 125.397 24.0539 125.397 26.2397C125.397 28.4254 124.704 30.2599 123.314 31.7392C121.925 33.1854 120.197 33.9086 118.131 33.9086C116.065 33.9086 114.338 33.1854 112.948 31.7392V31.7434ZM209.812 36.3464C206.999 33.6317 205.593 30.2642 205.593 26.2439C205.593 22.2234 206.999 18.856 209.812 16.1413C212.625 13.4266 216.135 12.0673 220.337 12.0673C224.54 12.0673 228.049 13.4266 230.863 16.1413C233.677 18.856 235.083 22.2234 235.083 26.2439C235.083 30.2642 233.677 33.6317 230.863 36.3464C228.049 39.0608 224.54 40.4204 220.337 40.4204C216.135 40.4204 212.629 39.0608 209.812 36.3464ZM213.068 26.2439C213.068 28.4297 213.76 30.2642 215.149 31.7434C216.54 33.1895 218.268 33.9126 220.333 33.9126C222.4 33.9126 224.128 33.1895 225.516 31.7434C226.907 30.2642 227.598 28.4297 227.598 26.2439C227.598 24.0581 226.907 22.24 225.516 20.798C224.128 19.3518 222.4 18.6287 220.333 18.6287C218.268 18.6287 216.54 19.3683 215.149 20.8517C213.76 22.2978 213.068 24.0953 213.068 26.2479V26.2439ZM254.275 12.0673C257.338 12.0673 259.798 13.125 261.646 15.2406C263.532 17.3561 264.475 20.0542 264.475 23.3307V39.8832H257.263V24.5994C257.263 22.835 256.696 21.3888 255.552 20.2608C254.413 19.1328 252.99 18.5667 251.279 18.5667C249.356 18.5667 247.791 19.1328 246.58 20.2608C245.37 21.3888 244.765 22.835 244.765 24.5994V39.8832H237.553V12.5962H244.765V19.5791C245.477 17.2528 246.671 15.4182 248.345 14.0795C250.055 12.7408 252.03 12.0714 254.275 12.0714V12.0673ZM160.512 32.611L167.882 12.6209H175.202L160.032 50.4897H152.712L156.56 40.8624L145.287 12.6209H153.088L160.512 32.611ZM195.71 12.5962V19.4344C194.208 14.972 190.498 12.5962 185.561 12.5962C178.107 12.5962 173.7 19.0419 173.7 25.8183C173.7 32.5945 178.074 39.5691 185.561 39.5691C190.498 39.5691 194.208 36.0446 195.71 31.5821V36.8173C195.71 39.0402 194.98 40.8707 193.519 42.317C192.059 43.763 190.281 44.4862 188.177 44.4862C185.327 44.4862 183.211 43.0771 181.821 40.2551L175.357 43.6392C176.567 45.8621 178.295 47.6388 180.54 48.9816C182.785 50.3204 185.331 50.9897 188.177 50.9897C192.38 50.9897 195.89 49.6344 198.703 46.9157C201.516 44.201 202.922 40.8335 202.922 36.8132V12.5962H195.71ZM193.628 31.0037C192.238 32.3796 190.494 33.0656 188.394 33.0656C186.295 33.0656 184.655 32.3796 183.265 31.0037C181.876 29.5948 181.183 27.8676 181.183 25.8223C181.183 23.777 181.876 22.0664 183.265 20.6905C184.655 19.3146 186.362 18.6287 188.394 18.6287C190.427 18.6287 192.242 19.3146 193.628 20.6905C195.018 22.0292 195.71 23.7398 195.71 25.8223C195.71 27.9048 195.018 29.632 193.628 31.0037Z"
    fill="white" />
</svg>