<svg width="32" height="32" viewBox="0 0 32 32" fill="none" xmlns="http://www.w3.org/2000/svg">
<path d="M16.0764 2.33325C18.9974 2.33324 21.2916 2.33323 23.0828 2.57404C24.9183 2.82083 26.3747 3.33688 27.519 4.48113C28.6632 5.6254 29.1792 7.08175 29.426 8.91728C29.6668 10.7085 29.6668 13.1552 29.6668 16.0762C29.6668 18.9971 29.6668 21.2914 29.426 23.0826C29.1792 24.9181 28.6632 26.3745 27.519 27.5187C26.3747 28.663 24.9183 29.179 23.0828 29.4258C21.2916 29.6666 18.9974 29.6666 16.0764 29.6666C13.1554 29.6666 10.7087 29.6666 8.91752 29.4258C7.08199 29.179 5.62564 28.663 4.48138 27.5187C3.33712 26.3745 2.82107 24.9181 2.57428 23.0826C2.33347 21.2914 2.33348 18.9971 2.3335 16.0762C2.33348 13.1552 2.33347 10.7085 2.57428 8.91728C2.82107 7.08175 3.33712 5.6254 4.48138 4.48113C5.62564 3.33688 7.08199 2.82083 8.91752 2.57404C10.7087 2.33323 13.1555 2.33324 16.0764 2.33325Z" fill="#004280"/>
<path fill-rule="evenodd" clip-rule="evenodd" d="M7.3335 9.33333C7.3335 8.59695 7.93046 8 8.66683 8H10.0002C10.7365 8 11.3335 8.59696 11.3335 9.33333C11.3335 10.0697 10.7365 10.6667 10.0002 10.6667H8.66683C7.93044 10.6667 7.3335 10.0697 7.3335 9.33333ZM14.0002 9.33333C14.0002 8.59696 14.5971 8 15.3335 8H23.3335C24.0699 8 24.6668 8.59696 24.6668 9.33333C24.6668 10.0697 24.0699 10.6667 23.3335 10.6667H15.3335C14.5971 10.6667 14.0002 10.0697 14.0002 9.33333ZM7.3335 16C7.3335 15.2636 7.93046 14.6667 8.66683 14.6667H10.0002C10.7365 14.6667 11.3335 15.2636 11.3335 16C11.3335 16.7364 10.7365 17.3333 10.0002 17.3333H8.66683C7.93044 17.3333 7.3335 16.7364 7.3335 16ZM14.0002 16C14.0002 15.2636 14.5971 14.6667 15.3335 14.6667H23.3335C24.0699 14.6667 24.6668 15.2636 24.6668 16C24.6668 16.7364 24.0699 17.3333 23.3335 17.3333H15.3335C14.5971 17.3333 14.0002 16.7364 14.0002 16ZM7.3335 22.6667C7.3335 21.9303 7.93046 21.3333 8.66683 21.3333H10.0002C10.7365 21.3333 11.3335 21.9303 11.3335 22.6667C11.3335 23.4031 10.7365 24 10.0002 24H8.66683C7.93046 24 7.3335 23.4031 7.3335 22.6667ZM14.0002 22.6667C14.0002 21.9303 14.5971 21.3333 15.3335 21.3333H23.3335C24.0699 21.3333 24.6668 21.9303 24.6668 22.6667C24.6668 23.4031 24.0699 24 23.3335 24H15.3335C14.5971 24 14.0002 23.4031 14.0002 22.6667Z" fill="#B0C9E2"/>
</svg>
