<svg width="48" height="48" viewBox="0 0 48 48" fill="none" xmlns="http://www.w3.org/2000/svg">
  <path d="M32 28C32 29.6568 33.3432 31 35 31C36.6568 31 38 29.6568 38 28C38 26.3432 36.6568 25 35 25C33.3432 25 32 26.3432 32 28Z" stroke="#B0C9E2" stroke-width="3" />
  <path d="M8 40C5.79086 40 4 38.2092 4 36C4 33.7908 5.79086 32 8 32C10.2091 32 12 34.6666 12 36C12 37.3334 10.2091 40 8 40Z" stroke="#B0C9E2" stroke-width="3" />
  <path d="M16 40C13.7909 40 12 37 12 36C12 35 13.7909 32 16 32C18.2091 32 20 33.7908 20 36C20 38.2092 18.2091 40 16 40Z" stroke="#B0C9E2" stroke-width="3" />
  <path
    d="M26 40H32C37.6568 40 40.4852 40 42.2426 38.2426C44 36.4852 44 33.6568 44 28V26C44 20.3432 44 17.5147 42.2426 15.7574C40.96 14.4748 39.1068 14.1283 36 14.0346M36 14.0346C34.85 14 33.5282 14 32 14H20M36 14.0346C36 12.1383 36 11.1902 35.685 10.4442C35.2798 9.4842 34.5158 8.72028 33.5558 8.31498C32.8098 8 31.8616 8 29.9654 8H20C12.4575 8 8.6863 8 6.34314 10.3431C4 12.6863 4 14.4575 4 22V26"
    stroke="#B0C9E2" stroke-width="3" stroke-linecap="round" />
</svg>