<svg width="20" height="20" viewBox="0 0 20 20" fill="none" xmlns="http://www.w3.org/2000/svg">
  <path
    d="M6.875 5.625C6.875 4.24429 7.99429 3.125 9.375 3.125C10.7557 3.125 11.875 4.24429 11.875 5.625H15C15.3452 5.625 15.625 5.90482 15.625 6.25V8.85669C15.625 9.05956 15.5265 9.24981 15.3609 9.367C15.1952 9.48412 14.983 9.51356 14.7917 9.44594C14.6622 9.40019 14.5222 9.375 14.375 9.375C13.6846 9.375 13.125 9.93463 13.125 10.625C13.125 11.3154 13.6846 11.875 14.375 11.875C14.5222 11.875 14.6622 11.8498 14.7917 11.8041C14.983 11.7364 15.1952 11.7659 15.3609 11.883C15.5265 12.0002 15.625 12.1904 15.625 12.3933V15C15.625 15.3452 15.3452 15.625 15 15.625H5C4.65483 15.625 4.375 15.3452 4.375 15V6.25C4.375 5.90482 4.65483 5.625 5 5.625H6.875ZM9.375 4.375C8.68464 4.375 8.125 4.93464 8.125 5.625C8.125 5.77221 8.15019 5.9122 8.19597 6.04172C8.26358 6.23301 8.23413 6.44522 8.11699 6.61087C7.99984 6.77652 7.80957 6.875 7.60669 6.875H5.625V14.375H14.375V13.125C12.9943 13.125 11.875 12.0057 11.875 10.625C11.875 9.24431 12.9943 8.125 14.375 8.125V6.875H11.1433C10.9404 6.875 10.7502 6.77652 10.633 6.61087C10.5159 6.44522 10.4864 6.23301 10.5541 6.04172C10.5998 5.9122 10.625 5.77222 10.625 5.625C10.625 4.93464 10.0654 4.375 9.375 4.375Z"
    fill="currentColor" />
</svg>