<svg viewBox="0 0 120 124" fill="none" xmlns="http://www.w3.org/2000/svg">
  <path
    d="M55.3574 3.46118C58.2304 1.80249 61.7696 1.80249 64.6426 3.46118L108.604 28.842C111.477 30.5008 113.247 33.5666 113.247 36.884V87.6458C113.247 90.9632 111.477 94.029 108.604 95.6877L64.6426 121.069C61.7696 122.727 58.2304 122.727 55.3574 121.069L11.3955 95.6877C8.52255 94.029 6.75293 90.9632 6.75293 87.6458V36.884C6.75293 33.5666 8.52255 30.5008 11.3955 28.842L55.3574 3.46118Z"
    fill="#B0C9E2" stroke="url(#paint0_linear_131_602)" stroke-width="2.57143" />
  <path
    d="M43.7366 53.9645C43.7366 56.3462 42.8435 58.6186 41.2233 60.3607C40.251 61.4072 39.0707 62.2057 37.7706 62.7164C37.7706 62.7164 37.6984 62.7808 36.4705 63.0841C35.2411 63.3875 35.0338 63.3924 35.0338 63.3924H23.7336V77.5379H16.7288V56.3462H23.7336V56.3609H34.3347C35.6558 56.3609 36.7311 55.285 36.7311 53.9645C36.7311 52.642 35.6558 51.5682 34.3347 51.5682C34.2766 51.5682 34.224 51.5696 34.1792 51.5738L34.1617 51.5752L34.1134 51.5829H32.9765V51.5682H16.7288V45.8761L16.7302 44.5633H34.7802C34.7802 44.5633 35.5304 44.6551 36.2134 44.7875C36.8978 44.9206 37.3895 45.0691 37.3895 45.0691C41.0979 46.3391 43.7366 49.8562 43.7366 53.9645ZM51.9512 65.0644L43.6897 76.2827H50.8304L55.5251 69.9076L51.9512 65.0644ZM62.9117 59.8766L74.2021 44.5444H67.0613L66.8547 44.8239L59.3413 55.0272L51.6213 44.5444H44.4826L55.7674 59.871L55.7569 59.885L59.3483 64.7506L59.3504 64.7485L59.8505 65.4175L67.8522 76.2827H74.9929L62.9117 59.8766Z"
    fill="black" />
  <path
    d="M59.3502 64.7481L59.3481 64.7502L55.7567 59.8847L55.7673 59.8707L44.4825 44.5441H51.6211L59.3411 55.0268L66.8545 44.8236L67.0612 44.5441H74.2019L62.9115 59.8763L74.9927 76.2823H67.852L59.8504 65.4171L59.3502 64.7481ZM64.4701 59.8763L76.6851 43.2888H66.4265L59.3411 52.9107L52.8371 44.0776L52.2543 43.2888H41.9985L54.2164 59.8812L54.2052 59.8973L67.2174 77.5376H77.476L64.4701 59.8763ZM50.8302 76.2823H43.6895L51.951 65.0641L55.5249 69.9072L50.8302 76.2823ZM51.9496 62.9493L41.2063 77.5376H51.4656L57.0835 69.9072L51.9496 62.9493Z"
    fill="#ED1C24" />
  <path
    d="M103.271 56.4792V63.4876H103.27V77.5091H88.851C84.3938 77.5091 80.1923 75.8238 77.024 72.7634C73.7927 69.6476 72.0142 65.4881 72.0142 61.0506C72.0142 56.6123 73.7927 52.4528 77.0226 49.3385C80.1923 46.2767 84.3938 44.5913 88.851 44.5913H103.213V51.5961H87.4031C82.5578 52.2791 78.9167 56.3293 78.9167 61.0506C78.9167 65.7718 82.5578 69.8213 87.4031 70.5043H96.2642V63.4848H88.0889L87.7358 62.7212L85.7149 58.3432L84.8547 56.4792H103.271Z"
    fill="black" />
  <path
    d="M32.8483 77.538H30.6824V77.1905C30.1683 77.2711 29.6541 77.3502 29.1385 77.4287C28.4661 77.5282 27.9547 77.5772 27.6059 77.5772C26.78 77.5772 26.3674 77.1723 26.3674 76.3611V72.7579C26.3674 71.9341 26.7933 71.5222 27.6451 71.5222H30.702V69.2274H28.5361V70.6508H26.4879V68.7819C26.4879 67.9567 26.9124 67.5435 27.7628 67.5435H31.593C32.4294 67.5435 32.8483 67.9567 32.8483 68.7819V77.538ZM30.702 75.7363V73.0549H28.5361V75.8176L30.702 75.7363Z"
    fill="black" />
  <path d="M41.2111 67.5435L38.709 77.4091L37.7479 81.1889H35.4335L36.4702 77.4595L33.9373 67.5435H36.2629L37.5798 74.114L38.8967 67.5435H41.2111Z" fill="black" />
  <defs>
    <linearGradient id="paint0_linear_131_602" x1="60" y1="2.26489" x2="60" y2="122.265" gradientUnits="userSpaceOnUse">
      <stop stop-color="white" stop-opacity="0.9" />
      <stop offset="1" stop-color="#E3EEFA" stop-opacity="0.1" />
    </linearGradient>
  </defs>
</svg>