<svg width="48" height="48" viewBox="0 0 48 48" fill="none" xmlns="http://www.w3.org/2000/svg">
<path d="M11.8768 4.00001L12 4.00003L12.1232 4.00001C13.4315 3.99989 14.6069 3.99979 15.5583 4.12769C16.597 4.26735 17.6627 4.59161 18.5355 5.46449C19.4084 6.33737 19.7327 7.40299 19.8723 8.44171C20.0002 9.39313 20.0002 10.5685 20 11.8768V12V12.1232C20.0002 13.4315 20.0002 14.6069 19.8723 15.5583C19.7327 16.597 19.4084 17.6627 18.5355 18.5355C17.6627 19.4084 16.597 19.7327 15.5583 19.8723C14.6069 20.0002 13.4315 20.0002 12.1232 20H12H11.8768C10.5685 20.0002 9.39311 20.0002 8.44169 19.8723C7.40299 19.7327 6.33735 19.4084 5.46447 18.5355C4.59159 17.6627 4.26733 16.597 4.12767 15.5583C3.99977 14.6069 3.99987 13.4315 4.00001 12.1232V12V11.8768C3.99987 10.5686 3.99977 9.39313 4.12767 8.44171C4.26733 7.40299 4.59159 6.33737 5.46447 5.46449C6.33735 4.59161 7.40299 4.26735 8.44169 4.12769C9.39311 3.99979 10.5685 3.99989 11.8768 4.00001Z" fill="#004280"/>
<path d="M11.8768 28H12H12.1232C13.4315 27.9998 14.6069 27.9998 15.5583 28.1276C16.597 28.2674 17.6627 28.5916 18.5355 29.4644C19.4084 30.3374 19.7327 31.403 19.8723 32.4418C20.0002 33.3932 20.0002 34.5686 20 35.8768V36V36.1232C20.0002 37.4314 20.0002 38.607 19.8723 39.5584C19.7327 40.597 19.4084 41.6626 18.5355 42.5356C17.6627 43.4084 16.597 43.7326 15.5583 43.8724C14.6069 44.0002 13.4315 44.0002 12.1232 44H12H11.8768C10.5685 44.0002 9.39311 44.0002 8.44169 43.8724C7.40299 43.7326 6.33735 43.4084 5.46447 42.5356C4.59159 41.6626 4.26733 40.597 4.12767 39.5584C3.99977 38.607 3.99987 37.4314 4.00001 36.1232V36V35.8768C3.99987 34.5686 3.99977 33.3932 4.12767 32.4418C4.26733 31.403 4.59159 30.3374 5.46447 29.4644C6.33735 28.5916 7.40299 28.2674 8.44169 28.1276C9.39311 27.9998 10.5685 27.9998 11.8768 28Z" fill="#004280"/>
<path fill-rule="evenodd" clip-rule="evenodd" d="M4 24C4 22.8954 4.89544 22 6 22H18C19.1046 22 20 22.8954 20 24C20 25.1046 19.1046 26 18 26H6C4.89544 26 4 25.1046 4 24Z" fill="#B0C9E2"/>
<path fill-rule="evenodd" clip-rule="evenodd" d="M24 4C25.1046 4 26 4.89544 26 6V16C26 17.1046 25.1046 18 24 18C22.8954 18 22 17.1046 22 16V6C22 4.89544 22.8954 4 24 4Z" fill="#B0C9E2"/>
<path d="M35.8768 4.00001L36 4.00003L36.1232 4.00001C37.4314 3.99989 38.607 3.99979 39.5584 4.12769C40.597 4.26735 41.6626 4.59161 42.5356 5.46449C43.4084 6.33737 43.7326 7.40299 43.8724 8.44171C44.0002 9.39313 44.0002 10.5685 44 11.8768V12V12.1232C44.0002 13.4315 44.0002 14.6069 43.8724 15.5583C43.7326 16.597 43.4084 17.6627 42.5356 18.5355C41.6626 19.4084 40.597 19.7327 39.5584 19.8723C38.607 20.0002 37.4314 20.0002 36.1232 20H36H35.8768C34.5686 20.0002 33.393 20.0002 32.4416 19.8723C31.403 19.7327 30.3374 19.4084 29.4644 18.5355C28.5916 17.6627 28.2674 16.597 28.1276 15.5583C27.9998 14.6069 27.9998 13.4315 28 12.1232V12V11.8768C27.9998 10.5686 27.9998 9.39313 28.1276 8.44171C28.2674 7.40299 28.5916 6.33737 29.4644 5.46449C30.3374 4.59161 31.403 4.26735 32.4416 4.12769C33.393 3.99979 34.5686 3.99989 35.8768 4.00001Z" fill="#004280"/>
<path fill-rule="evenodd" clip-rule="evenodd" d="M29.8768 22C29.9178 22 29.9588 22 30 22H42C43.1046 22 44 22.8954 44 24C44 25.1046 43.1046 26 42 26H30C28.5292 26 27.6274 26.0042 26.9746 26.092C26.401 26.1692 26.3052 26.2788 26.2938 26.2918L26.2918 26.2938C26.2788 26.3052 26.1692 26.401 26.092 26.9746C26.0042 27.6274 26 28.5292 26 30C26 31.1046 25.1046 32 24 32C22.8954 32 22 31.1046 22 30C22 29.9588 22 29.9178 22 29.8768C21.9998 28.5686 21.9998 27.3932 22.1276 26.4418C22.2674 25.403 22.5916 24.3374 23.4644 23.4644C24.3374 22.5916 25.403 22.2674 26.4416 22.1276C27.393 21.9998 28.5686 21.9998 29.8768 22ZM39.025 32.0922C38.3724 32.0042 37.4708 32 36 32C34.8954 32 34 31.1046 34 30C34 28.8954 34.8954 28 36 28C36.0412 28 36.0824 28 36.1234 28C37.4314 27.9998 38.607 27.9998 39.5586 28.1278C40.598 28.2678 41.6638 28.5928 42.5366 29.4668C43.409 30.3404 43.7328 31.4066 43.8724 32.446C44.0002 33.3984 44.0002 34.5752 44 35.8856C44 35.9264 44 35.9676 44 36.0086C44 36.0498 44 36.091 44 36.1318C44.0002 37.4422 44.0002 38.619 43.8724 39.5714C43.7328 40.6108 43.409 41.677 42.5366 42.5506C41.28 43.809 39.5842 43.9532 38.0604 43.9992C36.9562 44.0324 36.0342 43.1644 36.001 42.0604C35.9676 40.9562 36.8356 40.0342 37.9396 40.001C38.6832 39.9784 39.1224 39.9272 39.4068 39.8544C39.6362 39.7958 39.6884 39.7424 39.7044 39.726L39.706 39.7242C39.7196 39.7122 39.8308 39.6142 39.908 39.0392C39.9958 38.385 40 37.4814 40 36.0086C40 34.536 39.9958 33.6324 39.908 32.9782C39.8308 32.4032 39.7208 32.3062 39.7072 32.2942L39.7052 32.292C39.6936 32.279 39.598 32.1692 39.025 32.0922ZM30 28C31.1046 28 32 28.8954 32 30V33C32 33.5152 32.0666 33.7628 32.102 33.8558C32.1644 33.8794 32.304 33.9202 32.5732 33.9506C32.936 33.9916 33.3848 34 34 34C36.2092 34 38 35.7908 38 38C38 39.1046 37.1046 40 36 40C34.8954 40 34 39.1046 34 38C33.3988 38 32.7396 37.995 32.1242 37.9254C31.5098 37.856 30.789 37.7086 30.113 37.3312C28.5084 36.4356 28 34.788 28 33V30C28 28.8954 28.8954 28 30 28ZM24 33.5384C25.1046 33.5384 26 34.434 26 35.5384V41.077C26 42.1816 25.1046 43.077 24 43.077C22.8954 43.077 22 42.1816 22 41.077V35.5384C22 34.434 22.8954 33.5384 24 33.5384ZM28 42C28 40.8954 28.8954 40 30 40H32C33.1046 40 34 40.8954 34 42C34 43.1046 33.1046 44 32 44H30C28.8954 44 28 43.1046 28 42Z" fill="#B0C9E2"/>
</svg>
