<svg width="20" height="20" viewBox="0 0 20 20" fill="none" xmlns="http://www.w3.org/2000/svg">
  <path
    d="M5.09125 12.25L1.75 14.875V3.25C1.75 3.05109 1.82902 2.86032 1.96967 2.71967C2.11032 2.57902 2.30109 2.5 2.5 2.5H13.75C13.9489 2.5 14.1397 2.57902 14.2803 2.71967C14.421 2.86032 14.5 3.05109 14.5 3.25V12.25H5.09125ZM4.57225 10.75H13V4H3.25V11.7887L4.57225 10.75ZM7 13.75H14.6777L16 14.7887V7H16.75C16.9489 7 17.1397 7.07902 17.2803 7.21967C17.421 7.36032 17.5 7.55109 17.5 7.75V17.875L14.1588 15.25H7.75C7.55109 15.25 7.36032 15.171 7.21967 15.0303C7.07902 14.8897 7 14.6989 7 14.5V13.75Z"
    fill="currentColor" />
</svg>