<svg width="32" height="32" viewBox="0 0 32 32" fill="none" xmlns="http://www.w3.org/2000/svg">
<path d="M15.7352 8.65282L17.716 6.67206C19.9463 4.44177 22.8662 3.51666 25.9563 3.36549C27.1583 3.30669 27.7592 3.27729 28.2411 3.75921C28.7231 4.24111 28.6936 4.84207 28.6348 6.04402C28.4836 9.13417 27.5586 12.0541 25.3283 14.2843L23.3475 16.2651C21.7163 17.8963 21.2526 18.3602 21.595 20.1295C21.933 21.4811 22.26 22.7899 21.2772 23.7727C20.0851 24.9648 18.9976 24.9648 17.8055 23.7727L8.2276 14.1948C7.03548 13.0027 7.03544 11.9152 8.2276 10.7231C9.21039 9.74029 10.5192 10.0674 11.8708 10.4054C13.6402 10.7478 14.104 10.284 15.7352 8.65282Z" stroke="#B0C9E2" stroke-width="2" stroke-linejoin="round"/>
<path d="M22.6616 9.3335H22.6736" stroke="#B0C9E2" stroke-width="2.66667" stroke-linecap="round" stroke-linejoin="round"/>
<path d="M3.3335 28.6667L10.0002 22" stroke="#B0C9E2" stroke-width="2" stroke-linecap="round"/>
<path d="M11.3335 28.6667L14.0002 26" stroke="#B0C9E2" stroke-width="2" stroke-linecap="round"/>
<path d="M3.3335 20.6667L6.00016 18" stroke="#B0C9E2" stroke-width="2" stroke-linecap="round"/>
</svg>
