<svg width="32" height="32" viewBox="0 0 32 32" fill="none" xmlns="http://www.w3.org/2000/svg">
<path d="M24 10.6667C26.2091 10.6667 28 8.87589 28 6.66675C28 4.45761 26.2091 2.66675 24 2.66675C21.7909 2.66675 20 4.45761 20 6.66675C20 8.87589 21.7909 10.6667 24 10.6667Z" stroke="#B0C9E2" stroke-width="2" stroke-linecap="round" stroke-linejoin="round"/>
<path d="M8 29.3333C10.2091 29.3333 12 27.5424 12 25.3333C12 23.1241 10.2091 21.3333 8 21.3333C5.79086 21.3333 4 23.1241 4 25.3333C4 27.5424 5.79086 29.3333 8 29.3333Z" stroke="#B0C9E2" stroke-width="2" stroke-linecap="round" stroke-linejoin="round"/>
<path d="M15.9998 6.66675H11.3332C8.75584 6.66675 6.6665 8.75608 6.6665 11.3334C6.6665 13.9107 8.75584 16.0001 11.3332 16.0001H20.6665C23.2438 16.0001 25.3332 18.0894 25.3332 20.6667C25.3332 23.2441 23.2438 25.3334 20.6665 25.3334H15.9998" stroke="#B0C9E2" stroke-width="2" stroke-linecap="round" stroke-linejoin="round"/>
</svg>
