<svg viewBox="0 0 48 48" fill="none" xmlns="http://www.w3.org/2000/svg">
<path d="M32 34L32.4198 34.4198C33.1572 35.1572 33.526 35.526 33.9724 35.5012C34.4188 35.4766 34.7444 35.0692 35.3958 34.2548L37.9992 31M26 30.9086V31.6806C26 34.0844 26 35.2862 26.2968 36.3862C26.6632 37.7446 27.3582 38.9972 28.3232 40.0394C29.1044 40.8832 30.1356 41.5402 32.1976 42.8542C33.1208 43.4424 33.5824 43.7366 34.073 43.8734C34.679 44.0422 35.321 44.0422 35.927 43.8734C36.4176 43.7366 36.8792 43.4424 37.8024 42.8542C39.8644 41.5402 40.8956 40.8832 41.6768 40.0394C42.6418 38.9972 43.3368 37.7446 43.7032 36.3862C44 35.2862 44 34.0844 44 31.6806V30.9086C44 29.4118 44 28.6634 43.7164 28.0314C43.5414 27.6416 43.2908 27.2886 42.9784 26.992C42.4718 26.511 41.754 26.2482 40.318 25.7226L37.37 24.6436C36.198 24.2146 35.612 24 35 24C34.388 24 33.802 24.2146 32.63 24.6436L29.682 25.7226C28.246 26.2482 27.5282 26.511 27.0216 26.992C26.7092 27.2886 26.4586 27.6416 26.2836 28.0314C26 28.6634 26 29.4118 26 30.9086Z" stroke="#B0C9E2" stroke-width="3" stroke-linecap="round" stroke-linejoin="round"/>
<path d="M32.3424 15.8182V19M32.3424 15.8182C32.3424 14.312 33.609 13.0909 35.1712 13.0909C36.7336 13.0909 38 14.312 38 15.8182V19M32.3424 15.8182V10.3637C32.3424 8.85742 31.076 7.63638 29.5136 7.63638C27.9514 7.63638 26.6848 8.85742 26.6848 10.3637M26.6848 10.3637V19M26.6848 10.3637V6.72728C26.6848 5.22104 25.4184 4 23.856 4C22.2938 4 21.0272 5.22104 21.0272 6.72728V12.1818M21.0272 12.1818C21.0272 10.6756 19.7608 9.45456 18.1985 9.45456C16.6362 9.45456 15.3697 10.6756 15.3697 12.1818V25.276C15.3697 26.108 14.3047 26.5028 13.7248 25.8858L9.14224 21.0086C8.36306 20.0884 7.04616 19.7769 5.91376 20.2448C3.8971 21.078 3.42396 24.0206 4.7347 25.7168C6.97754 28.6196 9.27556 32.583 11.1308 36.0776C13.6485 40.8204 18.6177 44 24.1438 44M21.0272 12.1818V19" stroke="#B0C9E2" stroke-width="3" stroke-linecap="round" stroke-linejoin="round"/>
</svg>
