<svg width="32" height="32" viewBox="0 0 32 32" fill="none" xmlns="http://www.w3.org/2000/svg">
<path fill-rule="evenodd" clip-rule="evenodd" d="M1.3335 14.6666C1.3335 7.30278 7.30303 1.33325 14.6668 1.33325C22.0306 1.33325 28.0002 7.30278 28.0002 14.6666C28.0002 17.8683 26.8716 20.8064 24.9907 23.1048L30.2763 28.3904C30.797 28.9111 30.797 29.7554 30.2763 30.2761C29.7556 30.7967 28.9114 30.7967 28.3907 30.2761L23.1051 24.9905C20.8067 26.8714 17.8686 27.9999 14.6668 27.9999C7.30303 27.9999 1.3335 22.0303 1.3335 14.6666ZM14.6668 3.99992C8.77579 3.99992 4.00016 8.77554 4.00016 14.6666C4.00016 20.5577 8.77579 25.3333 14.6668 25.3333C20.5579 25.3333 25.3335 20.5577 25.3335 14.6666C25.3335 8.77554 20.5579 3.99992 14.6668 3.99992Z" fill="#004280"/>
<path fill-rule="evenodd" clip-rule="evenodd" d="M14.6668 6.66675C15.4032 6.66675 16.0002 7.26371 16.0002 8.00008V8.29488C17.6871 8.66827 19.1955 9.74653 19.5812 11.4193C19.7467 12.1368 19.2992 12.8526 18.5816 13.0181C17.8642 13.1836 17.1483 12.7361 16.9828 12.0185C16.883 11.5857 16.1356 10.8152 14.6668 10.8152C13.908 10.8152 13.2744 11.0426 12.8625 11.3446C12.4499 11.6472 12.3335 11.9549 12.3335 12.1705C12.3335 12.5685 12.438 12.6797 12.5752 12.7716C12.8267 12.9399 13.4186 13.1417 14.6668 13.1417C16.0746 13.1417 17.395 13.3339 18.392 13.9802C19.5103 14.7051 20.0002 15.8451 20.0002 17.1635C20.0002 18.6294 19.2735 19.7194 18.1787 20.3729C17.5315 20.7593 16.7786 20.9835 16.0002 21.0951V21.3334C16.0002 22.0698 15.4032 22.6667 14.6668 22.6667C13.9304 22.6667 13.3335 22.0698 13.3335 21.3334V21.0621C12.5028 20.905 11.7348 20.6015 11.0946 20.1713C10.1309 19.5235 9.3335 18.4854 9.3335 17.1635C9.3335 16.4273 9.93046 15.8302 10.6668 15.8302C11.4032 15.8302 12.0002 16.4273 12.0002 17.1635C12.0002 17.3266 12.0981 17.6327 12.5822 17.9582C13.0579 18.2779 13.791 18.5189 14.6668 18.5189C15.6512 18.5189 16.378 18.3422 16.8119 18.0831C17.1647 17.8726 17.3335 17.6182 17.3335 17.1635C17.3335 16.5617 17.1567 16.3574 16.9416 16.2179C16.6054 16.0001 15.9258 15.8083 14.6668 15.8083C13.2485 15.8083 12.0069 15.6002 11.0917 14.9875C10.0624 14.2983 9.66683 13.2573 9.66683 12.1705C9.66683 10.9012 10.3713 9.86459 11.2857 9.19408C11.8709 8.76494 12.5725 8.45708 13.3335 8.29089V8.00008C13.3335 7.26369 13.9304 6.66675 14.6668 6.66675Z" fill="#B0C9E2"/>
</svg>
