<svg width="48" height="48" viewBox="0 0 48 48" fill="none" xmlns="http://www.w3.org/2000/svg">
  <path
    d="M28.34 44.2012C33.6936 41.4468 43.5 34.7478 43.5002 22.4746V15.4961C43.5002 12.8013 43.5442 10.9212 42.3772 9.0371C41.229 7.18332 39.9272 6.5644 38.0862 5.64844C34.0802 3.6553 29.2182 2.5 24.0002 2.5C18.7823 2.5 13.9202 3.65528 9.91428 5.64844C8.07332 6.5644 6.77148 7.18332 5.62326 9.0371C4.45628 10.9212 4.50022 12.8013 4.50022 15.4961V22.4746C4.50048 34.7478 14.3069 41.4468 19.6604 44.2012L19.7338 44.239C21.1694 44.9778 22.184 45.5 24.0002 45.5C25.8164 45.5 26.8312 44.9778 28.2668 44.239L28.34 44.2012Z"
    fill="#004280" />
  <path fill-rule="evenodd" clip-rule="evenodd"
    d="M24 11.5C27.0376 11.5 29.5 13.9624 29.5 17V18.7617C31.247 19.3799 32.5 21.0412 32.5 23V26C32.5 28.4852 30.4852 30.5 28 30.5H20C17.5149 30.4998 15.5 28.4852 15.5 26V23C15.5 21.0414 16.7534 19.3801 18.5 18.7617V17C18.5 13.9626 20.9626 11.5003 24 11.5ZM24 14.5C22.6194 14.5003 21.5 15.6195 21.5 17V18.5H26.5V17C26.5 15.6193 25.3806 14.5 24 14.5Z"
    fill="#B0C9E2" />
</svg>