<svg width="48" height="48" viewBox="0 0 48 48" fill="none" xmlns="http://www.w3.org/2000/svg">
  <path
    d="M4 27.7736C4 20.4512 4 16.79 6.15714 14.4703C6.23684 14.3846 6.31838 14.3007 6.4017 14.2188C8.65696 12 12.2164 12 19.3354 12C21.0224 12 21.8352 12.006 22.6088 12.303C23.3538 12.589 23.9778 13.1238 25.2258 14.1936L28.6418 17.1215C30.2932 18.537 31.1188 19.2447 31.5594 20.2122C32 21.1798 32 22.2854 32 24.4964V29.6C32 35.5996 32 38.5994 30.5146 40.7022C30.0348 41.3814 29.4542 41.9788 28.7938 42.4722C26.7494 44 23.833 44 18 44C12.1671 44 9.25062 44 7.20612 42.4722C6.54582 41.9788 5.96516 41.3814 5.48542 40.7022C4 38.5994 4 35.5996 4 29.6V27.7736Z"
    stroke="#B0C9E2" stroke-width="3" />
  <path
    d="M31.9558 32C36.9738 32 39.4828 32 41.2418 30.6632C41.8098 30.2314 42.3094 29.7088 42.722 29.1144C44 27.2744 44 24.6496 44 19.4V14.9344C44 12.9997 44 12.0323 43.621 11.1857C43.242 10.3391 42.5316 9.71984 41.1108 8.4813L38.1722 5.91938C37.0984 4.98336 36.5616 4.51534 35.9208 4.26512C35.2552 4.00526 34.556 4 33.1046 4C26.9802 4 23.918 4 21.9778 5.94142C21.906 6.01316 21.836 6.08654 21.7674 6.16152C20.5844 7.45542 20.1554 9.22632 20 12"
    stroke="#B0C9E2" stroke-width="3" />
</svg>