<svg width="120" height="124" viewBox="0 0 120 124" fill="none" xmlns="http://www.w3.org/2000/svg">
  <path
    d="M55.3574 3.46118C58.2304 1.80249 61.7696 1.80249 64.6426 3.46118L108.604 28.842C111.477 30.5008 113.247 33.5666 113.247 36.884V87.6458C113.247 90.9632 111.477 94.029 108.604 95.6877L64.6426 121.069C61.7696 122.727 58.2304 122.727 55.3574 121.069L11.3955 95.6877C8.52255 94.029 6.75293 90.9632 6.75293 87.6458V36.884C6.75293 33.5666 8.52255 30.5008 11.3955 28.842L55.3574 3.46118Z"
    fill="#222A35" stroke="url(#paint0_linear_197_18039)" stroke-width="2.57143" />
  <path
    d="M26.5085 37.5018C27.7649 37.8364 28.9808 38.3218 30.1558 38.9583L28.0016 43.193C27.2998 42.7524 26.4063 42.3692 25.3213 42.0425C24.2358 41.7162 23.1954 41.553 22.2003 41.553C20.7641 41.553 20.0461 41.8876 20.0461 42.5566C20.0461 42.8343 20.1643 43.0584 20.4011 43.2297C20.6375 43.4011 21.0089 43.5442 21.5149 43.6581L24.134 44.1966C25.423 44.4743 26.5 44.8006 27.3652 45.1757C28.23 45.5514 28.9319 46.0815 29.4704 46.7668C30.0089 47.4523 30.2782 48.35 30.2782 49.4595C30.2782 50.7488 29.9393 51.8461 29.2623 52.7519C28.5849 53.6576 27.6589 54.3392 26.484 54.7958C25.309 55.2525 23.9872 55.4812 22.5185 55.4812C19.173 55.4812 16.3334 54.6329 14 52.9355L16.5212 48.7986C17.3206 49.3861 18.2753 49.8799 19.3853 50.2796C20.4948 50.6796 21.5963 50.8793 22.6899 50.8793C24.24 50.8793 25.0153 50.545 25.0153 49.8757C25.0153 49.5168 24.7988 49.2231 24.3666 48.9944C23.934 48.7661 23.2689 48.5623 22.3716 48.3825L20.3644 47.9663C16.6597 47.2159 14.8077 45.4451 14.8077 42.6545C14.8077 41.4306 15.1627 40.3945 15.8725 39.5457C16.5824 38.6974 17.5165 38.061 18.6754 37.6364C19.8339 37.2123 21.0658 37 22.3716 37C23.8728 37 25.2516 37.1675 26.5085 37.5018Z"
    fill="#C4C4C4" />
  <path d="M36.912 42.9481V55.1629H32.3101V37.416H39.8005L42.8113 48.4558L45.7732 37.416H53.1902V55.1629H48.5882V42.8747L45.0633 55.1629H40.4859L36.912 42.9481Z" fill="#C4C4C4" />
  <path d="M66.1882 37.416L72.6261 55.1629H67.0695L66.1637 52.201H60.5093L59.6035 55.1629H54.1448L60.5827 37.416H66.1882ZM64.9888 48.3824L63.3732 43.0461L61.7086 48.3824H64.9888Z" fill="#C4C4C4" />
  <path
    d="M78.966 48.9209V55.1629H73.8501V37.416H81.1936C83.7718 37.416 85.7711 37.8321 87.1909 38.6644C88.6107 39.4967 89.3205 40.9818 89.3205 43.1195C89.3205 45.4369 88.2679 47.0689 86.1628 48.0152L90.3731 55.1629H84.6206L81.0713 48.9209H78.966ZM78.966 45.0533H81.7811C82.499 45.0533 83.0456 44.8942 83.4212 44.576C83.7964 44.2577 83.9841 43.8378 83.9841 43.3153C83.9841 42.7932 83.7964 42.3691 83.4212 42.0425C83.0456 41.7162 82.499 41.5529 81.7811 41.5529H78.966V45.0533Z"
    fill="#C4C4C4" />
  <path d="M90.2017 41.7977V37.416H105.917V41.7977H100.605V55.1629H95.4891V41.7977H90.2017Z" fill="#C4C4C4" />
  <path d="M26.0571 71.7997V75.7673H14V59.7866H18.6069V71.7997H26.0571Z" fill="#C4C4C4" />
  <path d="M39.8999 59.7866V63.7322H31.8544V65.7601H39.4811V69.7278H31.8544V71.7997H39.9881V75.7673H27.2476V59.7866H39.8999Z" fill="#C4C4C4" />
  <path
    d="M54.3155 61.6382C55.976 62.8726 56.8064 64.9153 56.8064 67.7659C56.8064 70.6314 55.976 72.6814 54.3155 73.9158C52.6548 75.1501 50.4141 75.7673 47.5926 75.7673H42.082V59.7866H47.5926C50.4141 59.7866 52.6548 60.4038 54.3155 61.6382ZM46.6889 63.5118V72.0422H47.6588C48.599 72.0422 49.3815 71.932 50.0062 71.7116C50.6307 71.4912 51.1194 71.0688 51.4721 70.4442C51.8247 69.8196 52.0011 68.927 52.0011 67.7659C52.0011 66.6053 51.8247 65.716 51.4721 65.0988C51.1194 64.4817 50.6307 64.0629 50.0062 63.8424C49.3815 63.622 48.599 63.5118 47.6588 63.5118H46.6889Z"
    fill="#C4C4C4" />
  <path
    d="M63.6727 70.9731C64.2678 71.7886 65.1308 72.1964 66.2627 72.1964C66.8942 72.1964 67.4344 72.09 67.8827 71.8768C68.3309 71.6639 68.6652 71.3994 68.8856 71.0833C69.1061 70.7674 69.2163 70.455 69.2163 70.1465V70.1244H65.7557V66.6417H73.6909V75.7673H70.098L70.076 74.07C69.6055 74.7313 68.9739 75.2273 68.1803 75.5579C67.3867 75.8885 66.4831 76.0538 65.4691 76.0538C63.9554 76.0538 62.6329 75.7087 61.5015 75.0179C60.3698 74.3273 59.499 73.3537 58.8894 72.0973C58.2794 70.8407 57.9746 69.3678 57.9746 67.6778C57.9746 66.0025 58.3052 64.5443 58.9665 63.3023C59.6279 62.0607 60.5718 61.1019 61.7991 60.4258C63.0258 59.75 64.4696 59.4119 66.1304 59.4119C67.879 59.4119 69.3998 59.8124 70.6931 60.6131C71.9861 61.4143 72.8899 62.6155 73.4043 64.2171L69.0841 64.9225C68.9222 64.4375 68.6025 64.0408 68.1252 63.7322C67.6475 63.4235 67.0044 63.2693 66.1965 63.2693C65.1384 63.2693 64.3043 63.6587 63.6946 64.4375C63.0847 65.2166 62.7799 66.2967 62.7799 67.6778C62.7799 69.0591 63.0774 70.1575 63.6727 70.9731Z"
    fill="#C4C4C4" />
  <path d="M88.8559 59.7866V63.7322H80.8104V65.7601H88.4371V69.7278H80.8104V71.7997H88.9441V75.7673H76.2036V59.7866H88.8559Z" fill="#C4C4C4" />
  <path
    d="M95.6449 70.1465V75.7673H91.0381V59.7866H97.6508C99.9724 59.7866 101.773 60.1613 103.051 60.9108C104.33 61.6602 104.969 62.9975 104.969 64.9225C104.969 67.0093 104.021 68.4789 102.125 69.331L105.917 75.7673H100.737L97.5406 70.1465H95.6449ZM95.6449 66.6638H98.1798C98.8262 66.6638 99.3185 66.5206 99.6567 66.234C99.9945 65.9474 100.164 65.5693 100.164 65.0988C100.164 64.6287 99.9945 64.2468 99.6567 63.9526C99.3185 63.6588 98.8262 63.5118 98.1798 63.5118H95.6449V66.6638Z"
    fill="#C4C4C4" />
  <path
    d="M44.5504 86V81.455H46.0861C46.4426 81.455 46.7341 81.5194 46.9605 81.6481C47.1883 81.7753 47.357 81.9477 47.4665 82.1652C47.5759 82.3826 47.6307 82.6253 47.6307 82.8931C47.6307 83.1609 47.5759 83.4042 47.4665 83.6232C47.3585 83.8422 47.1913 84.0167 46.9649 84.1469C46.7385 84.2757 46.4486 84.34 46.095 84.34H44.9942V83.8518H46.0772C46.3213 83.8518 46.5174 83.8096 46.6653 83.7253C46.8133 83.6409 46.9205 83.527 46.9871 83.3835C47.0552 83.2385 47.0892 83.075 47.0892 82.8931C47.0892 82.7111 47.0552 82.5483 46.9871 82.4048C46.9205 82.2613 46.8125 82.1489 46.6631 82.0675C46.5137 81.9847 46.3154 81.9432 46.0683 81.9432H45.1007V86H44.5504ZM49.7944 86.071C49.4867 86.071 49.2167 85.9978 48.9844 85.8513C48.7536 85.7048 48.5731 85.4999 48.4429 85.2366C48.3142 84.9732 48.2498 84.6655 48.2498 84.3134C48.2498 83.9583 48.3142 83.6483 48.4429 83.3835C48.5731 83.1187 48.7536 82.913 48.9844 82.7666C49.2167 82.6201 49.4867 82.5469 49.7944 82.5469C50.1022 82.5469 50.3714 82.6201 50.6022 82.7666C50.8345 82.913 51.015 83.1187 51.1437 83.3835C51.2739 83.6483 51.339 83.9583 51.339 84.3134C51.339 84.6655 51.2739 84.9732 51.1437 85.2366C51.015 85.4999 50.8345 85.7048 50.6022 85.8513C50.3714 85.9978 50.1022 86.071 49.7944 86.071ZM49.7944 85.6005C50.0282 85.6005 50.2205 85.5406 50.3714 85.4208C50.5223 85.3009 50.634 85.1434 50.7065 84.9481C50.779 84.7528 50.8153 84.5412 50.8153 84.3134C50.8153 84.0855 50.779 83.8732 50.7065 83.6765C50.634 83.4797 50.5223 83.3206 50.3714 83.1993C50.2205 83.078 50.0282 83.0173 49.7944 83.0173C49.5607 83.0173 49.3683 83.078 49.2174 83.1993C49.0665 83.3206 48.9548 83.4797 48.8823 83.6765C48.8098 83.8732 48.7736 84.0855 48.7736 84.3134C48.7736 84.5412 48.8098 84.7528 48.8823 84.9481C48.9548 85.1434 49.0665 85.3009 49.2174 85.4208C49.3683 85.5406 49.5607 85.6005 49.7944 85.6005ZM52.7948 86L51.7562 82.5912H52.3066L53.0434 85.2011H53.0789L53.8068 82.5912H54.3661L55.0851 85.1922H55.1206L55.8574 82.5912H56.4078L55.3692 86H54.8543L54.1086 83.3813H54.0554L53.3097 86H52.7948ZM58.4134 86.071C58.085 86.071 57.8016 85.9985 57.5634 85.8535C57.3267 85.7071 57.144 85.5029 57.0153 85.241C56.8881 84.9777 56.8244 84.6714 56.8244 84.3223C56.8244 83.9731 56.8881 83.6654 57.0153 83.3991C57.144 83.1313 57.323 82.9227 57.5523 82.7732C57.7831 82.6223 58.0524 82.5469 58.3601 82.5469C58.5377 82.5469 58.713 82.5765 58.8861 82.6356C59.0592 82.6948 59.2168 82.791 59.3588 82.9241C59.5008 83.0558 59.614 83.2304 59.6984 83.4479C59.7827 83.6654 59.8248 83.9331 59.8248 84.2512V84.4732H57.1973V84.0204H59.2922C59.2922 83.8281 59.2538 83.6565 59.1768 83.5056C59.1014 83.3547 58.9934 83.2356 58.8528 83.1483C58.7137 83.061 58.5495 83.0173 58.3601 83.0173C58.1515 83.0173 57.971 83.0691 57.8187 83.1727C57.6677 83.2748 57.5516 83.4079 57.4702 83.5722C57.3889 83.7364 57.3482 83.9124 57.3482 84.1003V84.4021C57.3482 84.6596 57.3926 84.8778 57.4813 85.0568C57.5716 85.2344 57.6966 85.3697 57.8564 85.4629C58.0162 85.5547 58.2018 85.6005 58.4134 85.6005C58.551 85.6005 58.6753 85.5813 58.7862 85.5428C58.8987 85.5029 58.9956 85.4437 59.077 85.3653C59.1583 85.2854 59.2212 85.1863 59.2656 85.0679L59.7716 85.21C59.7183 85.3816 59.6288 85.5325 59.5031 85.6627C59.3773 85.7914 59.222 85.892 59.037 85.9645C58.8521 86.0355 58.6442 86.071 58.4134 86.071ZM60.6216 86V82.5912H61.1275V83.1061H61.1631C61.2252 82.9374 61.3376 82.8006 61.5004 82.6956C61.6631 82.5905 61.8466 82.538 62.0507 82.538C62.0892 82.538 62.1373 82.5387 62.195 82.5402C62.2527 82.5417 62.2963 82.5439 62.3259 82.5469V83.0795C62.3082 83.075 62.2675 83.0684 62.2039 83.0595C62.1417 83.0491 62.0759 83.044 62.0064 83.044C61.8407 83.044 61.6927 83.0787 61.5625 83.1483C61.4338 83.2163 61.3317 83.311 61.2563 83.4323C61.1823 83.5522 61.1453 83.689 61.1453 83.8429V86H60.6216ZM64.2722 86.071C63.9438 86.071 63.6604 85.9985 63.4222 85.8535C63.1855 85.7071 63.0028 85.5029 62.8741 85.241C62.7468 84.9777 62.6832 84.6714 62.6832 84.3223C62.6832 83.9731 62.7468 83.6654 62.8741 83.3991C63.0028 83.1313 63.1818 82.9227 63.4111 82.7732C63.6419 82.6223 63.9112 82.5469 64.2189 82.5469C64.3965 82.5469 64.5718 82.5765 64.7449 82.6356C64.918 82.6948 65.0756 82.791 65.2176 82.9241C65.3596 83.0558 65.4728 83.2304 65.5571 83.4479C65.6415 83.6654 65.6836 83.9331 65.6836 84.2512V84.4732H63.0561V84.0204H65.151C65.151 83.8281 65.1126 83.6565 65.0356 83.5056C64.9602 83.3547 64.8522 83.2356 64.7116 83.1483C64.5725 83.061 64.4083 83.0173 64.2189 83.0173C64.0103 83.0173 63.8298 83.0691 63.6774 83.1727C63.5265 83.2748 63.4104 83.4079 63.329 83.5722C63.2477 83.7364 63.207 83.9124 63.207 84.1003V84.4021C63.207 84.6596 63.2514 84.8778 63.3401 85.0568C63.4304 85.2344 63.5554 85.3697 63.7152 85.4629C63.875 85.5547 64.0606 85.6005 64.2722 85.6005C64.4098 85.6005 64.5341 85.5813 64.645 85.5428C64.7575 85.5029 64.8544 85.4437 64.9358 85.3653C65.0171 85.2854 65.08 85.1863 65.1244 85.0679L65.6304 85.21C65.5771 85.3816 65.4876 85.5325 65.3619 85.6627C65.2361 85.7914 65.0807 85.892 64.8958 85.9645C64.7109 86.0355 64.503 86.071 64.2722 86.071ZM67.7675 86.071C67.4834 86.071 67.2327 85.9993 67.0152 85.8557C66.7977 85.7108 66.6276 85.5066 66.5048 85.2432C66.382 84.9784 66.3206 84.6655 66.3206 84.3045C66.3206 83.9465 66.382 83.6358 66.5048 83.3724C66.6276 83.1091 66.7984 82.9056 67.0174 82.7621C67.2364 82.6186 67.4894 82.5469 67.7764 82.5469C67.9983 82.5469 68.1736 82.5838 68.3023 82.6578C68.4325 82.7303 68.5317 82.8132 68.5997 82.9064C68.6693 82.9981 68.7233 83.0736 68.7617 83.1327H68.8061V81.455H69.3299V86H68.8239V85.4763H68.7617C68.7233 85.5384 68.6685 85.6168 68.5975 85.7115C68.5265 85.8047 68.4251 85.8883 68.2935 85.9623C68.1618 86.0348 67.9865 86.071 67.7675 86.071ZM67.8385 85.6005C68.0486 85.6005 68.2262 85.5458 68.3711 85.4363C68.5161 85.3254 68.6264 85.1722 68.7018 84.9769C68.7773 84.7802 68.815 84.5531 68.815 84.2956C68.815 84.0412 68.778 83.8185 68.704 83.6276C68.6301 83.4353 68.5206 83.2859 68.3756 83.1793C68.2306 83.0713 68.0516 83.0173 67.8385 83.0173C67.6166 83.0173 67.4317 83.0743 67.2837 83.1882C67.1372 83.3007 67.027 83.4538 66.953 83.6476C66.8806 83.8399 66.8443 84.0559 66.8443 84.2956C66.8443 84.5383 66.8813 84.7587 66.9553 84.957C67.0307 85.1537 67.1417 85.3106 67.2882 85.4274C67.4361 85.5428 67.6196 85.6005 67.8385 85.6005ZM72.1905 86V81.455H72.7142V83.1327H72.7586C72.797 83.0736 72.8503 82.9981 72.9184 82.9064C72.9879 82.8132 73.087 82.7303 73.2157 82.6578C73.3459 82.5838 73.522 82.5469 73.7439 82.5469C74.0309 82.5469 74.2839 82.6186 74.5029 82.7621C74.7219 82.9056 74.8928 83.1091 75.0156 83.3724C75.1383 83.6358 75.1997 83.9465 75.1997 84.3045C75.1997 84.6655 75.1383 84.9784 75.0156 85.2432C74.8928 85.5066 74.7226 85.7108 74.5051 85.8557C74.2876 85.9993 74.0369 86.071 73.7528 86.071C73.5338 86.071 73.3585 86.0348 73.2268 85.9623C73.0952 85.8883 72.9938 85.8047 72.9228 85.7115C72.8518 85.6168 72.797 85.5384 72.7586 85.4763H72.6964V86H72.1905ZM72.7053 84.2956C72.7053 84.5531 72.743 84.7802 72.8185 84.9769C72.894 85.1722 73.0042 85.3254 73.1492 85.4363C73.2942 85.5458 73.4717 85.6005 73.6818 85.6005C73.9008 85.6005 74.0835 85.5428 74.2299 85.4274C74.3779 85.3106 74.4889 85.1537 74.5628 84.957C74.6383 84.7587 74.676 84.5383 74.676 84.2956C74.676 84.0559 74.639 83.8399 74.565 83.6476C74.4925 83.4538 74.3823 83.3007 74.2344 83.1882C74.0879 83.0743 73.9037 83.0173 73.6818 83.0173C73.4687 83.0173 73.2897 83.0713 73.1447 83.1793C72.9997 83.2859 72.8903 83.4353 72.8163 83.6276C72.7423 83.8185 72.7053 84.0412 72.7053 84.2956ZM76.2162 87.2783C76.1274 87.2783 76.0482 87.2709 75.9787 87.2561C75.9092 87.2428 75.8611 87.2295 75.8344 87.2161L75.9676 86.7545C76.0948 86.7871 76.2073 86.7989 76.3049 86.79C76.4026 86.7812 76.4891 86.7375 76.5646 86.6591C76.6415 86.5822 76.7118 86.4572 76.7754 86.2841L76.8731 86.0178L75.6125 82.5912H76.1806L77.1216 85.3076H77.1571L78.0981 82.5912H78.6662L77.2193 86.4971C77.1542 86.6732 77.0735 86.8189 76.9774 86.9343C76.8812 87.0512 76.7695 87.1377 76.6423 87.194C76.5165 87.2502 76.3745 87.2783 76.2162 87.2783ZM81.1861 81.455H81.843L83.3876 85.2277H83.4409L84.9855 81.455H85.6424V86H85.1275V82.5469H85.0831L83.6628 86H83.1657L81.7454 82.5469H81.701V86H81.1861V81.455ZM87.678 86.0799C87.462 86.0799 87.2659 86.0392 87.0899 85.9578C86.9138 85.875 86.774 85.7559 86.6704 85.6005C86.5669 85.4437 86.5151 85.2543 86.5151 85.0324C86.5151 84.8371 86.5536 84.6788 86.6305 84.5575C86.7074 84.4347 86.8103 84.3385 86.939 84.269C87.0677 84.1995 87.2097 84.1477 87.3651 84.1136C87.5219 84.0781 87.6795 84.05 87.8378 84.0293C88.0449 84.0027 88.2128 83.9827 88.3415 83.9694C88.4717 83.9546 88.5664 83.9302 88.6256 83.8962C88.6863 83.8621 88.7166 83.803 88.7166 83.7186V83.7009C88.7166 83.4819 88.6567 83.3118 88.5368 83.1904C88.4185 83.0691 88.2387 83.0085 87.9975 83.0085C87.7475 83.0085 87.5515 83.0632 87.4095 83.1727C87.2674 83.2822 87.1676 83.3991 87.1099 83.5233L86.6127 83.3458C86.7015 83.1387 86.8199 82.9774 86.9678 82.862C87.1173 82.7451 87.28 82.6637 87.4561 82.6179C87.6336 82.5705 87.8082 82.5469 87.9798 82.5469C88.0893 82.5469 88.215 82.5602 88.3571 82.5868C88.5006 82.612 88.6389 82.6645 88.7721 82.7444C88.9067 82.8243 89.0184 82.9448 89.1072 83.1061C89.1959 83.2674 89.2403 83.4834 89.2403 83.7541V86H88.7166V85.5384H88.69C88.6544 85.6124 88.5953 85.6915 88.5124 85.7759C88.4296 85.8602 88.3193 85.9319 88.1817 85.9911C88.0442 86.0503 87.8762 86.0799 87.678 86.0799ZM87.7579 85.6094C87.965 85.6094 88.1396 85.5687 88.2816 85.4874C88.4251 85.406 88.5331 85.3009 88.6056 85.1722C88.6796 85.0435 88.7166 84.9081 88.7166 84.7661V84.2867C88.6944 84.3134 88.6456 84.3378 88.5701 84.36C88.4961 84.3807 88.4103 84.3992 88.3127 84.4155C88.2165 84.4303 88.1226 84.4436 88.0308 84.4554C87.9406 84.4658 87.8674 84.4746 87.8111 84.482C87.675 84.4998 87.5478 84.5286 87.4294 84.5686C87.3125 84.6071 87.2179 84.6655 87.1454 84.7439C87.0743 84.8208 87.0388 84.9259 87.0388 85.059C87.0388 85.241 87.1062 85.3786 87.2408 85.4718C87.3769 85.5635 87.5493 85.6094 87.7579 85.6094ZM90.0986 86V85.6005L92.0338 83.115V83.0795H90.1608V82.5912H92.7084V83.0085L90.8265 85.4763V85.5118H92.7706V86H90.0986ZM93.4796 86V85.6005L95.4148 83.115V83.0795H93.5418V82.5912H96.0895V83.0085L94.2075 85.4763V85.5118H96.1516V86H93.4796ZM98.2898 86.071C97.9614 86.071 97.6781 85.9985 97.4399 85.8535C97.2031 85.7071 97.0204 85.5029 96.8917 85.241C96.7645 84.9777 96.7009 84.6714 96.7009 84.3223C96.7009 83.9731 96.7645 83.6654 96.8917 83.3991C97.0204 83.1313 97.1994 82.9227 97.4288 82.7732C97.6596 82.6223 97.9288 82.5469 98.2366 82.5469C98.4141 82.5469 98.5894 82.5765 98.7625 82.6356C98.9356 82.6948 99.0932 82.791 99.2352 82.9241C99.3773 83.0558 99.4904 83.2304 99.5748 83.4479C99.6591 83.6654 99.7013 83.9331 99.7013 84.2512V84.4732H97.0737V84.0204H99.1687C99.1687 83.8281 99.1302 83.6565 99.0533 83.5056C98.9778 83.3547 98.8698 83.2356 98.7292 83.1483C98.5902 83.061 98.4259 83.0173 98.2366 83.0173C98.028 83.0173 97.8475 83.0691 97.6951 83.1727C97.5442 83.2748 97.428 83.4079 97.3467 83.5722C97.2653 83.7364 97.2246 83.9124 97.2246 84.1003V84.4021C97.2246 84.6596 97.269 84.8778 97.3578 85.0568C97.448 85.2344 97.573 85.3697 97.7328 85.4629C97.8926 85.5547 98.0783 85.6005 98.2898 85.6005C98.4274 85.6005 98.5517 85.5813 98.6627 85.5428C98.7751 85.5029 98.872 85.4437 98.9534 85.3653C99.0348 85.2854 99.0976 85.1863 99.142 85.0679L99.648 85.21C99.5947 85.3816 99.5052 85.5325 99.3795 85.6627C99.2537 85.7914 99.0984 85.892 98.9134 85.9645C98.7285 86.0355 98.5206 86.071 98.2898 86.071ZM100.498 86V82.5912H101.004V83.1061H101.039C101.102 82.9374 101.214 82.8006 101.377 82.6956C101.54 82.5905 101.723 82.538 101.927 82.538C101.966 82.538 102.014 82.5387 102.071 82.5402C102.129 82.5417 102.173 82.5439 102.202 82.5469V83.0795C102.185 83.075 102.144 83.0684 102.08 83.0595C102.018 83.0491 101.952 83.044 101.883 83.044C101.717 83.044 101.569 83.0787 101.439 83.1483C101.31 83.2163 101.208 83.311 101.133 83.4323C101.059 83.5522 101.022 83.689 101.022 83.8429V86H100.498ZM103.826 86.0799C103.61 86.0799 103.414 86.0392 103.238 85.9578C103.062 85.875 102.922 85.7559 102.819 85.6005C102.715 85.4437 102.663 85.2543 102.663 85.0324C102.663 84.8371 102.702 84.6788 102.779 84.5575C102.856 84.4347 102.959 84.3385 103.087 84.269C103.216 84.1995 103.358 84.1477 103.513 84.1136C103.67 84.0781 103.828 84.05 103.986 84.0293C104.193 84.0027 104.361 83.9827 104.49 83.9694C104.62 83.9546 104.715 83.9302 104.774 83.8962C104.835 83.8621 104.865 83.803 104.865 83.7186V83.7009C104.865 83.4819 104.805 83.3118 104.685 83.1904C104.567 83.0691 104.387 83.0085 104.146 83.0085C103.896 83.0085 103.7 83.0632 103.558 83.1727C103.416 83.2822 103.316 83.3991 103.258 83.5233L102.761 83.3458C102.85 83.1387 102.968 82.9774 103.116 82.862C103.266 82.7451 103.428 82.6637 103.604 82.6179C103.782 82.5705 103.956 82.5469 104.128 82.5469C104.238 82.5469 104.363 82.5602 104.505 82.5868C104.649 82.612 104.787 82.6645 104.92 82.7444C105.055 82.8243 105.167 82.9448 105.255 83.1061C105.344 83.2674 105.389 83.4834 105.389 83.7541V86H104.865V85.5384H104.838C104.803 85.6124 104.744 85.6915 104.661 85.7759C104.578 85.8602 104.468 85.9319 104.33 85.9911C104.192 86.0503 104.025 86.0799 103.826 86.0799ZM103.906 85.6094C104.113 85.6094 104.288 85.5687 104.43 85.4874C104.573 85.406 104.681 85.3009 104.754 85.1722C104.828 85.0435 104.865 84.9081 104.865 84.7661V84.2867C104.843 84.3134 104.794 84.3378 104.718 84.36C104.644 84.3807 104.559 84.3992 104.461 84.4155C104.365 84.4303 104.271 84.4436 104.179 84.4554C104.089 84.4658 104.016 84.4746 103.959 84.482C103.823 84.4998 103.696 84.5286 103.578 84.5686C103.461 84.6071 103.366 84.6655 103.294 84.7439C103.223 84.8208 103.187 84.9259 103.187 85.059C103.187 85.241 103.254 85.3786 103.389 85.4718C103.525 85.5635 103.698 85.6094 103.906 85.6094Z"
    fill="#C4C4C4" />
  <defs>
    <linearGradient id="paint0_linear_197_18039" x1="60" y1="2.26489" x2="60" y2="122.265" gradientUnits="userSpaceOnUse">
      <stop stop-color="white" stop-opacity="0.4" />
      <stop offset="1" stop-color="#011427" />
    </linearGradient>
  </defs>
</svg>