<svg width="32" height="32" viewBox="0 0 32 32" fill="none" xmlns="http://www.w3.org/2000/svg">
<path d="M2.6665 16C2.6665 10.3431 2.6665 7.51472 4.42386 5.75736C6.18122 4 9.00965 4 14.6665 4H17.3332C22.99 4 25.8185 4 27.5758 5.75736C29.3332 7.51472 29.3332 10.3431 29.3332 16C29.3332 21.6568 29.3332 24.4853 27.5758 26.2427C25.8185 28 22.99 28 17.3332 28H14.6665C9.00965 28 6.18122 28 4.42386 26.2427C2.6665 24.4853 2.6665 21.6568 2.6665 16Z" stroke="#B0C9E2" stroke-width="2"/>
<path d="M8.6665 4V28" stroke="#B0C9E2" stroke-width="2" stroke-linejoin="round"/>
<path d="M22.6743 11.8458L23.4852 12.6535C24.1713 13.337 24.1713 14.445 23.4853 15.1283L19.2365 19.4398C18.9023 19.7727 18.4747 19.9971 18.0101 20.0835L15.3768 20.653C14.9611 20.7429 14.5908 20.3751 14.6799 19.9607L15.2404 17.353C15.3272 16.8902 15.5525 16.4643 15.8867 16.1315L20.1896 11.8458C20.8757 11.1624 21.9881 11.1624 22.6743 11.8458Z" stroke="#B0C9E2" stroke-width="2" stroke-linecap="round" stroke-linejoin="round"/>
</svg>
