<svg width="84" height="84" viewBox="0 0 84 84" fill="none" xmlns="http://www.w3.org/2000/svg">
<path d="M39.6504 2.39648C41.1045 1.55698 42.8955 1.55697 44.3496 2.39648L75.123 20.1631C76.5772 21.0027 77.4727 22.5543 77.4727 24.2334V59.7666C77.4727 61.4457 76.5772 62.9973 75.123 63.8369L44.3496 81.6035C42.8955 82.443 41.1045 82.443 39.6504 81.6035L8.87695 63.8369C7.42282 62.9973 6.52734 61.4457 6.52734 59.7666V24.2334C6.52734 22.5543 7.42282 21.0027 8.87695 20.1631L39.6504 2.39648Z" fill="#B0C9E2" stroke="url(#paint0_linear_537_1549)" stroke-width="1.8"/>
<path d="M42 63.4817C53.8742 63.4817 63.5 53.8559 63.5 41.9817C63.5 30.1076 53.8742 20.4817 42 20.4817C30.1259 20.4817 20.5 30.1076 20.5 41.9817C20.5 53.8559 30.1259 63.4817 42 63.4817Z" fill="#004280"/>
<path fill-rule="evenodd" clip-rule="evenodd" d="M42 32.9817C37.0294 32.9817 33 37.0111 33 41.9817C33 46.9523 37.0294 50.9817 42 50.9817C46.9706 50.9817 51 46.9523 51 41.9817C51 41.0393 50.8555 40.1325 50.5881 39.2813C50.4227 38.7544 50.7156 38.1931 51.2425 38.0276C51.7695 37.8621 52.3308 38.1551 52.4962 38.682C52.8238 39.7249 53 40.8337 53 41.9817C53 48.0568 48.0751 52.9817 42 52.9817C35.9249 52.9817 31 48.0568 31 41.9817C31 35.9066 35.9249 30.9817 42 30.9817C43.2012 30.9817 44.3594 31.1746 45.444 31.5319C45.9686 31.7047 46.2537 32.27 46.081 32.7946C45.9082 33.3191 45.3428 33.6043 44.8183 33.4315C43.933 33.1399 42.986 32.9817 42 32.9817Z" fill="#B0C9E2"/>
<path fill-rule="evenodd" clip-rule="evenodd" d="M42 37.9817C39.7909 37.9817 38 39.7725 38 41.9817C38 44.1908 39.7909 45.9817 42 45.9817C44.2091 45.9817 46 44.1908 46 41.9817C46 41.4294 46.4477 40.9817 47 40.9817C47.5523 40.9817 48 41.4294 48 41.9817C48 45.2954 45.3137 47.9817 42 47.9817C38.6863 47.9817 36 45.2954 36 41.9817C36 38.668 38.6863 35.9817 42 35.9817C42.5523 35.9817 43 36.4294 43 36.9817C43 37.534 42.5523 37.9817 42 37.9817Z" fill="#B0C9E2"/>
<path fill-rule="evenodd" clip-rule="evenodd" d="M49.5 30.9817C50.0523 30.9817 50.5 31.4294 50.5 31.9817V33.4817H52C52.5523 33.4817 53 33.9294 53 34.4817C53 35.034 52.5523 35.4817 52 35.4817H49.9142L42.7071 42.6888C42.3166 43.0793 41.6834 43.0793 41.2929 42.6888C40.9024 42.2983 40.9024 41.6651 41.2929 41.2746L48.5 34.0675V31.9817C48.5 31.4294 48.9477 30.9817 49.5 30.9817Z" fill="#B0C9E2"/>
<defs>
<linearGradient id="paint0_linear_537_1549" x1="42" y1="0" x2="42" y2="84" gradientUnits="userSpaceOnUse">
<stop stop-color="white" stop-opacity="0.1"/>
<stop offset="1" stop-color="#011427"/>
</linearGradient>
</defs>
</svg>
