<svg viewBox="0 0 143 26" fill="none" xmlns="http://www.w3.org/2000/svg">
  <path
    d="M0.0185971 7.58908V2.68566L4.2574 0.239258L8.50151 2.68566V7.58908L4.2574 10.0355L0.0185971 7.58908ZM18.2171 7.58908V2.68566L22.4559 0.239258L26.7001 2.68566V7.58908L22.4559 10.0355L18.2171 7.58908ZM0 23.2629V18.3594L4.2388 15.913L8.48292 18.3594V23.2629L4.2388 25.7093L0 23.2629ZM18.2008 23.2629V18.3594L22.4396 15.913L26.6837 18.3594V23.2629L22.4396 25.7093L18.2008 23.2629ZM4.58329 15.4645V10.5615L8.82209 8.11511L13.0662 10.5615V15.4645L8.82209 17.9113L4.58329 15.4645ZM13.6941 15.4645V10.5615L17.9329 8.11511L22.177 10.5615V15.4645L17.9329 17.9113L13.6941 15.4645Z"
    fill="#86EE02" />
  <path
    d="M58.337 21.7199H55.7164V12.3884L53.2664 12.4341V21.7199H50.6575V3.88852H53.2664V10.6339C53.8743 10.5425 54.4821 10.448 55.0895 10.3491C55.8567 10.2275 56.4641 10.1664 56.9125 10.1664C57.862 10.1664 58.337 10.6339 58.337 11.568V21.7199ZM65.1505 12.1265H62.7004V14.8836H65.1505V12.1265ZM67.6457 20.2954C67.6457 21.2454 67.1558 21.7199 66.176 21.7199H61.6755C60.6957 21.7199 60.2058 21.2454 60.2058 20.2954V11.6366C60.2058 10.6871 60.6957 10.212 61.6755 10.212H66.176C67.1558 10.212 67.6457 10.6871 67.6457 11.6366V15.8634L66.9278 16.5813H62.7004V19.8055H65.1505V17.8916H67.6457V20.2954ZM92.1911 19.4086V16.3209H89.6959V19.5L92.1911 19.4086ZM94.6635 21.4824H92.1683V21.0834C91.5758 21.1747 90.9834 21.2656 90.3909 21.357C89.6162 21.4707 89.0275 21.5276 88.6247 21.5276C87.6752 21.5276 87.2007 21.0605 87.2007 20.1264V15.9793C87.2007 15.0298 87.6906 14.5547 88.6704 14.5547H92.1911V11.9113H89.6959V13.5521H87.3373V11.3991C87.3373 10.4496 87.8272 9.97454 88.807 9.97454H93.2166C94.181 9.97454 94.6635 10.4496 94.6635 11.3991V21.4824ZM104.172 9.99739L101.29 21.357L100.185 25.7092H97.5184L98.715 21.4139L95.7984 9.99739H98.4759L99.9907 17.5627L101.507 9.99739H104.172ZM132.515 21.4707H129.918V21.0722C129.318 21.171 128.714 21.2699 128.106 21.3682C127.369 21.4824 126.761 21.5393 126.283 21.5393C125.334 21.5393 124.859 21.0648 124.859 20.1152V9.96338H127.445V19.306L129.918 19.2492V9.96338H132.515V21.4707ZM139.443 18.4399V12.1392L136.993 12.1849V19.306H138.611C139.166 19.306 139.443 19.0175 139.443 18.4399ZM142.064 19.1578C142.064 19.8799 141.847 20.4452 141.414 20.8554C140.981 21.2656 140.404 21.4707 139.682 21.4707H134.384V3.63985H136.993V10.3847C137.601 10.2939 138.209 10.1988 138.816 10.0999C139.583 9.97879 140.191 9.91768 140.639 9.91768C141.589 9.91768 142.064 10.3847 142.064 11.3188V19.1578ZM48.7893 3.87523V7.6685H42.5147V21.7343H38.7214V7.6685H32.7002V3.87523H48.7893ZM85.9191 8.8906C85.9191 10.1802 85.4356 11.4108 84.5584 12.3544C84.0318 12.9214 83.3926 13.3534 82.6886 13.6302C82.6886 13.6302 82.6498 13.6647 81.984 13.8294C81.3188 13.9936 81.2066 13.9963 81.2066 13.9963H75.0866V21.6567H71.2934V10.1802H75.0866V10.1881H80.8278C81.543 10.1881 82.1259 9.60578 82.1259 8.8906C82.1259 8.17434 81.543 7.59252 80.8278 7.59252C80.7964 7.59252 80.7678 7.59358 80.7433 7.59571L80.7337 7.59677L80.7077 7.60049H80.0919V7.59252H71.2934V4.51019L71.2939 3.79872H81.069C81.069 3.79872 81.475 3.84867 81.8453 3.9204C82.2157 3.99266 82.4824 4.07289 82.4824 4.07289C84.4904 4.76045 85.9191 6.66532 85.9191 8.8906ZM122.991 3.61328V21.442H119.197V13.8454H110.977V21.442H107.184V3.61328H110.977V10.0516H119.197V3.61328H122.991Z"
    fill="white" />
</svg>