<svg width="32" height="32" viewBox="0 0 32 32" fill="none" xmlns="http://www.w3.org/2000/svg">
<path d="M16 10.6666V16L18 18" stroke="#B0C9E2" stroke-width="2" stroke-linecap="round" stroke-linejoin="round"/>
<path d="M26.0607 21.9378C28.2426 23.1159 29.3335 23.7051 29.3335 24.6666C29.3335 25.6281 28.2426 26.2173 26.0607 27.3954L24.575 28.1978C22.8994 29.1026 22.0617 29.555 21.6587 29.2261C20.6722 28.4205 22.2091 26.3414 22.5873 25.6049C22.9705 24.8586 22.9635 24.4612 22.5873 23.7284C22.2091 22.9918 20.6722 20.9128 21.6587 20.1072C22.0617 19.7782 22.8994 20.2306 24.575 21.1354L26.0607 21.9378Z" stroke="#B0C9E2" stroke-width="2"/>
<path d="M17.368 29.264C16.9182 29.3098 16.4617 29.3333 15.9998 29.3333C8.63604 29.3333 2.6665 23.3637 2.6665 16C2.6665 8.63616 8.63604 2.66663 15.9998 2.66663C23.3636 2.66663 29.3332 8.63616 29.3332 16C29.3332 16.9132 29.2413 17.805 29.0665 18.6666" stroke="#B0C9E2" stroke-width="2" stroke-linecap="round"/>
</svg>
