<svg width="32" height="32" viewBox="0 0 32 32" fill="none" xmlns="http://www.w3.org/2000/svg">
<path d="M1.6665 16C1.6665 8.08394 8.08376 1.66669 15.9998 1.66669C23.916 1.66669 30.3332 8.08394 30.3332 16C30.3332 23.9162 23.916 30.3334 15.9998 30.3334C8.08376 30.3334 1.6665 23.9162 1.6665 16Z" fill="#004280"/>
<path d="M15.3228 9.03834C15.6381 8.5428 16.3616 8.5428 16.6769 9.03834L17.5893 10.4719C18.5981 12.0572 19.9426 13.4018 21.528 14.4106L22.9616 15.323C23.457 15.6383 23.457 16.3618 22.9616 16.6771L21.528 17.5895C19.9426 18.5983 18.5981 19.9428 17.5892 21.5281L16.6769 22.9618C16.3616 23.4572 15.6381 23.4572 15.3228 22.9618L14.4104 21.5281C13.4016 19.9428 12.057 18.5983 10.4717 17.5894L9.03815 16.6771C8.54262 16.3618 8.54262 15.6383 9.03815 15.323L10.4717 14.4106C12.057 13.4018 13.4016 12.0572 14.4104 10.4719L15.3228 9.03834Z" fill="#B0C9E2"/>
</svg>
