<svg width="16" height="16" viewBox="0 0 16 16" fill="none" xmlns="http://www.w3.org/2000/svg">
<path d="M6.5 8.25L5.25 9.5L6.5 10.75L7.75 9.5L6.5 8.25ZM9.5 3.25C7.7862 3.25 6.38222 4.57652 6.25881 6.25881C4.57652 6.38222 3.25 7.7862 3.25 9.5C3.25 11.295 4.70508 12.75 6.5 12.75C8.2138 12.75 9.6178 11.4235 9.7412 9.7412C11.4235 9.6178 12.75 8.2138 12.75 6.5C12.75 4.70508 11.295 3.25 9.5 3.25ZM9.6617 8.7443C9.37875 7.5563 8.4437 6.62123 7.2557 6.33833C7.3386 5.17115 8.3117 4.25 9.5 4.25C10.7427 4.25 11.75 5.25736 11.75 6.5C11.75 7.6883 10.8288 8.6614 9.6617 8.7443ZM8.75 9.5C8.75 10.7427 7.74265 11.75 6.5 11.75C5.25736 11.75 4.25 10.7427 4.25 9.5C4.25 8.25735 5.25736 7.25 6.5 7.25C7.74265 7.25 8.75 8.25735 8.75 9.5ZM3.5 5.5C3.5 4.39543 4.39543 3.5 5.5 3.5H6.25V4.5H5.5C4.94772 4.5 4.5 4.94772 4.5 5.5V6.25H3.5V5.5ZM11.5 10.5V9.75H12.5V10.5C12.5 11.6046 11.6046 12.5 10.5 12.5H9.75V11.5H10.5C11.0523 11.5 11.5 11.0523 11.5 10.5Z" fill="white"/>
</svg>
