<svg width="32" height="32" viewBox="0 0 32 32" fill="none" xmlns="http://www.w3.org/2000/svg">
<path d="M20.652 1.87081C19.1331 1.66659 17.1923 1.6666 14.7419 1.66663C12.2916 1.6666 10.2003 1.66659 8.68131 1.87081C7.11808 2.08097 5.85281 2.5238 4.85499 3.52161C3.85717 4.51944 3.41435 5.78471 3.20419 7.34793C2.99996 8.86688 2.99997 10.8077 3 13.2581V18.7418C2.99997 21.1922 2.99996 23.133 3.20419 24.652C3.41435 26.2152 3.85717 27.4805 4.85499 28.4784C5.85281 29.4761 7.11808 29.9189 8.68131 30.1292C10.2003 30.3333 12.2915 30.3333 14.7419 30.3333C15.5031 30.3333 16.2152 30.3333 16.8808 30.3272C14.7299 28.7501 13.3333 26.2048 13.3333 23.3333C13.3333 18.5468 17.2135 14.6666 22 14.6666C23.5785 14.6666 25.0585 15.0886 26.3333 15.8261V13.2581C26.3333 10.8078 26.3333 8.86687 26.1292 7.34793C25.9189 5.78471 25.4761 4.51944 24.4784 3.52161C23.4805 2.5238 22.2152 2.08097 20.652 1.87081Z" fill="#004280"/>
<path fill-rule="evenodd" clip-rule="evenodd" d="M8.3335 9.33337C8.3335 8.78109 8.78122 8.33337 9.3335 8.33337H20.0002C20.5524 8.33337 21.0002 8.78109 21.0002 9.33337C21.0002 9.88565 20.5524 10.3334 20.0002 10.3334H9.3335C8.78122 10.3334 8.3335 9.88565 8.3335 9.33337ZM8.3335 14.6667C8.3335 14.1144 8.78122 13.6667 9.3335 13.6667H15.3335C15.8858 13.6667 16.3335 14.1144 16.3335 14.6667C16.3335 15.219 15.8858 15.6667 15.3335 15.6667H9.3335C8.78122 15.6667 8.3335 15.219 8.3335 14.6667Z" fill="#B0C9E2"/>
<path fill-rule="evenodd" clip-rule="evenodd" d="M22 16.3334C18.134 16.3334 15 19.4674 15 23.3334C15 27.1994 18.134 30.3334 22 30.3334C25.866 30.3334 29 27.1994 29 23.3334C29 19.4674 25.866 16.3334 22 16.3334ZM23 20.6667C23 20.1144 22.5523 19.6667 22 19.6667C21.4477 19.6667 21 20.1144 21 20.6667V23.9334C21 24.3528 21.2619 24.7278 21.6557 24.8723L23.6557 25.6056C24.1743 25.7958 24.7488 25.5295 24.9389 25.011C25.1291 24.4924 24.8628 23.9179 24.3443 23.7278L23 23.235V20.6667Z" fill="#B0C9E2"/>
</svg>
