<svg width="84" height="85" viewBox="0 0 84 85" fill="none" xmlns="http://www.w3.org/2000/svg">
  <path
    d="M39.6504 2.41483C41.1045 1.57532 42.8955 1.57532 44.3496 2.41483L75.123 20.1814C76.5772 21.021 77.4727 22.5726 77.4727 24.2517V59.7849C77.4727 61.4641 76.5772 63.0157 75.123 63.8553L44.3496 81.6219C42.8955 82.4614 41.1045 82.4614 39.6504 81.6219L8.87695 63.8553C7.42282 63.0157 6.52734 61.4641 6.52734 59.7849V24.2517C6.52734 22.5726 7.42282 21.021 8.87695 20.1814L39.6504 2.41483Z"
    fill="#B0C9E2" stroke="url(#paint0_linear_537_1125)" stroke-width="1.8" />
  <path d="M42 63.5C53.8742 63.5 63.5 53.8742 63.5 42C63.5 30.1259 53.8742 20.5 42 20.5C30.1259 20.5 20.5 30.1259 20.5 42C20.5 53.8742 30.1259 63.5 42 63.5Z" fill="#004280" />
  <path
    d="M32 42C32 38.2288 32 36.3431 33.1716 35.1716C34.3432 34 36.2288 34 40 34H44C47.7712 34 49.6569 34 50.8284 35.1716C52 36.3431 52 38.2288 52 42C52 45.7712 52 47.6569 50.8284 48.8284C49.6569 50 47.7712 50 44 50H40C36.2288 50 34.3432 50 33.1716 48.8284C32 47.6569 32 45.7712 32 42Z"
    stroke="#B0C9E2" stroke-width="1.5" stroke-linecap="round" stroke-linejoin="round" />
  <path d="M41 40C41 38.8954 40.1046 38 39 38C37.8954 38 37 38.8954 37 40C37 41.1046 37.8954 42 39 42C40.1046 42 41 41.1046 41 40Z" stroke="#B0C9E2" stroke-width="1.5" stroke-linecap="round"
    stroke-linejoin="round" />
  <path d="M43 46C43 43.7909 41.2091 42 39 42C36.7909 42 35 43.7909 35 46" stroke="#B0C9E2" stroke-width="1.5" stroke-linecap="round" stroke-linejoin="round" />
  <path d="M45 39H49" stroke="#B0C9E2" stroke-width="1.5" stroke-linecap="round" stroke-linejoin="round" />
  <path d="M45 42H49" stroke="#B0C9E2" stroke-width="1.5" stroke-linecap="round" stroke-linejoin="round" />
  <defs>
    <linearGradient id="paint0_linear_537_1125" x1="42" y1="0.0183411" x2="42" y2="84.0183" gradientUnits="userSpaceOnUse">
      <stop stop-color="white" stop-opacity="0.1" />
      <stop offset="1" stop-color="#011427" />
    </linearGradient>
  </defs>
</svg>