<svg width="48" height="48" viewBox="0 0 48 48" fill="none" xmlns="http://www.w3.org/2000/svg">
<path fill-rule="evenodd" clip-rule="evenodd" d="M17.8508 3.50004C17.9468 3.50006 18.0442 3.50008 18.1429 3.50008C19.2211 3.50008 20.0953 4.37418 20.0953 5.45246C20.0953 6.53072 19.2211 7.40482 18.1429 7.40482C15.3075 7.40482 14.2334 7.41842 13.3912 7.6206C10.5357 8.30616 8.30616 10.5357 7.6206 13.3912C7.41842 14.2334 7.40482 15.3075 7.40482 18.1429C7.40482 19.2211 6.53072 20.0952 5.45244 20.0952C4.37418 20.0952 3.50008 19.2211 3.50008 18.1429C3.50008 18.0442 3.50006 17.9468 3.50004 17.8508C3.49954 15.4087 3.49924 13.8314 3.82374 12.4797C4.85206 8.19638 8.19638 4.85208 12.4797 3.82374C13.8314 3.49924 15.4087 3.49956 17.8508 3.50004ZM34.6087 7.6206C33.7667 7.41842 32.6925 7.40482 29.8571 7.40482C28.7789 7.40482 27.9047 6.53072 27.9047 5.45246C27.9047 4.37418 28.7789 3.50008 29.8571 3.50008C29.9559 3.50008 30.0531 3.50006 30.1491 3.50004C32.5913 3.49956 34.1687 3.49924 35.5203 3.82374C39.8035 4.85208 43.1479 8.19638 44.1763 12.4797C44.5007 13.8314 44.5005 15.4086 44.4999 17.8508C44.4999 17.9468 44.4999 18.0442 44.4999 18.1429C44.4999 19.2211 43.6257 20.0952 42.5475 20.0952C41.4693 20.0952 40.5951 19.2211 40.5951 18.1429C40.5951 15.3075 40.5815 14.2334 40.3793 13.3912C39.6939 10.5357 37.4643 8.30616 34.6087 7.6206ZM5.45244 27.9048C6.53072 27.9048 7.40482 28.779 7.40482 29.8572C7.40482 32.6926 7.41842 33.7666 7.6206 34.6088C8.30616 37.4644 10.5357 39.6938 13.3912 40.3794C14.2334 40.5816 15.3075 40.5952 18.1429 40.5952C19.2211 40.5952 20.0953 41.4694 20.0953 42.5476C20.0953 43.6258 19.2211 44.5 18.1429 44.5C18.0442 44.5 17.9468 44.5 17.8508 44.5C15.4086 44.5004 13.8313 44.5008 12.4797 44.1764C8.19638 43.148 4.85206 39.8036 3.82374 35.5204C3.49924 34.1686 3.49954 32.5914 3.50004 30.1492C3.50006 30.0532 3.50008 29.9558 3.50008 29.8572C3.50008 28.779 4.37418 27.9048 5.45244 27.9048ZM42.5475 27.9048C43.6257 27.9048 44.4999 28.779 44.4999 29.8572C44.4999 29.9558 44.4999 30.0532 44.4999 30.1492C44.5005 32.5914 44.5007 34.1688 44.1763 35.5204C43.1479 39.8036 39.8035 43.148 35.5203 44.1764C34.1687 44.5008 32.5913 44.5004 30.1491 44.5C30.0531 44.5 29.9559 44.5 29.8571 44.5C28.7789 44.5 27.9047 43.6258 27.9047 42.5476C27.9047 41.4694 28.7789 40.5952 29.8571 40.5952C32.6925 40.5952 33.7667 40.5816 34.6087 40.3794C37.4643 39.6938 39.6939 37.4644 40.3793 34.6088C40.5815 33.7666 40.5951 32.6926 40.5951 29.8572C40.5951 28.779 41.4693 27.9048 42.5475 27.9048Z" fill="#004280"/>
<path d="M17.5 18C17.5 14.4102 20.4102 11.5 24 11.5C27.5898 11.5 30.5 14.4102 30.5 18C30.5 20.5742 29.0036 22.7988 26.8332 23.8516C31.8144 25.1138 35.5 29.6264 35.5 35C35.5 35.8284 34.8284 36.5 34 36.5H14C13.1716 36.5 12.5 35.8284 12.5 35C12.5 29.6264 16.1855 25.1138 21.1668 23.8516C18.9964 22.7988 17.5 20.5742 17.5 18Z" fill="#B0C9E2"/>
</svg>
