<svg width="48" height="48" viewBox="0 0 48 48" fill="none" xmlns="http://www.w3.org/2000/svg">
<path d="M44 14.5668C44 19.85 39.5222 24.1336 34 24.1336C33.3506 24.1344 32.7032 24.0744 32.0654 23.9546C31.6062 23.8684 31.3766 23.8254 31.2164 23.8498C31.0562 23.8742 30.829 23.995 30.3748 24.2366C29.09 24.9198 27.5918 25.1612 26.151 24.8932C26.6986 24.2196 27.0726 23.4114 27.2376 22.545C27.3376 22.015 27.09 21.5002 26.7188 21.1234C25.0332 19.4117 24 17.1052 24 14.5668C24 9.28368 28.4776 5.00012 34 5.00012C39.5222 5.00012 44 9.28368 44 14.5668Z" stroke="#B0C9E2" stroke-width="3" stroke-linejoin="round"/>
<path d="M30.9844 15H31.0006M36.9844 15H37.0006" stroke="#B0C9E2" stroke-width="3" stroke-linecap="round"/>
<path d="M15.0038 43.0002H9.43634C8.78976 43.0002 8.14042 42.9092 7.54654 42.654C5.61332 41.8234 4.63248 40.7266 4.17538 40.0404C3.91528 39.6502 3.95234 39.1528 4.23452 38.778C6.47432 35.803 11.6769 34.0062 15.0133 34.006C18.3497 34.0062 23.5428 35.803 25.7826 38.778C26.0648 39.1528 26.1018 39.6502 25.8418 40.0404C25.3846 40.7266 24.4038 41.8234 22.4706 42.654C21.8766 42.9092 21.2274 43.0002 20.5808 43.0002H15.0038Z" stroke="#B0C9E2" stroke-width="3" stroke-linecap="round" stroke-linejoin="round"/>
<path d="M20.572 23.5778C20.572 26.6404 18.0838 29.1232 15.0145 29.1232C11.9452 29.1232 9.45703 26.6404 9.45703 23.5778C9.45703 20.5152 11.9452 18.0325 15.0145 18.0325C18.0838 18.0325 20.572 20.5152 20.572 23.5778Z" stroke="#B0C9E2" stroke-width="3" stroke-linecap="round" stroke-linejoin="round"/>
</svg>
