<svg width="32" height="32" viewBox="0 0 32 32" fill="none" xmlns="http://www.w3.org/2000/svg">
<path d="M23.3767 18.3746C24.3207 17.4306 25.8513 17.4306 26.7953 18.3746L27.6254 19.2048C28.5694 20.1488 28.5694 21.6793 27.6254 22.6232L23.1603 27.0882C22.4273 27.8213 21.4935 28.321 20.4769 28.5244L18.1962 28.9805C17.8683 29.0461 17.5294 28.9434 17.2929 28.707C17.0565 28.4706 16.9539 28.1317 17.0194 27.8038L17.4755 25.5232C17.6789 24.5065 18.1786 23.5728 18.9118 22.8397L23.3767 18.3746Z" fill="#B0C9E2"/>
<path d="M15.3541 27.6666C15.3621 27.6034 15.3724 27.5401 15.385 27.477L15.8412 25.1964C16.109 23.857 16.7673 22.6269 17.733 21.6612L20.6429 18.7513C19.4181 17.7224 17.951 16.9724 16.3397 16.5994C19.055 15.6366 20.9998 13.0454 20.9998 10C20.9998 6.13401 17.8658 3 13.9998 3C10.1338 3 6.99984 6.13401 6.99984 10C6.99984 13.0454 8.9446 15.6366 11.66 16.5994C7.08012 17.6596 3.6665 21.7645 3.6665 26.6666C3.6665 27.2189 4.11421 27.6666 4.6665 27.6666H15.3541Z" fill="#004280"/>
</svg>
