<svg width="20" height="21" viewBox="0 0 20 21" fill="none" xmlns="http://www.w3.org/2000/svg">
  <path d="M12.5 8.47461C12.5 7.0939 11.3807 5.97461 10 5.97461C8.61925 5.97461 7.5 7.0939 7.5 8.47461C7.5 9.85536 8.61925 10.9746 10 10.9746C11.3807 10.9746 12.5 9.85536 12.5 8.47461Z"
    stroke="currentColor" stroke-width="1.5" stroke-linecap="round" stroke-linejoin="round" />
  <path
    d="M18.3332 10.9749C18.3332 6.37256 14.6022 2.6416 9.99984 2.6416C5.39746 2.6416 1.6665 6.37256 1.6665 10.9749C1.6665 15.5773 5.39746 19.3083 9.99984 19.3083C14.6022 19.3083 18.3332 15.5773 18.3332 10.9749Z"
    stroke="currentColor" stroke-width="1.5" stroke-linecap="round" stroke-linejoin="round" />
  <path d="M14.1668 15.1413C14.1668 12.8401 12.3013 10.9746 10.0002 10.9746C7.69898 10.9746 5.8335 12.8401 5.8335 15.1413" stroke="currentColor" stroke-width="1.5" stroke-linecap="round"
    stroke-linejoin="round" />
</svg>