<svg width="20" height="20" viewBox="0 0 20 20" fill="none" xmlns="http://www.w3.org/2000/svg">
  <path
    d="M9.99942 13.75C12.7459 13.75 15.1482 14.9312 16.4547 16.6937L15.0732 17.347C14.0097 16.087 12.1347 15.25 9.99942 15.25C7.86417 15.25 5.98917 16.087 4.92567 17.347L3.54492 16.693C4.85142 14.9305 7.25292 13.75 9.99942 13.75ZM9.99942 2.5C10.994 2.5 11.9478 2.89509 12.6511 3.59835C13.3543 4.30161 13.7494 5.25544 13.7494 6.25V8.5C13.7494 9.46635 13.3763 10.3954 12.7079 11.0933C12.0396 11.7913 11.1276 12.2043 10.1622 12.2463L9.99942 12.25C9.00486 12.25 8.05103 11.8549 7.34777 11.1517C6.64451 10.4484 6.24942 9.49456 6.24942 8.5V6.25C6.24948 5.28365 6.62258 4.35463 7.29092 3.65667C7.95925 2.95871 8.87123 2.54569 9.83667 2.50375L9.99942 2.5ZM9.99942 4C9.42551 3.99997 8.87329 4.21924 8.45573 4.61296C8.03817 5.00668 7.78684 5.54508 7.75317 6.118L7.74942 6.25V8.5C7.74886 9.08568 7.97669 9.6485 8.3845 10.0689C8.79231 10.4892 9.34797 10.734 9.93339 10.7512C10.5188 10.7684 11.0879 10.5566 11.5196 10.1609C11.9514 9.76519 12.2119 9.2167 12.2457 8.632L12.2494 8.5V6.25C12.2494 5.65326 12.0124 5.08097 11.5904 4.65901C11.1685 4.23705 10.5962 4 9.99942 4Z"
    fill="#7B7B7B" />
</svg>