<svg width="32" height="32" viewBox="0 0 32 32" fill="none" xmlns="http://www.w3.org/2000/svg">
<path d="M19.9998 3.27715C18.7372 2.88055 17.3934 2.66675 15.9998 2.66675C8.63604 2.66675 2.6665 8.63628 2.6665 16.0001C2.6665 23.3638 8.63604 29.3334 15.9998 29.3334C23.3636 29.3334 29.3332 23.3638 29.3332 16.0001C29.3332 14.6065 29.1193 13.2628 28.7228 12.0001" stroke="#B0C9E2" stroke-width="2" stroke-linecap="round" stroke-linejoin="round"/>
<path d="M20 13.3333C20 15.5425 18.2092 17.3333 16 17.3333C13.7908 17.3333 12 15.5425 12 13.3333C12 11.1241 13.7908 9.33325 16 9.33325C18.2092 9.33325 20 11.1241 20 13.3333Z" stroke="#B0C9E2" stroke-width="2" stroke-linecap="round" stroke-linejoin="round"/>
<path d="M7.3335 25.9999L8.0807 24.6923C9.26764 22.6153 11.4766 21.3333 13.869 21.3333H18.1313C20.5237 21.3333 22.7326 22.6153 23.9196 24.6923L24.6668 25.9999" stroke="#B0C9E2" stroke-width="2" stroke-linecap="round" stroke-linejoin="round"/>
<path d="M25.2985 2.69539C25.3062 2.6572 25.3609 2.6572 25.3686 2.69539C25.7738 4.67752 27.3227 6.22653 29.3049 6.63165C29.3431 6.63947 29.3431 6.69403 29.3049 6.70184C27.3227 7.10696 25.7738 8.65597 25.3686 10.6381C25.3609 10.6763 25.3062 10.6763 25.2985 10.6381C24.8933 8.65597 23.3443 7.10696 21.3622 6.70184C21.3239 6.69403 21.3239 6.63947 21.3622 6.63165C23.3443 6.22653 24.8933 4.67752 25.2985 2.69539Z" stroke="#B0C9E2" stroke-width="2" stroke-linecap="round" stroke-linejoin="round"/>
</svg>
