<svg width="32" height="32" viewBox="0 0 32 32" fill="none" xmlns="http://www.w3.org/2000/svg">
<path d="M17.3332 14.6666C17.3332 11.7211 14.9453 9.33325 11.9998 9.33325C9.05432 9.33325 6.6665 11.7211 6.6665 14.6666C6.6665 17.6121 9.05432 19.9999 11.9998 19.9999C14.9453 19.9999 17.3332 17.6121 17.3332 14.6666Z" stroke="#B0C9E2" stroke-width="2" stroke-linecap="round" stroke-linejoin="round"/>
<path d="M14.718 10.077C14.684 9.83396 14.6665 9.58569 14.6665 9.33333C14.6665 6.38781 17.0544 4 19.9998 4C22.9453 4 25.3332 6.38781 25.3332 9.33333C25.3332 12.2789 22.9453 14.6667 19.9998 14.6667C19.007 14.6667 18.0777 14.3955 17.2817 13.9231" stroke="#B0C9E2" stroke-width="2" stroke-linecap="round" stroke-linejoin="round"/>
<path d="M20 28C20 23.5817 16.4183 20 12 20C7.58172 20 4 23.5817 4 28" stroke="#B0C9E2" stroke-width="2" stroke-linecap="round" stroke-linejoin="round"/>
<path d="M28 22.6667C28 18.2485 24.4183 14.6667 20 14.6667" stroke="#B0C9E2" stroke-width="2" stroke-linecap="round" stroke-linejoin="round"/>
</svg>
