<svg width="48" height="48" viewBox="0 0 48 48" fill="none" xmlns="http://www.w3.org/2000/svg">
<path d="M4 24C4 16.4575 4 12.6863 6.34314 10.3431C8.6863 8 12.4575 8 20 8H28C35.5424 8 39.3138 8 41.6568 10.3431C44 12.6863 44 16.4575 44 24C44 31.5424 44 35.3138 41.6568 37.6568C39.3138 40 35.5424 40 28 40H20C12.4575 40 8.6863 40 6.34314 37.6568C4 35.3138 4 31.5424 4 24Z" stroke="#B0C9E2" stroke-width="3" stroke-linecap="round" stroke-linejoin="round"/>
<path d="M22 20C22 17.7909 20.2092 16 18 16C15.7909 16 14 17.7909 14 20C14 22.2092 15.7909 24 18 24C20.2092 24 22 22.2092 22 20Z" stroke="#B0C9E2" stroke-width="3" stroke-linecap="round" stroke-linejoin="round"/>
<path d="M26 32C26 27.5818 22.4182 24 18 24C13.5817 24 10 27.5818 10 32" stroke="#B0C9E2" stroke-width="3" stroke-linecap="round" stroke-linejoin="round"/>
<path d="M30 18H38" stroke="#B0C9E2" stroke-width="3" stroke-linecap="round" stroke-linejoin="round"/>
<path d="M30 24H38" stroke="#B0C9E2" stroke-width="3" stroke-linecap="round" stroke-linejoin="round"/>
</svg>
