<svg width="33" height="32" viewBox="0 0 33 32" fill="none" xmlns="http://www.w3.org/2000/svg">
<path fill-rule="evenodd" clip-rule="evenodd" d="M12.7474 3.26736C12.7839 4.00284 12.2172 4.62861 11.4817 4.66506C8.71909 4.80197 7.43257 5.21081 6.57169 6.07169C5.71081 6.93257 5.30197 8.21909 5.16506 10.9817C5.12861 11.7172 4.50284 12.2839 3.76736 12.2474C3.03189 12.211 2.46521 11.5852 2.50166 10.8497C2.64225 8.01309 3.06356 5.8086 4.68608 4.18608C6.3086 2.56356 8.51309 2.14225 11.3497 2.00166C12.0852 1.96521 12.711 2.53189 12.7474 3.26736ZM20.2527 3.26736C20.2891 2.53189 20.9148 1.96521 21.6504 2.00166C24.4869 2.14225 26.6915 2.56356 28.314 4.18608C29.9365 5.8086 30.3579 8.01309 30.4984 10.8497C30.5348 11.5852 29.9681 12.211 29.2327 12.2474C28.4972 12.2839 27.8715 11.7172 27.8349 10.9817C27.6981 8.21909 27.2892 6.93257 26.4284 6.07169C25.5675 5.21081 24.2809 4.80197 21.5184 4.66506C20.7828 4.62861 20.2161 4.00284 20.2527 3.26736ZM3.76736 19.7527C4.50284 19.7161 5.12861 20.2828 5.16506 21.0184C5.30197 23.7809 5.71081 25.0675 6.57169 25.9284C7.43257 26.7892 8.71909 27.1981 11.4817 27.3349C12.2172 27.3715 12.7839 27.9972 12.7474 28.7327C12.711 29.4681 12.0852 30.0348 11.3497 29.9984C8.51309 29.8579 6.3086 29.4365 4.68608 27.814C3.06356 26.1915 2.64225 23.9869 2.50166 21.1504C2.46521 20.4148 3.03189 19.7891 3.76736 19.7527ZM29.2327 19.7527C29.9681 19.7891 30.5348 20.4148 30.4984 21.1504C30.3579 23.9869 29.9365 26.1915 28.314 27.814C26.6915 29.4365 24.4869 29.8579 21.6504 29.9984C20.9148 30.0348 20.2891 29.4681 20.2527 28.7327C20.2161 27.9972 20.7828 27.3715 21.5184 27.3349C24.2809 27.1981 25.5675 26.7892 26.4284 25.9284C27.2892 25.0675 27.6981 23.7809 27.8349 21.0184C27.8715 20.2828 28.4972 19.7161 29.2327 19.7527Z" fill="#B0C9E2"/>
<path d="M9.50895 10.7073C11.3531 9.42187 13.731 8.33325 16.5002 8.33325C19.2694 8.33325 21.6472 9.42187 23.4914 10.7073C25.3354 11.9926 26.7615 13.5886 27.525 14.5445C27.7831 14.8623 28.1668 15.3347 28.1668 15.9999C28.1668 16.6651 27.7831 17.1375 27.525 17.4554C26.7615 18.4113 25.3354 20.0073 23.4914 21.2925C21.6472 22.5779 19.2694 23.6666 16.5002 23.6666C13.731 23.6666 11.3531 22.5779 9.50895 21.2925C7.66502 20.0073 6.23888 18.4113 5.47539 17.4554C5.2172 17.1375 4.8335 16.6651 4.8335 15.9999C4.8335 15.3347 5.2172 14.8623 5.47539 14.5445C6.23888 13.5886 7.66502 11.9926 9.50895 10.7073Z" fill="#004280"/>
<path d="M12.8335 15.9999C12.8335 18.025 14.4751 19.6666 16.5002 19.6666C18.5252 19.6666 20.1668 18.025 20.1668 15.9999C20.1668 13.9749 18.5252 12.3333 16.5002 12.3333C14.4751 12.3333 12.8335 13.9749 12.8335 15.9999Z" fill="#B0C9E2"/>
</svg>
