<svg width="32" height="32" viewBox="0 0 32 32" fill="none" xmlns="http://www.w3.org/2000/svg">
<path d="M17.8526 2.3335C19.5908 2.3335 20.9998 3.74255 20.9998 5.48063V8.66683H4.77197L16.5832 2.60043C16.9825 2.42439 17.4149 2.33351 17.8526 2.3335Z" fill="#B0C9E2"/>
<path d="M29 20.7527V20.6668V19.3335V19.2476C29 17.4302 29.0001 15.9646 28.8451 14.8114C28.6837 13.6112 28.3377 12.6009 27.5352 11.7983C26.7327 10.9958 25.7223 10.6498 24.5221 10.4884C23.3689 10.3334 21.9033 10.3335 20.0859 10.3335H20H4C3.48245 10.3335 3.05671 10.7267 3.00521 11.2306L3 11.3335V20.6668V20.7527C2.99996 22.5702 2.99993 24.0358 3.15495 25.189C3.31631 26.3891 3.66229 27.3995 4.46484 28.202C5.2674 29.0046 6.27772 29.3506 7.47787 29.5119C8.63109 29.667 10.0967 29.6668 11.9141 29.6668H12H20H20.0859C21.9033 29.6668 23.3689 29.667 24.5221 29.5119C25.7223 29.3506 26.7327 29.0046 27.5352 28.202C28.3377 27.3995 28.6837 26.3891 28.8451 25.189C29.0001 24.0358 29 22.5702 29 20.7527Z" fill="#004280"/>
<path d="M24.9998 20.0002C24.9998 19.0796 24.2537 18.3335 23.3332 18.3335C22.4126 18.3335 21.6665 19.0796 21.6665 20.0002C21.6665 20.9207 22.4126 21.6668 23.3332 21.6668C24.2537 21.6668 24.9998 20.9207 24.9998 20.0002Z" fill="#B0C9E2"/>
</svg>
