<svg width="48" height="48" viewBox="0 0 208 208" fill="none" xmlns="http://www.w3.org/2000/svg">
<path d="M102.657 5.36914C103.488 4.88943 104.512 4.88943 105.343 5.36914L188.745 53.5215C189.576 54.0012 190.088 54.8881 190.088 55.8477V152.152C190.088 153.112 189.576 153.999 188.745 154.479L105.343 202.631C104.512 203.111 103.488 203.111 102.657 202.631L19.2549 154.479C18.4239 153.999 17.9121 153.112 17.9121 152.152V55.8477C17.9121 54.8881 18.4239 54.0012 19.2549 53.5215L102.657 5.36914Z" fill="#B0C9E2" stroke="url(#paint0_linear_419_2153)" stroke-width="1.02857"/>
<path d="M135.5 66.3762C135.5 70.4208 134.111 74.2798 131.592 77.2391C130.08 79.0162 128.244 80.3717 126.222 81.2392C126.222 81.2392 126.111 81.3484 124.2 81.8638C122.289 82.3794 121.967 82.3868 121.967 82.3868H104.394V106.41H93.5V70.4208H104.394V70.4457H120.88C122.934 70.4457 124.606 68.619 124.606 66.3762C124.606 64.1308 122.934 62.3065 120.88 62.3065C120.789 62.3065 120.707 62.309 120.637 62.3163L120.61 62.3191L120.535 62.3314H118.767V62.3065H93.5V52.6406L93.5022 50.4102H121.572C121.572 50.4102 122.738 50.5663 123.801 50.7918C124.865 51.0172 125.63 51.27 125.63 51.27C131.397 53.4262 135.5 59.3994 135.5 66.3762Z" fill="black"/>
<path d="M51.5911 84.4988L58.1771 94.2297L50.9732 104.899L50.3793 105.78H37.2207L39.5514 102.328L51.5911 84.4988ZM88.3173 105.78H75.1609L74.5649 104.896L67.8398 94.9395L62.7746 87.4375L62.7678 87.4473L62.7612 87.4402L56.1753 77.7117L56.1908 77.6879L40.7499 54.8162L38.4191 51.3672H51.5733L52.1694 52.248L62.7702 67.945L73.3686 52.2481L73.9644 51.3672H87.1211L84.7903 54.8185L69.3472 77.6878L85.9866 102.328L88.3173 105.78Z" fill="black"/>
<path d="M90.0445 106.723H74.7236L62.0635 87.9977L55.1024 77.7153L55.1185 77.6907L40.0514 55.3728L36.6977 50.4102H52.0166L52.8739 51.6771L62.7734 66.3356L73.5277 50.4102H88.8483L70.4327 77.681L90.0445 106.723ZM75.6049 104.823H86.5966L68.2683 77.681L85.4004 52.3107H74.4078L74.0733 52.8053L62.7736 69.5409L51.1366 52.3107H40.1471L41.4547 54.2457L57.2697 77.6713L57.2546 77.6946L62.7758 85.8499L62.7775 85.8472L63.4797 86.8672L75.6049 104.823ZM50.8235 106.723H35.5L51.5936 82.8904L59.2629 94.2224L50.8235 106.723ZM38.9479 104.823H49.9416L57.0978 94.2236L51.5952 86.0935L38.9479 104.823Z" fill="#ED1C24"/>
<path d="M118.728 107.278H115.392V106.697C114.6 106.83 113.808 106.963 113.016 107.096C111.98 107.262 111.192 107.345 110.654 107.345C109.385 107.345 108.75 106.664 108.75 105.302V99.2548C108.75 97.8704 109.405 97.1781 110.715 97.1781H115.422V93.324H112.086V95.7162H108.933V92.5765C108.933 91.1923 109.588 90.5 110.898 90.5H116.794C118.083 90.5 118.728 91.1923 118.728 92.5765L118.728 107.278ZM115.422 104.255V99.753H112.086V104.388L115.422 104.255Z" fill="black"/>
<path d="M131.644 90.5L127.79 107.063L126.312 113.408H122.748L124.347 107.146L120.447 90.5H124.027L126.053 101.531L128.08 90.5H131.644Z" fill="black"/>
<path d="M73.204 157.504H68.3986V140.512C68.3986 139.617 68.498 138.37 68.6974 136.771L64.3833 154.356H61.8419L57.5063 136.771C57.7056 138.399 57.8054 139.647 57.8054 140.512V157.504H53V123.059H57.72L62.9739 142.097C63.0306 142.303 63.0733 142.823 63.102 143.66C63.102 143.293 63.1447 142.772 63.23 142.097L68.484 123.059H73.204V157.504Z" fill="black"/>
<path d="M90.8483 157.499H86.171V156.729C85.0607 156.905 83.9501 157.081 82.8395 157.257C81.3872 157.477 80.2837 157.587 79.5292 157.587C77.7491 157.587 76.8594 156.685 76.8594 154.88V146.869C76.8594 145.035 77.7777 144.117 79.6145 144.117H86.214V139.011H81.5367V142.18H77.1157V138.021C77.1157 136.187 78.0341 135.27 79.8709 135.27H88.1361C89.944 135.27 90.8483 136.187 90.8483 138.021L90.8483 157.499ZM86.214 153.494V147.529H81.5367V153.67L86.214 153.494Z" fill="black"/>
<path d="M107.952 144.575H103.104V139.491L99.2384 139.579V157.517H94.3477V135.287H99.2384V136.102C100.249 135.911 101.253 135.72 102.25 135.529C103.46 135.309 104.471 135.199 105.282 135.199C107.062 135.199 107.952 136.102 107.952 137.906V144.575Z" fill="black"/>
<path d="M125.102 157.504H119.89L115.598 147.313V157.504H110.707V123.059H115.598V143.748L119.463 135.274H124.568V135.362L119.592 145.464L125.102 157.504Z" fill="black"/>
<path d="M141.139 154.748C141.139 156.582 140.221 157.499 138.384 157.499H129.948C128.111 157.499 127.193 156.582 127.193 154.748V138.021C127.193 136.187 128.111 135.27 129.948 135.27H138.384C140.221 135.27 141.139 136.187 141.139 138.021V146.186L139.794 147.573H131.87V153.802H136.462V150.104H141.139V154.748ZM136.462 144.294V138.967H131.87V144.294H136.462Z" fill="black"/>
<path d="M154 157.518H148.576C146.767 157.518 145.863 156.601 145.863 154.767V139.58H143.557V135.288H145.863V129.258H150.733V135.288H153.872V139.58H150.733V153.226H154V157.518Z" fill="black"/>
<path d="M140.5 50.4102H172.5V62.41L154.827 94.4102H172.5V106.41H140.5V94.4102L158.173 62.41H140.5V50.4102Z" fill="black"/>
</svg>
