<svg viewBox="0 0 120 124" fill="none" xmlns="http://www.w3.org/2000/svg">
  <path
    d="M55.3574 3.22241C58.2304 1.56372 61.7696 1.56372 64.6426 3.22241L108.604 28.6033C111.477 30.262 113.247 33.3278 113.247 36.6453V87.407C113.247 90.7244 111.477 93.7902 108.604 95.449L64.6426 120.83C61.7696 122.489 58.2304 122.489 55.3574 120.83L11.3955 95.449C8.52255 93.7902 6.75293 90.7244 6.75293 87.407V36.6453C6.75293 33.3278 8.52255 30.262 11.3955 28.6033L55.3574 3.22241Z"
    fill="#B0C9E2" stroke="url(#paint0_linear_197_18053)" stroke-width="2.57143" />
  <path
    d="M81.1119 52.9019C81.1119 55.3548 80.1927 57.6946 78.5243 59.4893C77.5232 60.5668 76.3075 61.3889 74.9682 61.9144C74.9682 61.9144 74.8946 61.9811 73.6296 62.2935C72.3639 62.6059 72.1501 62.6108 72.1501 62.6108H60.5132V77.1783H53.2996V55.3548H60.5132V55.3694H71.4301C72.7909 55.3694 73.8983 54.262 73.8983 52.9019C73.8983 51.5404 72.7909 50.4337 71.4301 50.4337C71.3704 50.4337 71.3163 50.4351 71.2697 50.44L71.2517 50.4414L71.2017 50.449H70.0311V50.4337H53.2996V44.5726L53.3009 43.2201H71.8891C71.8891 43.2201 72.6611 43.3145 73.3651 43.4513C74.0698 43.5881 74.5759 43.7415 74.5759 43.7415C78.3945 45.0488 81.1119 48.6709 81.1119 52.9019ZM36.9741 59.667L48.1188 44.5337H41.1412L40.9482 44.794L33.486 54.9299L25.8287 44.5337H18.8546L29.9924 59.6615L29.9834 59.6747L33.4937 64.4312L33.4951 64.4291L34.0192 65.1276L41.9258 75.8647H48.9013L36.9741 59.667ZM26.1724 64.861L18.0708 75.8647H25.0463L29.6661 69.5925L26.1724 64.861Z"
    fill="black" />
  <path
    d="M33.4961 64.4291L33.494 64.4312L29.9837 59.6747L29.9927 59.6615L18.8557 44.5337H25.8298L33.4864 54.9299L40.9485 44.794L41.1415 44.5337H48.1191L36.9744 59.667L48.9016 75.8647H41.9261L34.0196 65.1276L33.4961 64.4291ZM38.6046 59.667L50.7157 43.2201H40.4792L33.4864 52.7158L27.0788 44.0157L26.4935 43.2201H16.257L28.3715 59.6747L28.3604 59.6899L32.9518 65.9094L41.2617 77.1783H51.5003L38.6046 59.667ZM18.0711 75.8654L26.1727 64.861L29.6664 69.5925L25.0473 75.8654H18.0711ZM26.1727 62.649L15.4724 77.1783H25.7131L31.2966 69.5925L26.1727 62.649Z"
    fill="#ED1C24" />
  <path
    d="M67.6332 75.3563V72.6056H65.4101V75.4376L67.6332 75.3563ZM69.8362 77.2038H67.6131V76.8484C67.0854 76.9296 66.5578 77.0108 66.0301 77.0921C65.3393 77.1934 64.8151 77.2441 64.4562 77.2441C63.6105 77.2441 63.187 76.8282 63.187 75.9958V72.3008C63.187 71.4552 63.6237 71.0316 64.4971 71.0316H67.6332V68.6766H65.4101V70.1388H63.3092V68.2205C63.3092 67.3741 63.7459 66.9513 64.6186 66.9513H68.5469C69.4064 66.9513 69.8362 67.3741 69.8362 68.2205V77.2038ZM78.4446 66.9513L75.8758 77.0719L74.8913 80.9495H72.5161L73.5819 77.1226L70.9831 66.9513H73.3687L74.7191 73.6915L76.0688 66.9513H78.4446ZM83.0762 43.0505H104.528V50.3634L92.6803 69.8652H104.528V77.1782H83.0762V69.8652L94.9228 50.3634H83.0762V43.0505Z"
    fill="black" />
  <defs>
    <linearGradient id="paint0_linear_197_18053" x1="60" y1="2.02612" x2="60" y2="122.026" gradientUnits="userSpaceOnUse">
      <stop stop-color="white" stop-opacity="0.9" />
      <stop offset="1" stop-color="#E3EEFA" stop-opacity="0.1" />
    </linearGradient>
  </defs>
</svg>